<svg width="190" height="168" viewBox="0 0 190 168" fill="none" xmlns="http://www.w3.org/2000/svg">
<path d="M190 72.4019C190 124.869 169.467 161.201 117 161.201C64.5329 161.201 0 124.869 0 72.4019C0 19.9349 42.5329 0 95 0C147.467 0 190 19.9349 190 72.4019Z" fill="#F9FAFB"/>
<path d="M101.024 104.29C100.815 101.794 100.737 99.2896 100.792 96.7859C100.792 96.5779 100.488 96.5219 100.464 96.7859C100.202 99.2954 100.229 101.827 100.544 104.33C100.549 104.394 100.58 104.452 100.628 104.494C100.677 104.535 100.74 104.555 100.804 104.55C100.868 104.545 100.926 104.514 100.968 104.465C101.009 104.417 101.029 104.354 101.024 104.29ZM97.3999 103.354C97.4144 103.386 97.438 103.414 97.4678 103.433C97.4976 103.453 97.5324 103.463 97.5679 103.463C97.6034 103.463 97.6382 103.453 97.668 103.433C97.6978 103.414 97.7214 103.386 97.7359 103.354C97.6239 100.834 97.5199 98.3059 97.4079 95.7779C97.4079 95.7355 97.3911 95.6948 97.361 95.6648C97.331 95.6348 97.2903 95.6179 97.2479 95.6179C97.2055 95.6179 97.1648 95.6348 97.1348 95.6648C97.1048 95.6948 97.0879 95.7355 97.0879 95.7779C96.9812 97.6865 97.0026 99.6001 97.1519 101.506C97.1572 102.13 97.2405 102.751 97.3999 103.354ZM118.368 103.674C118.446 104.91 118.308 106.15 117.96 107.338C117.96 107.522 118.496 108.538 118.832 105.618C119.043 103.646 118.631 101.657 117.656 99.9299C117.552 99.7379 117.28 99.9299 117.368 100.098C117.922 101.217 118.261 102.43 118.368 103.674ZM108.672 45.8419C108.666 46.4439 108.87 47.0292 109.248 47.4979C109.728 47.9299 110.472 46.2499 112.704 45.9859V43.8259C111.147 43.9399 109.697 44.6645 108.672 45.8419ZM129.704 103.626C129.704 101.978 129.56 100.338 129.528 98.6899C129.528 98.4659 129.184 98.5139 129.184 98.7379C129.184 100.442 129.184 102.162 129.256 103.874C129.288 105.002 129.728 104.586 129.704 103.626ZM114.2 43.7859L114.248 45.9459C117.008 46.0419 117.808 48.1219 118.104 47.4739C118.232 47.1779 118.752 45.6979 118.472 45.4419C117.297 44.3875 115.778 43.7985 114.2 43.7859ZM56.7839 30.8019C56.3679 31.0259 56.7839 32.0099 57.1119 31.7939C57.4399 31.5779 57.2399 30.5379 56.7839 30.8019ZM56.2559 28.3939C55.6959 28.4499 55.6799 29.0259 56.2559 29.0979C56.6732 29.1303 57.0778 29.2561 57.4399 29.4659C57.6559 29.6099 57.8879 29.3219 57.7599 29.1219C57.5951 28.8793 57.3694 28.6843 57.1054 28.5566C56.8414 28.4288 56.5484 28.3727 56.2559 28.3939ZM54.8239 31.2099C55.038 31.7715 55.2065 32.3493 55.3279 32.9379C55.4639 33.6259 55.4559 33.8099 55.4239 33.8499C55.2947 33.8541 55.1662 33.8701 55.0399 33.8979C54.8079 33.9779 54.8079 34.2739 55.1679 34.4419C55.2655 34.4913 55.3758 34.51 55.4843 34.4957C55.5927 34.4815 55.6944 34.4348 55.7759 34.3619C56.1919 33.9619 56.0159 32.8339 55.2639 31.0099C55.2374 30.9516 55.1888 30.9061 55.1288 30.8836C55.0687 30.8611 55.0023 30.8634 54.9439 30.8899C54.8856 30.9164 54.8401 30.965 54.8176 31.0251C54.7951 31.0851 54.7974 31.1516 54.8239 31.2099Z" fill="#020617"/>
<path d="M170.776 127.578H159.424C160.472 121.978 154.248 118.034 150.376 120.098C149.978 118.157 148.886 116.429 147.304 115.237C145.722 114.046 143.759 113.473 141.784 113.626C141.573 112.251 141.053 110.942 140.264 109.798C139.474 108.653 138.434 107.703 137.224 107.018C136.848 102.538 137.016 97.9779 137.024 93.5539C137.704 93.6019 139.336 93.7539 139.072 93.1059C138.272 91.1219 136.904 87.8099 135.872 85.9059C136.288 85.9059 136.76 85.9059 136.76 85.4819C136.888 77.8019 137.136 61.6899 137.136 61.6899C137.264 52.1539 137.584 41.1939 130.888 33.3459C130.68 33.0979 130.392 33.0099 130.208 33.2659C127.484 37.1225 125.693 41.559 124.976 46.2259C124.704 41.6659 124.344 36.5139 123.64 31.4179C122.44 22.7699 119.544 16.9619 114.84 13.5139C114.392 13.1859 113.736 12.6579 113.44 12.8659C106.096 18.0659 103.936 27.1379 103.424 33.8339C103.24 36.6819 103.184 39.5699 103.256 42.4339C102.272 38.7619 98.896 31.5939 97.656 33.3219C91.88 41.5939 92.368 52.2819 92.856 61.7139C93.656 79.6819 93.896 84.3139 94 85.5219C94 85.9139 94 86.1779 95.104 86.0579C92.776 92.2259 92.296 93.2579 92.504 93.4339C92.712 93.6099 93.536 93.5539 93.936 93.5299C93.88 96.2259 94.52 109.33 94.432 110.026C93.8512 110.733 93.3842 111.527 93.048 112.378C91.6843 112.749 90.4186 113.415 89.3404 114.329C88.2622 115.242 87.3977 116.382 86.808 117.666C85.7437 117.562 84.6708 117.738 83.696 118.178C82.736 107.53 80.768 91.4339 78.36 80.7139C82.48 81.2499 84.448 79.4019 85.4 77.8019C87.8 73.6179 86.2 66.6659 83.224 62.8179C80.7051 57.4591 77.0109 52.7368 72.416 49.0019C72.904 48.0739 71.616 43.8579 68.344 42.1219C66.944 41.3779 65.08 41.3219 64.224 40.5219C62.392 38.7299 63.624 33.9619 59.808 32.7139C59.5612 30.7421 59.1518 28.7942 58.584 26.8899C63.384 24.8259 63.136 19.2419 60.304 17.6579C57.664 16.1859 56.208 18.2739 54.472 18.8579C52.072 19.6579 50.032 17.9299 46.88 17.9299C40.936 17.9299 39.528 23.9139 39.216 24.2099C38.904 24.5059 38.784 26.1939 36.136 27.2339C33.32 28.3299 29.736 28.3939 28.208 31.7059C26.912 34.6019 29.4 38.1379 27.688 40.8179C26.688 42.4179 23.096 42.5139 20.488 46.6979C17.696 51.1539 18.632 57.2019 22.48 59.7139C19.168 67.1539 19.32 75.0659 22.872 80.3939C26.12 85.2499 31.416 87.0739 37.168 86.9219C36.88 100.474 37 113.986 36.28 127.626C33.68 127.626 31.072 127.682 28.52 127.73C28.4479 127.73 28.3787 127.759 28.3277 127.81C28.2767 127.861 28.248 127.93 28.248 128.002C28.248 128.074 28.2767 128.143 28.3277 128.194C28.3787 128.245 28.4479 128.274 28.52 128.274C30.8 128.322 33.496 128.37 36.232 128.37C35.792 136.314 35.2 144.37 34.472 152.266C34.4 153.066 36.272 153.018 37.064 153.066C36.8452 154.177 36.762 155.311 36.816 156.442C36.208 156.978 35.32 160.642 35.368 161.322C35.368 161.466 35.432 161.554 35.528 161.57C36.408 161.714 49.704 162.37 50.32 161.642C50.3354 161.614 50.3435 161.582 50.3435 161.55C50.3435 161.518 50.3354 161.486 50.32 161.458C49.432 159.058 46.32 157.034 43.776 156.378L44.464 153.314C44.992 153.314 46.064 153.394 46.216 153.114C49.792 145.05 53.048 136.722 55.888 128.378H67.52C69.736 135.491 71.692 142.682 73.384 149.938C74.064 152.866 73.592 152.706 75.48 152.794C75.4711 153.935 75.6082 155.072 75.888 156.178C75.2744 157.622 74.9041 159.157 74.792 160.722C74.7765 160.749 74.7684 160.779 74.7684 160.81C74.7684 160.841 74.7765 160.871 74.792 160.898C75.296 161.538 89.656 162.074 90.64 161.49C91.44 160.978 87.056 156.73 83.168 155.946C83.2241 154.924 83.2 153.9 83.096 152.882C83.776 152.882 85.344 153.066 85.344 152.394C85.344 144.842 85.088 136.754 84.544 128.394H170.8C170.908 128.391 171.011 128.345 171.085 128.266C171.159 128.187 171.199 128.082 171.196 127.974C171.193 127.866 171.147 127.763 171.068 127.689C170.989 127.615 170.884 127.575 170.776 127.578ZM62.416 113.306C64.408 118.786 65.472 122.194 67.272 127.65H56.128C58.072 121.898 60.76 113.25 62.528 105.978C63.128 103.578 64.336 104.594 63.896 106.546C63.384 108.954 62.392 113.25 62.416 113.306ZM82.6 156.026C81.232 156.65 77.8 156.61 76.464 156.226C76.376 155.082 76.144 153.938 76.128 152.794L82.416 152.866C82.472 153.922 82.536 154.97 82.6 156.026ZM37.8 86.9139C44.52 86.5779 52.512 83.5059 59.2 78.6819C59.344 78.5779 59.472 78.5539 59.512 78.4179C59.552 78.2819 59.512 78.1699 59.272 77.8259C61.1507 76.9463 63.1234 76.2834 65.152 75.8499C65.952 75.7059 68.296 75.2579 68.72 73.9859L70.464 73.9379C72.144 77.4179 74.816 79.8339 77.808 80.5859L79.408 90.0979C66.192 94.6499 54.128 95.6179 37.848 93.4019C37.904 91.2499 37.912 89.0659 37.824 86.9139H37.8ZM58.768 38.1539C57.648 41.0579 55.312 41.1779 55.688 41.8659V42.1139C55.84 43.3859 56.136 46.0019 54.088 47.8499C50.632 46.4739 48.488 44.8899 46.888 42.5859C47.224 42.0019 46.888 39.4499 46.888 39.4259C46.392 36.8179 44.12 36.2899 44.632 33.9299C44.704 33.5859 44.808 33.3859 44.944 33.3219C45.392 33.1219 46.544 34.6659 46.784 32.8739C47.16 30.3139 47.88 28.3379 50.416 27.6179C52.768 26.9539 55.04 28.0899 58.08 27.0419C58.768 29.8899 59.952 35.0419 58.768 38.1539ZM54.208 48.5539C55.592 48.2099 56.776 44.8099 56.488 42.9059C58.6471 43.2109 60.7734 43.7143 62.84 44.4099C70.36 47.0899 76.888 52.8179 81.296 60.5939C78.288 57.7139 74.352 56.0899 70.792 56.3139C69.657 54.4538 68.3528 52.7024 66.896 51.0819C66.8743 51.0579 66.8477 51.0387 66.8181 51.0255C66.7885 51.0124 66.7564 51.0056 66.724 51.0056C66.6916 51.0056 66.6595 51.0124 66.6299 51.0255C66.6003 51.0387 66.5737 51.0579 66.552 51.0819C66.529 51.1043 66.5107 51.131 66.4983 51.1605C66.4858 51.1901 66.4794 51.2218 66.4794 51.2539C66.4794 51.286 66.4858 51.3177 66.4983 51.3472C66.5107 51.3768 66.529 51.4035 66.552 51.4259C67.8302 53.0153 69.0084 54.6825 70.08 56.4179C69.0197 56.5779 67.9976 56.9304 67.064 57.4579C66.9128 57.4727 66.763 57.4995 66.616 57.5379C66.1767 57.6372 65.7298 57.6987 65.28 57.7219C63.408 57.7219 63.336 56.9219 62.664 57.0099C61.328 57.1459 61.72 59.7859 64.792 60.3459C64.24 61.8899 63.992 65.2899 65.024 66.7459C63.792 66.7459 63 66.4899 62.952 67.7459C62.9359 67.9723 62.9359 68.1995 62.952 68.4259C62.5554 68.1706 62.1064 68.0079 61.6383 67.9497C61.1702 67.8916 60.695 67.9395 60.248 68.0899C59.408 68.4099 57.808 70.0819 57 70.7779C57 70.4419 57 69.9299 56.704 69.8979C51.624 69.4739 43.904 69.3539 39.28 69.4819C39.0265 66.2181 39.0693 62.938 39.408 59.6819C39.4218 59.6151 39.4085 59.5455 39.371 59.4885C39.3335 59.4315 39.2748 59.3917 39.208 59.3779C39.1412 59.3641 39.0716 59.3774 39.0146 59.4149C38.9576 59.4524 38.9178 59.5111 38.904 59.5779C38.648 61.0179 38.152 66.8899 38.672 69.5059L32.12 69.9379C32.0716 69.9425 32.0258 69.9616 31.9885 69.9928C31.9512 70.024 31.9243 70.0658 31.9113 70.1126C31.8983 70.1594 31.8998 70.2091 31.9157 70.255C31.9315 70.301 31.9609 70.341 32 70.3699C32.0225 70.3901 32.0494 70.4049 32.0785 70.4132C32.1076 70.4215 32.1382 70.4231 32.168 70.4179C40.245 69.9232 48.3462 69.9766 56.416 70.5779C56.4532 73.281 57.2668 75.9164 58.76 78.1699C48.088 85.8579 30.528 90.8819 23.36 79.9859C18.2 72.2019 20.76 58.6019 30.328 50.2979C34.8981 46.3795 40.4585 43.7945 46.4 42.8259C47.848 45.5859 53.16 48.7939 54.2 48.5379L54.208 48.5539ZM66.064 58.2499C65.6564 58.6803 65.3141 59.1682 65.048 59.6979C63.552 59.4739 62.704 58.6899 62.56 58.0419C62.448 57.5939 62.712 57.4099 63.264 57.7859C64.1324 58.2095 65.1054 58.3708 66.064 58.2499ZM69.952 62.6579C69.9114 62.7045 69.8874 62.7632 69.8837 62.8249C69.88 62.8866 69.8968 62.9478 69.9315 62.9989C69.9662 63.0501 70.0169 63.0883 70.0756 63.1076C70.1342 63.127 70.1977 63.1264 70.256 63.1059C70.904 62.8499 71.208 62.9059 71.256 63.0259C71.304 63.1459 71.048 63.7379 70.528 63.9939C70.192 64.1619 69.544 64.3139 69.048 63.4099C68.64 62.6739 69.336 61.8659 69.048 61.6979C68.76 61.5299 67.944 62.7699 68.64 63.8579C68.4962 63.9633 68.3242 64.0234 68.1461 64.0305C67.968 64.0377 67.7917 63.9915 67.64 63.8979C67.288 63.6259 67.048 62.8659 67.456 61.4979C67.608 60.9699 66.712 60.8339 66.6 63.0979C66.552 63.4099 66.208 65.3299 66.104 65.9779C66 66.6259 65.856 66.6739 65.84 66.6819C65.824 66.6899 65.752 66.6819 65.688 66.5939C65.12 65.9539 64.44 62.6979 65.528 60.1939C65.8662 59.3494 66.4441 58.6223 67.1903 58.1021C67.9366 57.5818 68.8187 57.2912 69.728 57.2659C70.2628 57.2557 70.7921 57.3748 71.271 57.6131C71.7498 57.8515 72.164 58.202 72.4782 58.6349C72.7925 59.0677 72.9975 59.5701 73.0758 60.0992C73.1541 60.6284 73.1034 61.1686 72.928 61.6739C72.8418 61.9428 72.6954 62.1885 72.5 62.3923C72.3045 62.5961 72.0651 62.7526 71.8 62.8499C71.7086 62.6937 71.5818 62.5612 71.4297 62.4632C71.2776 62.3652 71.1046 62.3044 70.9246 62.2857C70.7447 62.267 70.5628 62.2909 70.3939 62.3556C70.2249 62.4203 70.0735 62.5238 69.952 62.6579ZM64.064 69.4339C63.966 69.1581 63.7769 68.9239 63.528 68.7699L63.624 67.4739H67.416C67.416 67.9059 67.536 69.1779 67.536 69.1779C66.3741 69.183 65.214 69.2685 64.064 69.4339ZM66.544 66.7539C66.7553 65.8798 66.9076 64.9924 67 64.0979C67.26 64.3811 67.6133 64.5613 67.9953 64.6054C68.3773 64.6494 68.7623 64.5545 69.08 64.3379L69.208 64.4259C68.8658 65.9876 68.8223 67.6 69.08 69.1779H68.28C68.3018 68.4207 68.2183 67.6641 68.032 66.9299C67.8 66.7219 66.896 66.7539 66.544 66.7539ZM60.384 68.6899C60.9202 68.5559 61.4823 68.566 62.0133 68.7191C62.5443 68.8722 63.0255 69.163 63.408 69.5619C63.552 69.8019 63.528 69.8819 63.52 69.9059C63.512 69.9299 63.04 69.9939 62.72 69.9779C62.2472 69.9016 61.7625 69.9685 61.328 70.1699C60.6685 70.699 60.2363 71.4604 60.12 72.2979C60 74.3379 65.896 74.0819 67.912 74.0179C66.424 75.5379 61.992 75.1939 58.992 77.2899C57.9436 75.4816 57.2766 73.4778 57.032 71.4019C57.56 71.1619 59.536 69.0579 60.384 68.6899ZM85.4 76.2979C83.672 81.3459 78.256 80.0499 78.032 79.9939C74.256 79.0419 72.072 75.5219 71.248 73.8899C72.144 73.6819 71.888 72.8019 71.8 71.9539L78.776 71.7939C79.336 72.8579 80.664 72.5059 80.6 71.4419C80.6082 71.2104 80.5351 70.9833 80.3934 70.8C80.2517 70.6167 80.0504 70.4888 79.8242 70.4384C79.5981 70.3881 79.3615 70.4185 79.1554 70.5243C78.9493 70.6301 78.7868 70.8048 78.696 71.0179C77.696 70.9299 72.776 71.0659 71.744 71.1779C71.624 69.0339 71.744 69.1859 69.768 69.1939C69.584 67.6902 69.584 66.1696 69.768 64.6659C70.1871 64.7441 70.6204 64.6723 70.9919 64.4631C71.3634 64.254 71.6495 63.9208 71.8 63.5219C73.128 63.3539 74.464 61.0499 73.288 58.5859C73.0679 58.1723 72.7644 57.8087 72.3968 57.5182C72.0291 57.2277 71.6053 57.0165 71.152 56.8979C77.256 56.7379 82.784 61.6579 84.992 67.5139C85.104 67.5139 85.176 67.4339 84.992 67.5139C86.1286 70.3091 86.2726 73.4094 85.4 76.2979ZM43.8 153.298C43.5456 154.306 43.3585 155.329 43.24 156.362C41.2941 156.563 39.3338 156.585 37.384 156.426C37.512 155.314 37.632 154.21 37.752 153.098L43.8 153.298ZM150.44 120.57C152.184 119.138 159.896 120.962 158.744 127.602H84.496L83.8 118.738C87.856 117.33 90.832 119.474 91.88 122.082C92.064 122.57 93.096 122.154 91.488 120.146C90.4661 118.883 89.0233 118.031 87.424 117.746C91.296 110.29 102.256 111.482 104.384 119.498C104.496 119.922 105.128 119.714 105.016 119.29C104.374 116.926 102.865 114.891 100.789 113.59C98.7129 112.29 96.2231 111.82 93.816 112.274C94.4943 110.91 95.498 109.735 96.7385 108.851C97.9791 107.967 99.4182 107.403 100.929 107.208C102.439 107.012 103.974 107.192 105.399 107.731C106.823 108.27 108.093 109.152 109.096 110.298C109.832 111.098 112.296 115.786 113.096 116.338C112.438 117.466 112.027 118.72 111.888 120.018C110.899 120.38 110 120.952 109.251 121.693C108.503 122.434 107.924 123.328 107.552 124.314C107.525 124.374 107.524 124.443 107.548 124.504C107.572 124.566 107.62 124.615 107.68 124.642C107.74 124.668 107.809 124.67 107.871 124.646C107.932 124.622 107.981 124.574 108.008 124.514C108.492 123.393 109.26 122.417 110.236 121.683C111.212 120.949 112.363 120.483 113.574 120.329C114.786 120.176 116.016 120.341 117.145 120.808C118.273 121.275 119.26 122.029 120.008 122.994C120.061 123.068 120.141 123.118 120.231 123.133C120.321 123.148 120.414 123.127 120.488 123.074C120.562 123.021 120.612 122.94 120.627 122.85C120.642 122.76 120.621 122.668 120.568 122.594C119.646 121.374 118.38 120.458 116.933 119.964C115.485 119.471 113.923 119.423 112.448 119.826C112.683 118.552 113.174 117.339 113.89 116.26C114.606 115.18 115.534 114.257 116.616 113.546C117.925 112.707 119.425 112.214 120.977 112.114C122.528 112.014 124.08 112.309 125.486 112.973C126.892 113.637 128.106 114.647 129.015 115.909C129.923 117.17 130.496 118.642 130.68 120.186C130.697 120.266 130.743 120.336 130.809 120.385C130.874 120.433 130.955 120.456 131.037 120.449C131.118 120.443 131.194 120.406 131.25 120.348C131.307 120.289 131.34 120.211 131.344 120.13C131.132 118.369 130.451 116.697 129.371 115.29C128.292 113.882 126.854 112.791 125.208 112.13C125.742 110.721 126.628 109.473 127.782 108.505C128.937 107.538 130.32 106.882 131.8 106.602C136.472 105.882 140.48 109.474 141.072 113.706C139.848 113.909 138.686 114.386 137.673 115.102C136.66 115.819 135.823 116.755 135.224 117.842C135.08 118.114 135.52 118.354 135.672 118.09C136.546 116.613 137.88 115.465 139.47 114.82C141.059 114.176 142.817 114.071 144.472 114.522C146.064 115.029 147.45 116.038 148.422 117.398C149.394 118.757 149.9 120.395 149.864 122.066C149.864 122.282 150.152 122.554 150.368 122.402C150.456 122.346 150.712 122.162 150.448 120.57H150.44ZM104.16 34.2659C109.648 33.3059 115.36 33.1379 123.24 33.7219C124.504 44.5939 124.688 54.8339 124.888 65.7699C123.352 62.3779 121.792 57.4259 121.816 54.0099C121.809 50.0361 120.843 46.1227 119 42.6019C116.808 38.4179 113.84 35.4579 110.608 38.9299C106.128 43.7299 106.448 49.5219 106.536 55.9459C106.239 58.8026 105.625 61.6174 104.704 64.3379C104.424 51.0019 103.648 41.1779 104.16 34.2659ZM136.224 85.2579C135.636 85.1658 135.036 85.1658 134.448 85.2579L134.528 78.9539C134.551 78.8111 134.542 78.6648 134.5 78.5262C134.459 78.3876 134.386 78.2602 134.288 78.1539C132.456 76.6179 127.328 71.6739 125.632 67.2659C125.632 62.6259 125.56 57.9219 125.376 53.2819C129.432 53.1619 133.224 53.2099 136.416 53.2819C136.736 61.0819 136.136 74.7139 136.224 85.2579ZM104.272 106.658C102.652 106.298 100.968 106.353 99.3752 106.817C97.7824 107.281 96.3325 108.14 95.16 109.314C95.104 107.594 94.752 96.9059 94.632 93.5459L103.72 93.3699C103.696 94.9939 104.12 105.09 104.272 106.658ZM121.984 59.5299C123.448 65.5859 126.072 72.0579 133.832 78.6419C133.832 80.8019 133.584 86.2659 133.728 88.3459C133.568 88.3459 121.792 88.4259 120.928 88.4979C121.823 78.8693 122.176 69.1981 121.984 59.5299ZM106.712 59.6499C107.248 69.4499 108.232 79.2019 109.648 88.6739C107.688 88.6259 98.496 88.3459 97.16 88.4099C97.16 87.0979 96.832 79.5459 96.8 78.8099C101.895 73.5219 105.34 66.8639 106.712 59.6499ZM104.312 93.3539C104.888 93.3539 106.16 93.4899 106.088 92.9219C105.728 91.671 105.238 90.4617 104.624 89.3139L109.728 89.3859C109.848 90.1219 109.96 90.8579 110.072 91.5939C109.32 92.3939 107.8 97.0339 107.592 97.8739C107.576 97.9297 107.573 97.9886 107.585 98.0456C107.596 98.1026 107.62 98.1562 107.656 98.2019C107.848 98.4419 108.352 98.4739 108.888 98.4739C106.56 102.162 107.824 106.722 108.712 108.97C107.605 107.999 106.308 107.269 104.904 106.826C105.088 105.362 104.416 94.6979 104.32 93.3539H104.312ZM108.408 102.026C108.577 100.791 108.979 99.5993 109.592 98.5139C113.282 98.6618 116.978 98.6218 120.664 98.3939C121.104 100.13 125.112 104.682 120.136 111.522C118.786 111.705 117.489 112.17 116.33 112.887C115.171 113.603 114.175 114.556 113.408 115.682C110.576 111.402 107.688 107.178 108.416 102.026H108.408ZM121.28 68.2499C121.16 76.3139 120.664 83.3779 120.072 91.1059L110.656 91.3539C108.88 79.0579 108.12 70.2579 107.456 60.1539C107.272 57.2899 107.088 54.3219 107.152 51.4179C107.256 46.4339 108.272 42.8819 110.352 40.2179C113.296 36.4659 115.68 38.1379 118.016 42.2899C119.358 44.6866 120.28 47.2947 120.744 50.0019C121.464 54.0819 121.32 65.9219 121.288 68.2499H121.28ZM124.64 111.922C123.489 111.549 122.28 111.386 121.072 111.442C122.418 109.54 123.168 107.281 123.226 104.952C123.285 102.623 122.649 100.329 121.4 98.3619C121.92 98.3619 123.304 98.3619 123.144 97.8739C122.872 96.9619 122.104 95.0659 121.488 93.5379C121.088 92.5299 120.688 91.6579 120.688 91.4259C120.736 91.0019 120.928 89.1139 120.928 89.1139C121.672 89.2339 125.232 89.1139 126.44 89.1139C125.424 92.3139 125.56 91.9139 125.344 92.4659C125.184 92.8899 125.104 93.0979 125.208 93.2659C125.312 93.4339 125.736 93.4259 126.808 93.4499C126.808 98.0659 127.2 103.402 127.4 108.002C126.104 108.997 125.143 110.365 124.648 111.922H124.64ZM127.32 93.4419L136.432 93.5299C136.142 97.8857 136.158 102.256 136.48 106.61C135.107 106.008 133.601 105.771 132.109 105.924C130.617 106.077 129.191 106.614 127.968 107.482C127.8 102.802 127.672 97.9939 127.328 93.4419H127.32ZM104.2 33.6659C104.752 27.1939 106.88 18.5299 113.8 13.5539C120.456 18.1219 122.272 25.9219 123.152 32.9859C117.48 32.5699 109.496 32.6259 104.208 33.6659H104.2ZM93.4 54.3299C95.264 54.3299 102.2 54.2339 103.8 54.2259C103.944 58.0659 104.091 61.9112 104.24 65.7619C102.76 69.6019 99.44 75.5059 96.328 78.4019C96.168 79.2019 96.376 84.3539 96.416 85.2819C95.832 85.3379 95.248 85.3939 94.704 85.4739C94.384 74.7059 93.4 60.7939 93.4 54.3299Z" fill="#020617"/>
<path d="M54.6721 36.2418C52.5041 36.0738 51.9521 34.4978 51.4721 34.6418C51.3441 34.6418 51.2881 34.8098 51.2561 34.8978C50.5761 36.3778 51.4401 38.2178 52.9521 38.2178C53.4172 38.168 53.86 37.9929 54.2334 37.7111C54.6067 37.4293 54.8966 37.0514 55.0721 36.6178C55.0985 36.5627 55.1067 36.5006 55.0955 36.4405C55.0842 36.3804 55.0542 36.3254 55.0096 36.2835C54.9651 36.2416 54.9083 36.215 54.8476 36.2075C54.787 36.2 54.7255 36.2121 54.6721 36.2418ZM54.2881 36.7938C53.2081 38.2338 51.4961 37.5938 51.6641 35.6178C51.9959 35.9852 52.4006 36.2794 52.8523 36.4819C53.3041 36.6843 53.793 36.7906 54.2881 36.7938ZM115 71.2178C114.987 71.1326 114.944 71.0548 114.879 70.9985C114.814 70.9423 114.73 70.9114 114.644 70.9114C114.558 70.9114 114.475 70.9423 114.409 70.9985C114.344 71.0548 114.301 71.1326 114.288 71.2178C114.288 72.4258 114.688 87.3298 114.912 88.9458C114.912 89.0222 114.942 89.0955 114.996 89.1495C115.05 89.2035 115.124 89.2338 115.2 89.2338C115.276 89.2338 115.35 89.2035 115.404 89.1495C115.458 89.0955 115.488 89.0222 115.488 88.9458C115.848 83.8578 115.168 76.4898 115 71.2178ZM51.8001 32.4738C52.0561 32.4738 52.1361 32.2018 52.0801 31.9218C51.9681 31.3618 51.5201 31.3298 51.4081 31.6498C51.2961 31.9698 51.4561 32.4738 51.8001 32.4738ZM50.9521 29.0898C50.5919 29.1614 50.2673 29.3548 50.0327 29.6374C49.7982 29.9199 49.668 30.2746 49.6641 30.6418C49.7281 31.0578 50.0721 31.0578 50.1281 30.7538C50.2961 29.8978 50.6561 29.9538 51.1041 29.6818C51.1686 29.6503 51.2203 29.5975 51.2504 29.5323C51.2805 29.4671 51.2872 29.3935 51.2694 29.3239C51.2515 29.2543 51.2102 29.193 51.1524 29.1504C51.0946 29.1077 51.0238 29.0864 50.9521 29.0898ZM132.664 104.29C132.664 104.442 132.96 104.394 132.992 104.242C133.12 103.698 132.528 97.4978 132.624 95.8178C132.624 95.6018 132.304 95.6098 132.288 95.8178C132.14 98.6474 132.266 101.485 132.664 104.29ZM114.264 110.794C114.424 110.914 114.672 110.722 114.568 110.546C114.264 110.01 113.832 109.594 113.376 108.77C112.676 107.464 112.272 106.02 112.194 104.541C112.115 103.061 112.363 101.583 112.92 100.21C113.008 100.01 112.688 99.8898 112.592 100.098C111.912 101.659 111.635 103.366 111.788 105.061C111.94 106.757 112.517 108.387 113.464 109.802C113.678 110.172 113.948 110.506 114.264 110.794Z" fill="#020617"/>
</svg>
