<svg width="64" height="64" viewBox="0 0 64 64" fill="none" xmlns="http://www.w3.org/2000/svg">
<g clip-path="url(#clip0_14854_311903)">
<path d="M0 32C0 14.3269 14.3269 0 32 0C49.6731 0 64 14.3269 64 32C64 49.6731 49.6731 64 32 64C14.3269 64 0 49.6731 0 32Z" fill="white"/>
<path d="M17.6788 62.1225C20.5037 60.7398 23.6658 53.8268 23.6658 53.8268L13.6868 38.6249C10.9088 40.0237 1.86127 42.5572 1.86018 49.6586C1.85953 53.8603 14.226 63.8125 17.6788 62.1225Z" fill="url(#paint0_linear_14854_311903)"/>
<path d="M36.2185 36.3695C33.7851 35.9228 30.2476 39.0097 28.783 40.6089C28.7124 43.1713 29.3391 48.9797 32.4103 51.7143C45.6847 54.4891 55.7301 33.6855 52.4696 30.4656C49.2092 27.2457 47.1094 29.597 46.4728 30.5103C45.8363 31.4236 45.5715 34.081 44.22 33.7791C42.8686 33.4773 41.2196 34.0433 40.583 34.9566C39.9464 35.8699 39.2602 36.9278 36.2185 36.3695Z" fill="url(#paint1_linear_14854_311903)"/>
<g opacity="0.4" filter="url(#filter0_f_14854_311903)">
<path d="M8.0915 40.3841C8.49709 43.0246 8.96451 44.3541 10.9307 45.9774C12.8962 47.6001 16.9923 50.1553 18.2314 50.6174L18.637 49.4707C17.4721 49.0362 15.5589 48.0379 13.654 46.4653C11.7499 44.8933 9.8733 42.763 8.75072 40.0719L8.0915 40.3841Z" fill="black"/>
</g>
<path d="M27.4501 11.223C40.163 7.51744 52.9558 17.9926 52.8939 20.7991C52.8778 21.5261 51.8866 23.4014 50.1034 23.412C48.3201 23.4227 46.8833 24.3492 46.236 25.743C45.5887 27.1368 42.3632 27.1823 41.7348 27.3434C41.1064 27.5045 40.6202 29.5268 40.0991 30.1069C39.5781 30.6869 36.2452 30.3135 34.3812 34.3633C29.9871 45.0895 35.3852 44.3754 34.2005 52.3812C29.9945 59.4872 12.6159 50.0686 9.15713 41.802C5.69841 33.5355 11.5591 15.8551 27.4501 11.223Z" fill="url(#paint2_linear_14854_311903)"/>
<g filter="url(#filter1_f_14854_311903)" style="mix-blend-mode:hard-light">
<path d="M38.29 25.6917C38.4053 26.1569 35.9192 29.5596 34.2425 30.7651C32.1466 32.272 27.3699 36.9118 30.3792 43.08" stroke="white"/>
</g>
<g filter="url(#filter2_f_14854_311903)">
<path d="M25.1902 13.5259C24.8097 14.6627 30.4629 13.9872 35.6852 14.3542C39.1496 14.5977 50.694 21.3735 51.0745 20.2366C51.4549 19.0998 43.5832 14.0441 40.8548 13.131C33.4396 10.2531 25.5706 12.389 25.1902 13.5259Z" fill="white"/>
</g>
<g opacity="0.5" filter="url(#filter3_f_14854_311903)" style="mix-blend-mode:hard-light">
<path d="M45.1969 35.8856C45.5886 35.7079 46.2031 36.0706 46.6125 35.6329C46.9619 35.2043 46.7514 34.9565 47.1053 34.5869C47.4535 34.2005 47.4652 33.6719 47.6677 33.5345C47.8712 33.3912 47.5249 33.2195 47.711 32.9811C47.8961 32.7382 47.9066 32.5493 47.8625 32.2711C47.8245 31.9913 47.9082 31.2354 48.1056 30.9844C48.3108 30.7331 48.0909 30.3606 48.0257 30.1634C48.0057 30.0981 47.9753 30.0508 47.9376 30.0113C47.9219 29.9969 47.8958 29.9991 47.8725 30.007C47.8725 30.007 47.8724 30.0071 47.8724 30.0071C47.8434 30.0176 47.8164 30.0309 47.8154 30.0454C47.8111 30.1229 47.7557 30.2595 47.6286 30.4004C47.3871 30.6592 47.6105 30.7252 47.425 31.0981C47.2327 31.4698 46.9697 31.6333 46.9614 32.1152C46.9396 32.6054 46.3761 32.4938 46.413 33.1914C46.4172 33.8998 45.8355 33.6942 45.4735 33.9893C45.2196 34.1793 45.1294 34.3624 44.9728 34.4496C44.7094 34.4934 44.4892 34.5464 44.3258 34.5575C43.8485 34.5859 43.1882 34.6834 42.6193 35.0304C42.0588 35.3646 41.274 35.6262 40.8164 36.1786C40.355 36.7201 39.8192 37.5244 39.6303 37.9277C39.4367 38.332 39.3959 38.4248 39.0829 38.7045C38.9048 38.8647 38.7402 39.1566 38.7162 39.4707C38.7057 39.6268 38.8133 39.6617 38.9325 39.579C39.1063 39.4595 39.1612 39.2971 39.3308 39.2969C39.6715 39.2953 39.7998 39.2984 39.8324 39.0026C39.8666 38.7067 40.2218 38.8466 40.283 38.7119C40.3478 38.5798 40.1795 38.4233 40.8137 38.008C41.4499 37.6071 41.782 37.4097 42.0174 37.2783C42.248 37.1497 42.6082 36.6825 43.022 36.5527C43.4207 36.4043 44.198 36.1003 44.5296 36.1888C44.79 36.2477 44.8223 36.1127 44.9728 35.9838C45.0387 35.9536 45.1115 35.9212 45.1969 35.8856Z" fill="white"/>
</g>
</g>
<path d="M32 0.5C49.397 0.5 63.5 14.603 63.5 32C63.5 49.397 49.397 63.5 32 63.5C14.603 63.5 0.5 49.397 0.5 32C0.5 14.603 14.603 0.5 32 0.5Z" stroke="#E5E5E5"/>
<defs>
<filter id="filter0_f_14854_311903" x="4.09155" y="36.0719" width="18.5454" height="18.5454" filterUnits="userSpaceOnUse" color-interpolation-filters="sRGB">
<feFlood flood-opacity="0" result="BackgroundImageFix"/>
<feBlend mode="normal" in="SourceGraphic" in2="BackgroundImageFix" result="shape"/>
<feGaussianBlur stdDeviation="2" result="effect1_foregroundBlur_14854_311903"/>
</filter>
<filter id="filter1_f_14854_311903" x="24.9109" y="21.5714" width="17.8831" height="25.7278" filterUnits="userSpaceOnUse" color-interpolation-filters="sRGB">
<feFlood flood-opacity="0" result="BackgroundImageFix"/>
<feBlend mode="normal" in="SourceGraphic" in2="BackgroundImageFix" result="shape"/>
<feGaussianBlur stdDeviation="2" result="effect1_foregroundBlur_14854_311903"/>
</filter>
<filter id="filter2_f_14854_311903" x="19.1719" y="5.69116" width="37.916" height="20.674" filterUnits="userSpaceOnUse" color-interpolation-filters="sRGB">
<feFlood flood-opacity="0" result="BackgroundImageFix"/>
<feBlend mode="normal" in="SourceGraphic" in2="BackgroundImageFix" result="shape"/>
<feGaussianBlur stdDeviation="3" result="effect1_foregroundBlur_14854_311903"/>
</filter>
<filter id="filter3_f_14854_311903" x="34.7156" y="26.0007" width="17.4756" height="17.6217" filterUnits="userSpaceOnUse" color-interpolation-filters="sRGB">
<feFlood flood-opacity="0" result="BackgroundImageFix"/>
<feBlend mode="normal" in="SourceGraphic" in2="BackgroundImageFix" result="shape"/>
<feGaussianBlur stdDeviation="2" result="effect1_foregroundBlur_14854_311903"/>
</filter>
<linearGradient id="paint0_linear_14854_311903" x1="17.6784" y1="52.5346" x2="4.34157" y2="62.2378" gradientUnits="userSpaceOnUse">
<stop stop-color="#EF4444"/>
<stop offset="1" stop-color="#DC2626"/>
</linearGradient>
<linearGradient id="paint1_linear_14854_311903" x1="42.5943" y1="36.4206" x2="27.883" y2="35.3676" gradientUnits="userSpaceOnUse">
<stop stop-color="#EF4444"/>
<stop offset="1" stop-color="#991B1B"/>
</linearGradient>
<linearGradient id="paint2_linear_14854_311903" x1="9.70828" y1="33.4413" x2="45.5086" y2="7.62454" gradientUnits="userSpaceOnUse">
<stop stop-color="#EF4444"/>
<stop offset="1" stop-color="#FCA5A5"/>
</linearGradient>
<clipPath id="clip0_14854_311903">
<path d="M0 32C0 14.3269 14.3269 0 32 0C49.6731 0 64 14.3269 64 32C64 49.6731 49.6731 64 32 64C14.3269 64 0 49.6731 0 32Z" fill="white"/>
</clipPath>
</defs>
</svg>
