<svg width="24" height="24" viewBox="0 0 24 24" fill="none" xmlns="http://www.w3.org/2000/svg">
<g clip-path="url(#clip0_13030_67993)">
<path d="M0 0H24V24H0V0Z" fill="#FC9A4B"/>
<path d="M8.0305 6.53973C9.33072 5.59238 10.9266 5.14019 12.5305 5.26532C14.1343 5.39052 15.6411 6.08389 16.7785 7.22137C17.916 8.35886 18.6094 9.86566 18.7346 11.4694C18.8597 13.0733 18.4075 14.6692 17.4602 15.9694C16.5128 17.2696 15.1326 18.1888 13.5676 18.5612C12.1081 18.9085 10.5777 18.7586 9.21702 18.1413L5.57444 19.3766C5.3041 19.4683 5.0048 19.3988 4.80296 19.197C4.60113 18.9951 4.53163 18.6958 4.62327 18.4255L5.85765 14.7819C5.24084 13.4215 5.09157 11.8914 5.4387 10.4323C5.8111 8.86732 6.73034 7.48708 8.0305 6.53973ZM12.4133 6.76044C11.1659 6.66316 9.92456 7.01481 8.91331 7.75165C7.90205 8.48851 7.18729 9.56269 6.89769 10.78C6.60816 11.9972 6.76313 13.278 7.33421 14.3913C7.42668 14.5718 7.44229 14.7822 7.37718 14.9743L6.5305 17.4684L9.02562 16.6227C9.21767 16.5576 9.42815 16.5733 9.60862 16.6657C10.7219 17.2368 12.0027 17.3918 13.22 17.1022C14.4372 16.8126 15.5114 16.0979 16.2483 15.0866C16.9851 14.0753 17.3368 12.834 17.2395 11.5866C17.1422 10.3391 16.6018 9.16768 15.717 8.2829C14.8322 7.39812 13.6608 6.85776 12.4133 6.76044ZM12.0061 14.5837C12.4203 14.5837 12.7561 14.9195 12.7561 15.3337C12.7559 15.7477 12.4202 16.0837 12.0061 16.0837H12.0002C11.5861 16.0837 11.2504 15.7477 11.2502 15.3337C11.2502 14.9195 11.586 14.5837 12.0002 14.5837H12.0061ZM10.553 8.29266C11.1128 7.96362 11.7713 7.84403 12.4114 7.95379C13.0512 8.06355 13.6318 8.39571 14.05 8.89227C14.468 9.38881 14.6972 10.0177 14.6965 10.6667C14.6965 11.7315 13.9078 12.4272 13.3625 12.7907C13.0671 12.9877 12.777 13.1324 12.5637 13.2272C12.4562 13.275 12.3656 13.3116 12.3 13.3366C12.2671 13.3491 12.2395 13.3589 12.22 13.3659C12.2105 13.3693 12.2025 13.3716 12.1965 13.3737C12.1935 13.3748 12.1908 13.3759 12.1887 13.3766C12.1877 13.377 12.1866 13.3774 12.1858 13.3776H12.1838V13.3786C11.791 13.5095 11.3666 13.2968 11.2356 12.904C11.1046 12.5111 11.3163 12.0858 11.7092 11.9548C11.7109 11.9542 11.7141 11.9532 11.718 11.9518C11.7277 11.9484 11.7443 11.9425 11.7659 11.9343C11.8096 11.9176 11.8748 11.8915 11.9543 11.8561C12.116 11.7843 12.326 11.679 12.5305 11.5427C12.9852 11.2395 13.1965 10.9352 13.1965 10.6667V10.6657C13.197 10.3705 13.0927 10.0849 12.9026 9.85907C12.7125 9.63334 12.4492 9.48131 12.1584 9.43133C11.8677 9.38146 11.5681 9.43629 11.3137 9.58563C11.0593 9.73515 10.8658 9.97038 10.7678 10.2487C10.6303 10.6395 10.2015 10.8452 9.81077 10.7077C9.42028 10.5702 9.21555 10.1422 9.35276 9.75165C9.56826 9.13905 9.99311 8.62172 10.553 8.29266Z" fill="white"/>
</g>
<defs>
<clipPath id="clip0_13030_67993">
<rect width="24" height="24" fill="white"/>
</clipPath>
</defs>
</svg>
