<svg width="48" height="48" viewBox="0 0 48 48" fill="none" xmlns="http://www.w3.org/2000/svg" xmlns:xlink="http://www.w3.org/1999/xlink">
<path d="M0 10C0 4.47715 4.47715 0 10 0H38C43.5229 0 48 4.47715 48 10V38C48 43.5229 43.5228 48 38 48H10C4.47715 48 0 43.5228 0 38V10Z" fill="white"/>
<path d="M0 10C0 4.47715 4.47715 0 10 0H38C43.5229 0 48 4.47715 48 10V38C48 43.5229 43.5228 48 38 48H10C4.47715 48 0 43.5228 0 38V10Z" fill="url(#pattern0_7250_932310)"/>
<defs>
<pattern id="pattern0_7250_932310" patternUnits="userSpaceOnUse" patternTransform="matrix(48 0 0 48 0 0)" preserveAspectRatio="none" viewBox="0 0 48 48" width="1" height="1">
<g id="pattern0_7250_932310_inner">
<rect width="48" height="48" fill="#FAFAFA"/>
<g clip-path="url(#clip0_7250_932310)">
<mask id="mask0_7250_932310" style="mask-type:alpha" maskUnits="userSpaceOnUse" x="6" y="6" width="36" height="36">
<path d="M41.4201 22.2204C42.8105 35.8302 39.3894 40.03 25.7795 41.4204C12.1696 42.8108 7.96987 39.3896 6.57948 25.7797C5.18908 12.1698 8.61024 7.9701 22.2201 6.5797C35.83 5.18931 40.0297 8.61046 41.4201 22.2204Z" fill="black"/>
</mask>
<g mask="url(#mask0_7250_932310)">
<path d="M38.2368 22.5457C37.547 15.7934 36.2175 12.7516 34.3814 11.2559C32.5453 9.76023 29.2977 9.07325 22.5455 9.76305C15.7932 10.4529 12.7514 11.7824 11.2557 13.6185C9.75999 15.4545 9.07303 18.7023 9.76285 25.4546C10.4527 32.2068 11.7822 35.2484 13.6182 36.7441C15.4543 38.2398 18.7021 38.9268 25.4544 38.237L25.7796 41.4203L25.1484 41.482C12.2471 42.682 8.08028 39.2877 6.64672 26.4102L6.57949 25.7798C5.18909 12.1699 8.61034 7.97009 22.2202 6.57969L22.8512 6.51805C35.9606 5.29868 40.0515 8.82322 41.4201 22.2205L41.4818 22.8515C42.7011 35.9608 39.1768 40.0517 25.7796 41.4203L25.4544 38.237C32.2066 37.5472 35.2482 36.2177 36.7439 34.3816C38.2396 32.5455 38.9266 29.2979 38.2368 22.5457Z" fill="#D4D4D8"/>
<path d="M11.6354 16.6792C13.1656 16.3425 14.8956 16.7114 16.5907 18.1213C17.2701 18.6864 17.3629 19.6953 16.7979 20.3747C16.2328 21.0541 15.2238 21.1467 14.5444 20.5816C13.514 19.7246 12.7735 19.7054 12.3231 19.8045C11.781 19.9238 11.345 20.2891 11.1428 20.5604C10.6147 21.2689 9.61221 21.4152 8.9037 20.8872C8.19525 20.3591 8.0491 19.3566 8.57716 18.6481C9.14183 17.8905 10.1968 16.9959 11.6354 16.6792Z" fill="#D4D4D8"/>
<path d="M18.4203 24.2378C18.7869 23.4338 19.7358 23.079 20.5398 23.4455C21.3438 23.812 21.6985 24.7609 21.3321 25.5649C20.7526 26.8361 20.1939 28.5674 20.0847 30.1403C19.9722 31.7618 20.35 32.7597 21.0558 33.2605C21.6549 33.6857 22.5508 33.8037 23.5989 33.6384C24.6449 33.4735 25.4997 33.0787 25.7452 32.9135C26.4784 32.4202 27.4726 32.6148 27.9658 33.348C28.459 34.0811 28.2647 35.0752 27.5316 35.5685C26.8387 36.0347 25.527 36.5739 24.0973 36.7993C22.6697 37.0244 20.7805 36.9889 19.2041 35.8704C17.1305 34.3991 16.7517 31.9457 16.8924 29.9187C17.0365 27.843 17.741 25.728 18.4203 24.2378Z" fill="#D4D4D8"/>
<path d="M31.9999 19.1999C31.9999 17.4326 30.5673 15.9998 28.8 15.9997C27.0327 15.9997 25.5998 17.4326 25.5998 19.1999C25.5999 20.9672 27.0327 22.3998 28.8 22.3998V25.5997L28.6347 25.5976C25.2313 25.5114 22.4882 22.7683 22.402 19.3649L22.3999 19.1999C22.3999 15.6653 25.2654 12.7998 28.8 12.7998L28.965 12.8019C32.4233 12.8895 35.1998 15.7205 35.1998 19.1999L35.1977 19.3649C35.1102 22.8232 32.2794 25.5997 28.8 25.5997V22.3998C30.5672 22.3998 31.9999 20.9671 31.9999 19.1999Z" fill="#D4D4D8"/>
</g>
</g>
</g>
</pattern><clipPath id="clip0_7250_932310">
<rect width="38.4" height="38.4" fill="white" transform="translate(4.7998 4.7998)"/>
</clipPath>
</defs>
</svg>
