<svg width="24" height="24" viewBox="0 0 24 24" fill="none" xmlns="http://www.w3.org/2000/svg">
<path fill-rule="evenodd" clip-rule="evenodd" d="M2 1H6.687C7.12225 0.999851 7.54567 1.14169 7.893 1.404L9.65 2.732C9.99693 2.99446 10.42 3.13664 10.855 3.137H22C22.5304 3.137 23.0391 3.34771 23.4142 3.72279C23.7893 4.09786 24 4.60657 24 5.137V21C24 21.5304 23.7893 22.0391 23.4142 22.4142C23.0391 22.7893 22.5304 23 22 23H2C1.46957 23 0.960859 22.7893 0.585786 22.4142C0.210714 22.0391 0 21.5304 0 21V3C0 2.46957 0.210714 1.96086 0.585786 1.58579C0.960859 1.21071 1.46957 1 2 1Z" fill="#6366F1"/>
<path d="M12 8C12.4301 8 12.7778 8.33587 12.7778 8.74947V18.2498C12.7778 18.6641 12.4293 19 12 19C11.5707 19 11.2222 18.6641 11.2222 18.2498V8.74947C11.2222 8.33587 11.5699 8 12 8ZM8.88889 9.9998C9.319 9.9998 9.66667 10.3357 9.66667 10.75V16.2471C9.66667 16.6607 9.319 16.9965 8.88889 16.9965C8.45956 16.9965 8.11111 16.6607 8.11111 16.2471V10.75C8.11111 10.3357 8.45956 9.9998 8.88889 9.9998ZM15.1111 9.9998C15.5404 9.9998 15.8889 10.3357 15.8889 10.75V16.2471C15.8889 16.6607 15.5404 16.9965 15.1111 16.9965C14.681 16.9965 14.3333 16.6607 14.3333 16.2471V10.75C14.3333 10.3357 14.681 10.0005 15.1111 9.9998ZM5.77778 12.0003C6.20789 12.0003 6.55556 12.3355 6.55556 12.7498V14.2502C6.55556 14.6638 6.20711 14.9997 5.77778 14.9997C5.34844 14.9997 5 14.6645 5 14.2502V12.7498C5 12.3355 5.34844 12.0003 5.77778 12.0003ZM18.2222 12.0003C18.6516 12.0003 19 12.3355 19 12.7498V14.2502C19 14.6638 18.6516 14.9997 18.2222 14.9997C17.7929 14.9997 17.4444 14.6645 17.4444 14.2502V12.7498C17.4444 12.3355 17.7921 12.0003 18.2222 12.0003Z" fill="white"/>
</svg>
