<svg width="24" height="24" viewBox="0 0 24 24" fill="none" xmlns="http://www.w3.org/2000/svg">
<g clip-path="url(#clip0_93_31615)">
<path fill-rule="evenodd" clip-rule="evenodd" d="M2 1H6.687C7.12225 0.999851 7.54567 1.14169 7.893 1.404L9.65 2.732C9.99693 2.99446 10.42 3.13664 10.855 3.137H22C22.5304 3.137 23.0391 3.34771 23.4142 3.72279C23.7893 4.09786 24 4.60657 24 5.137V21C24 21.5304 23.7893 22.0391 23.4142 22.4142C23.0391 22.7893 22.5304 23 22 23H2C1.46957 23 0.960859 22.7893 0.585786 22.4142C0.210714 22.0391 0 21.5304 0 21V3C0 2.46957 0.210714 1.96086 0.585786 1.58579C0.960859 1.21071 1.46957 1 2 1Z" fill="#10B981"/>
<path fill-rule="evenodd" clip-rule="evenodd" d="M0 7.09998H24V21C24 21.5304 23.7893 22.0391 23.4142 22.4142C23.0391 22.7893 22.5304 23 22 23H2C1.46957 23 0.960859 22.7893 0.585786 22.4142C0.210714 22.0391 0 21.5304 0 21V7.09998Z" fill="#6EE7B7"/>
<path d="M9.14286 13.2857C8.91682 13.2857 8.69586 13.2187 8.50792 13.0931C8.31998 12.9675 8.1735 12.789 8.087 12.5802C8.0005 12.3714 7.97786 12.1416 8.02196 11.9199C8.06606 11.6982 8.1749 11.4946 8.33474 11.3347C8.49457 11.1749 8.6982 11.0661 8.9199 11.022C9.14159 10.9779 9.37138 11.0005 9.58021 11.087C9.78904 11.1735 9.96753 11.32 10.0931 11.5079C10.2187 11.6959 10.2857 11.9168 10.2857 12.1429V17.8571C10.2857 18.0832 10.2187 18.3041 10.0931 18.4921C9.96753 18.68 9.78904 18.8265 9.58021 18.913C9.37138 18.9995 9.14159 19.0221 8.9199 18.978C8.6982 18.9339 8.49457 18.8251 8.33474 18.6653C8.1749 18.5054 8.06606 18.3018 8.02196 18.0801C7.97786 17.8584 8.0005 17.6286 8.087 17.4198C8.1735 17.211 8.31998 17.0325 8.50792 16.9069C8.69586 16.7813 8.91682 16.7143 9.14286 16.7143H14.8571C15.0832 16.7143 15.3041 16.7813 15.4921 16.9069C15.68 17.0325 15.8265 17.211 15.913 17.4198C15.9995 17.6286 16.0221 17.8584 15.978 18.0801C15.9339 18.3018 15.8251 18.5054 15.6653 18.6653C15.5054 18.8251 15.3018 18.9339 15.0801 18.978C14.8584 19.0221 14.6286 18.9995 14.4198 18.913C14.211 18.8265 14.0325 18.68 13.9069 18.4921C13.7813 18.3041 13.7143 18.0832 13.7143 17.8571V12.1429C13.7143 11.9168 13.7813 11.6959 13.9069 11.5079C14.0325 11.32 14.211 11.1735 14.4198 11.087C14.6286 11.0005 14.8584 10.9779 15.0801 11.022C15.3018 11.0661 15.5054 11.1749 15.6653 11.3347C15.8251 11.4946 15.9339 11.6982 15.978 11.9199C16.0221 12.1416 15.9995 12.3714 15.913 12.5802C15.8265 12.789 15.68 12.9675 15.4921 13.0931C15.3041 13.2187 15.0832 13.2857 14.8571 13.2857H9.14286Z" stroke="#10B981" stroke-linecap="round" stroke-linejoin="round"/>
</g>
<defs>
<clipPath id="clip0_93_31615">
<rect width="24" height="24" fill="white"/>
</clipPath>
</defs>
</svg>
