<svg width="24" height="24" viewBox="0 0 24 24" fill="none" xmlns="http://www.w3.org/2000/svg">
<g clip-path="url(#clip0_93_31624)">
<path fill-rule="evenodd" clip-rule="evenodd" d="M15.763 0L23 7.237V22C23 22.5304 22.7893 23.0391 22.4142 23.4142C22.0391 23.7893 21.5304 24 21 24H3C2.46957 24 1.96086 23.7893 1.58579 23.4142C1.21071 23.0391 1 22.5304 1 22V2C1 1.46957 1.21071 0.960859 1.58579 0.585786C1.96086 0.210714 2.46957 0 3 0L15.763 0Z" fill="#FA5C26"/>
<path fill-rule="evenodd" clip-rule="evenodd" d="M17.7632 7.237C17.2328 7.237 16.724 7.02629 16.349 6.65121C15.9739 6.27614 15.7632 5.76743 15.7632 5.237V0L23.0002 7.237H17.7632Z" fill="white" fill-opacity="0.401"/>
<path d="M8.70321 13.598H6.01221C5.73606 13.598 5.51221 13.8219 5.51221 14.098V16.789C5.51221 17.0652 5.73606 17.289 6.01221 17.289H8.70321C8.97935 17.289 9.20321 17.0652 9.20321 16.789V14.098C9.20321 13.8219 8.97935 13.598 8.70321 13.598Z" fill="white"/>
<path d="M17.0592 9.90698H14.3682C14.092 9.90698 13.8682 10.1308 13.8682 10.407V13.098C13.8682 13.3741 14.092 13.598 14.3682 13.598H17.0592C17.3353 13.598 17.5592 13.3741 17.5592 13.098V10.407C17.5592 10.1308 17.3353 9.90698 17.0592 9.90698Z" fill="white"/>
<path d="M17.0592 17.2889H14.3682C14.092 17.2889 13.8682 17.5128 13.8682 17.7889V20.4799C13.8682 20.7561 14.092 20.9799 14.3682 20.9799H17.0592C17.3353 20.9799 17.5592 20.7561 17.5592 20.4799V17.7889C17.5592 17.5128 17.3353 17.2889 17.0592 17.2889Z" fill="white"/>
<path d="M15.7139 11.752H14.6419C13.9601 11.7518 13.2889 11.9203 12.688 12.2424C12.0871 12.5644 11.5752 13.0301 11.1979 13.598L10.5879 14.516C10.2029 15.095 9.55391 15.443 8.85791 15.443C9.55391 15.443 10.2029 15.792 10.5879 16.371L11.1979 17.289C11.5754 17.8566 12.0873 18.3221 12.6882 18.644C13.2891 18.9659 13.9602 19.1342 14.6419 19.134H15.7139" stroke="white" stroke-opacity="0.697" stroke-width="1.5"/>
</g>
<defs>
<clipPath id="clip0_93_31624">
<rect width="24" height="24" fill="white"/>
</clipPath>
</defs>
</svg>
