<svg viewBox="0 0 15 14.6667" fill="none" xmlns="http://www.w3.org/2000/svg">
	<!-- Single-artboard composite: no stacked <img> seams at 16px -->
	<path
		fill="#FFA200"
		fill-rule="evenodd"
		clip-rule="evenodd"
		d="M1.33333 7.82448e-08H4.458C4.74817 -9.92965e-05 5.03045 0.094462 5.262 0.269333L6.43333 1.15467C6.66462 1.32964 6.94665 1.42443 7.23667 1.42467H13.6667C14.0203 1.42467 14.3594 1.56514 14.6095 1.81519C14.8595 2.06524 15 2.40438 15 2.758V13.3333C15 13.687 14.8595 14.0261 14.6095 14.2761C14.3594 14.5262 14.0203 14.6667 13.6667 14.6667H1.33333C0.979711 14.6667 0.640573 14.5262 0.390524 14.2761C0.140476 14.0261 0 13.687 0 13.3333V1.33333C0 0.979711 0.140476 0.640573 0.390524 0.390524C0.640573 0.140476 0.979711 7.82448e-08 1.33333 7.82448e-08Z"
	/>
	<path
		fill="#10B981"
		fill-rule="evenodd"
		clip-rule="evenodd"
		transform="translate(0 7.06664)"
		d="M1 0H14.2417C15.1644 0 15.8683 0.825182 15.7229 1.73637L15 6.26672C15 6.62035 14.8595 6.95948 14.6095 7.20953C14.3594 7.45958 14.0203 7.60006 13.6667 7.60006H1.33333C0.979711 7.60006 0.640573 7.45958 0.390524 7.20953C0.140476 6.95948 0 6.62035 0 6.26672L1 0Z"
	/>
	<!-- Glyph: scale, rotate, then translate (clear nesting) -->
	<g transform="translate(3.35 0.55)">
		<g transform="rotate(-15 5.5 5.5)">
			<g transform="scale(0.52)">
				<path
					fill="white"
					d="M2.97297 11H1.48649C1.09237 10.9996 0.714501 10.8429 0.435816 10.5642C0.157131 10.2855 0.000393527 9.90763 0 9.51351V8.02703H1.04054C1.47421 8.02703 1.89011 7.85475 2.19676 7.54811C2.5034 7.24146 2.67568 6.82556 2.67568 6.39189C2.67568 5.95823 2.5034 5.54232 2.19676 5.23568C1.89011 4.92903 1.47421 4.75676 1.04054 4.75676H0V3.56757C0.000393531 3.17345 0.157131 2.79558 0.435816 2.5169C0.714501 2.23821 1.09237 2.08147 1.48649 2.08108H2.97297V1.63514C2.97297 1.20147 3.14525 0.785567 3.45189 0.47892C3.75854 0.172273 4.17444 0 4.60811 0C5.04177 0 5.45768 0.172273 5.76432 0.47892C6.07097 0.785567 6.24324 1.20147 6.24324 1.63514V2.08108H7.43243C7.82655 2.08147 8.20442 2.23821 8.4831 2.5169C8.76179 2.79558 8.91852 3.17345 8.91892 3.56757V4.75676H9.36486C9.57959 4.75676 9.79222 4.79905 9.9906 4.88122C10.189 4.9634 10.3692 5.08384 10.5211 5.23568C10.6729 5.38751 10.7934 5.56777 10.8755 5.76615C10.9577 5.96454 11 6.17716 11 6.39189C11 6.60662 10.9577 6.81925 10.8755 7.01763C10.7934 7.21601 10.6729 7.39627 10.5211 7.54811C10.3692 7.69994 10.189 7.82039 9.9906 7.90256C9.79222 7.98473 9.57959 8.02703 9.36486 8.02703H8.91892V9.51351C8.91852 9.90763 8.76179 10.2855 8.4831 10.5642C8.20442 10.8429 7.82655 10.9996 7.43243 11H6.24324V9.95946C6.24324 9.74473 6.20095 9.5321 6.11878 9.33372C6.0366 9.13534 5.91616 8.95508 5.76432 8.80324C5.61249 8.65141 5.43223 8.53096 5.23385 8.44879C5.03546 8.36662 4.82284 8.32432 4.60811 8.32432C4.39338 8.32432 4.18075 8.36662 3.98237 8.44879C3.78398 8.53096 3.60373 8.65141 3.45189 8.80324C3.30006 8.95508 3.17961 9.13534 3.09744 9.33372C3.01527 9.5321 2.97297 9.74473 2.97297 9.95946V11Z"
				/>
			</g>
		</g>
	</g>
</svg>
