<svg preserveAspectRatio="none" width="100%" height="100%" overflow="visible" style="display: block;"
    viewBox="0 0 24 24" fill="none" xmlns="http://www.w3.org/2000/svg">
    <g id="&#233;&#128;&#154;&#231;&#148;&#168; / ModeIcon" clip-path="url(#clip0_0_93)">
        <mask id="mask0_0_93" style="mask-type:alpha" maskUnits="userSpaceOnUse" x="-1" y="0" width="25" height="24">
            <path id="Ellipse 44"
                d="M23.9993 12C23.9993 21.3752 21.3745 24 11.9993 24C2.62412 24 -0.000703125 21.3752 -0.000703125 12C-0.000703125 2.62482 2.62412 0 11.9993 0C21.3745 0 23.9993 2.62482 23.9993 12Z"
                fill="var(--fill-0, #DDEBFF)" />
        </mask>
        <g mask="url(#mask0_0_93)">
            <path id="Ellipse 43"
                d="M24 12C24 21.3752 21.3752 24 12 24C2.62482 24 0 21.3752 0 12C0 2.62482 2.62482 0 12 0C21.3752 0 24 2.62482 24 12Z"
                fill="var(--fill-0, #DC54BA)" />
            <path id="Vector"
                d="M12 4.17505C15.3138 4.17505 18 6.86127 18 10.175C18 12.5306 16.6427 14.5693 14.6667 15.551V17.7306H9.33333V15.5515C7.35778 14.5693 6 12.5306 6 10.175C6 6.86127 8.68622 4.17505 12 4.17505ZM14.6498 6.88616L13.9249 7.7866C14.2546 8.05234 14.5257 8.38346 14.7212 8.75911C14.9166 9.13477 15.0322 9.54683 15.0606 9.96934C15.089 10.3918 15.0296 10.8157 14.8861 11.2141C14.7427 11.6125 14.5183 11.9769 14.2271 12.2844L15.0662 13.079C16.44 11.6315 16.6311 9.36616 15.416 7.69327C15.1972 7.3918 14.9396 7.12056 14.6498 6.8866V6.88616ZM9.77778 18.8417H14.2222V19.7306C14.2222 19.8485 14.1754 19.9615 14.092 20.0449C14.0087 20.1282 13.8957 20.175 13.7778 20.175H10.2222C10.1043 20.175 9.9913 20.1282 9.90795 20.0449C9.8246 19.9615 9.77778 19.8485 9.77778 19.7306V18.8417Z"
                fill="var(--fill-0, white)" />
        </g>
    </g>
    <defs>
        <clipPath id="clip0_0_93">
            <rect width="24" height="24" fill="white" />
        </clipPath>
    </defs>
</svg>