<svg width="24" height="24" viewBox="0 0 24 24" fill="none" xmlns="http://www.w3.org/2000/svg">
<g clip-path="url(#clip0_93_31655)">
<path fill-rule="evenodd" clip-rule="evenodd" d="M15.763 0L23 7.237V22C23 22.5304 22.7893 23.0391 22.4142 23.4142C22.0391 23.7893 21.5304 24 21 24H3C2.46957 24 1.96086 23.7893 1.58579 23.4142C1.21071 23.0391 1 22.5304 1 22V2C1 1.46957 1.21071 0.960859 1.58579 0.585786C1.96086 0.210714 2.46957 0 3 0L15.763 0Z" fill="#FA5C26"/>
<path fill-rule="evenodd" clip-rule="evenodd" d="M17.7632 7.237C17.2328 7.237 16.724 7.02629 16.349 6.65121C15.9739 6.27614 15.7632 5.76743 15.7632 5.237V0L23.0002 7.237H17.7632Z" fill="white" fill-opacity="0.401"/>
<path d="M12.5955 17.9762V19.7619H15.5717V20.9524H8.4288V19.7619H11.405V17.9762H7.23833C6.88118 17.9762 6.64309 17.7381 6.64309 17.3809V10.2381H6.04785V9.04761H17.9526V10.2381H17.3574V17.3809C17.3574 17.7381 17.1193 17.9762 16.7621 17.9762H12.5955ZM10.8098 11.4286V15.5952L13.7859 13.5119L10.8098 11.4286Z" fill="white"/>
</g>
<defs>
<clipPath id="clip0_93_31655">
<rect width="24" height="24" fill="white"/>
</clipPath>
</defs>
</svg>
