<svg width="24" height="24" viewBox="0 0 24 24" fill="none" xmlns="http://www.w3.org/2000/svg">
<g clip-path="url(#clip0_93_31650)">
<path fill-rule="evenodd" clip-rule="evenodd" d="M15.763 0L23 7.237V22C23 22.5304 22.7893 23.0391 22.4142 23.4142C22.0391 23.7893 21.5304 24 21 24H3C2.46957 24 1.96086 23.7893 1.58579 23.4142C1.21071 23.0391 1 22.5304 1 22V2C1 1.46957 1.21071 0.960859 1.58579 0.585786C1.96086 0.210714 2.46957 0 3 0L15.763 0Z" fill="#38A7C0"/>
<path fill-rule="evenodd" clip-rule="evenodd" d="M17.7632 7.237C17.2328 7.237 16.724 7.02629 16.349 6.65121C15.9739 6.27614 15.7632 5.76743 15.7632 5.237V0L23.0002 7.237H17.7632Z" fill="white" fill-opacity="0.401"/>
<path d="M19.9752 18.4751C19.9752 18.6198 19.9355 18.7318 19.8562 18.8111C19.7815 18.8858 19.6718 18.9231 19.5272 18.9231H19.5062C19.3615 18.9231 19.2495 18.8858 19.1702 18.8111C19.0955 18.7318 19.0582 18.6198 19.0582 18.4751V17.7261L19.2542 17.0961L19.0582 16.4311V15.6611C19.0582 15.5164 19.0955 15.4068 19.1702 15.3321C19.2495 15.2528 19.3615 15.2131 19.5062 15.2131H19.5272C19.6718 15.2131 19.7815 15.2528 19.8562 15.3321C19.9355 15.4068 19.9752 15.5164 19.9752 15.6611V18.4751ZM18.0502 18.1951C18.2695 18.1951 18.4608 18.1484 18.6242 18.0551C18.7875 17.9618 18.9135 17.8311 19.0022 17.6631C19.0908 17.4904 19.1352 17.2921 19.1352 17.0681C19.1352 16.8441 19.0908 16.6458 19.0022 16.4731C18.9135 16.3004 18.7875 16.1674 18.6242 16.0741C18.4608 15.9808 18.2695 15.9341 18.0502 15.9341C17.8775 15.9341 17.7165 15.9831 17.5672 16.0811C17.4225 16.1744 17.3082 16.3074 17.2242 16.4801C17.1402 16.6528 17.0982 16.8488 17.0982 17.0681C17.0982 17.2874 17.1402 17.4834 17.2242 17.6561C17.3082 17.8241 17.4225 17.9571 17.5672 18.0551C17.7118 18.1484 17.8728 18.1951 18.0502 18.1951ZM17.9802 19.0001C17.6302 19.0001 17.3152 18.9138 17.0352 18.7411C16.7552 18.5684 16.5358 18.3351 16.3772 18.0411C16.2185 17.7424 16.1392 17.4181 16.1392 17.0681C16.1392 16.7181 16.2185 16.3961 16.3772 16.1021C16.5358 15.8034 16.7552 15.5678 17.0352 15.3951C17.3152 15.2224 17.6302 15.1361 17.9802 15.1361C18.3255 15.1361 18.6195 15.2364 18.8622 15.4371C19.1095 15.6331 19.2938 15.8804 19.4152 16.1791C19.5365 16.4778 19.5972 16.7741 19.5972 17.0681C19.5972 17.3621 19.5365 17.6584 19.4152 17.9571C19.2938 18.2558 19.1095 18.5054 18.8622 18.7061C18.6195 18.9021 18.3255 19.0001 17.9802 19.0001Z" fill="white"/>
<path d="M14.7802 15.5631C14.8642 15.3298 15.0298 15.2131 15.2772 15.2131H15.3122C15.4708 15.2131 15.5852 15.2621 15.6552 15.3601C15.7252 15.4535 15.7298 15.5748 15.6692 15.7241L14.5072 18.6081C14.4278 18.8181 14.2715 18.9231 14.0382 18.9231H14.0102C13.7768 18.9231 13.6205 18.8181 13.5412 18.6081L12.3792 15.7241C12.3185 15.5748 12.3232 15.4535 12.3932 15.3601C12.4632 15.2621 12.5775 15.2131 12.7362 15.2131H12.7712C13.0185 15.2131 13.1842 15.3298 13.2682 15.5631L14.0242 17.6281L14.7802 15.5631Z" fill="white"/>
<path d="M11.6558 18.4751C11.6558 18.6198 11.6162 18.7318 11.5368 18.8111C11.4622 18.8858 11.3525 18.9231 11.2078 18.9231H11.1868C11.0422 18.9231 10.9302 18.8858 10.8508 18.8111C10.7762 18.7318 10.7388 18.6198 10.7388 18.4751V17.7261L10.9348 17.0961L10.7388 16.4311V15.6611C10.7388 15.5164 10.7762 15.4068 10.8508 15.3321C10.9302 15.2528 11.0422 15.2131 11.1868 15.2131H11.2078C11.3525 15.2131 11.4622 15.2528 11.5368 15.3321C11.6162 15.4068 11.6558 15.5164 11.6558 15.6611V18.4751ZM9.73082 18.1951C9.95016 18.1951 10.1415 18.1484 10.3048 18.0551C10.4682 17.9618 10.5942 17.8311 10.6828 17.6631C10.7715 17.4904 10.8158 17.2921 10.8158 17.0681C10.8158 16.8441 10.7715 16.6458 10.6828 16.4731C10.5942 16.3004 10.4682 16.1674 10.3048 16.0741C10.1415 15.9808 9.95016 15.9341 9.73082 15.9341C9.55816 15.9341 9.39716 15.9831 9.24782 16.0811C9.10316 16.1744 8.98882 16.3074 8.90482 16.4801C8.82082 16.6528 8.77882 16.8488 8.77882 17.0681C8.77882 17.2874 8.82082 17.4834 8.90482 17.6561C8.98882 17.8241 9.10316 17.9571 9.24782 18.0551C9.39249 18.1484 9.55349 18.1951 9.73082 18.1951ZM9.66082 19.0001C9.31082 19.0001 8.99582 18.9138 8.71582 18.7411C8.43582 18.5684 8.21649 18.3351 8.05782 18.0411C7.89916 17.7424 7.81982 17.4181 7.81982 17.0681C7.81982 16.7181 7.89916 16.3961 8.05782 16.1021C8.21649 15.8034 8.43582 15.5678 8.71582 15.3951C8.99582 15.2224 9.31082 15.1361 9.66082 15.1361C10.0062 15.1361 10.3002 15.2364 10.5428 15.4371C10.7902 15.6331 10.9745 15.8804 11.0958 16.1791C11.2172 16.4778 11.2778 16.7741 11.2778 17.0681C11.2778 17.3621 11.2172 17.6584 11.0958 17.9571C10.9745 18.2558 10.7902 18.5054 10.5428 18.7061C10.3002 18.9021 10.0062 19.0001 9.66082 19.0001Z" fill="white"/>
<path d="M6.98115 17.2781C6.98115 17.6094 6.91349 17.9058 6.77815 18.1671C6.64749 18.4284 6.46315 18.6338 6.22515 18.7831C5.98715 18.9278 5.71415 19.0001 5.40615 19.0001C5.13549 19.0001 4.88582 18.9254 4.65715 18.7761C4.42849 18.6268 4.24182 18.4261 4.09715 18.1741C4.01782 18.0388 4.00382 17.9174 4.05515 17.8101C4.10649 17.7028 4.20449 17.6281 4.34915 17.5861L4.38415 17.5791C4.51482 17.5418 4.62215 17.5464 4.70615 17.5931C4.79482 17.6398 4.88349 17.7284 4.97215 17.8591C5.02815 17.9384 5.09115 17.9968 5.16115 18.0341C5.23582 18.0714 5.31749 18.0901 5.40615 18.0901C5.63482 18.0901 5.79815 18.0294 5.89615 17.9081C5.99415 17.7821 6.04315 17.5721 6.04315 17.2781V14.1981C6.04315 14.0488 6.08282 13.9344 6.16215 13.8551C6.24149 13.7758 6.35582 13.7361 6.50515 13.7361H6.51915C6.66849 13.7361 6.78282 13.7758 6.86215 13.8551C6.94149 13.9344 6.98115 14.0488 6.98115 14.1981V17.2781Z" fill="white"/>
</g>
<defs>
<clipPath id="clip0_93_31650">
<rect width="24" height="24" fill="white"/>
</clipPath>
</defs>
</svg>
