<svg width="24" height="24" viewBox="0 0 24 24" fill="none" xmlns="http://www.w3.org/2000/svg">
<g clip-path="url(#clip0_93_31631)">
<path fill-rule="evenodd" clip-rule="evenodd" d="M15.763 0L23 7.237V22C23 22.5304 22.7893 23.0391 22.4142 23.4142C22.0391 23.7893 21.5304 24 21 24H3C2.46957 24 1.96086 23.7893 1.58579 23.4142C1.21071 23.0391 1 22.5304 1 22V2C1 1.46957 1.21071 0.960859 1.58579 0.585786C1.96086 0.210714 2.46957 0 3 0L15.763 0Z" fill="#FF7800"/>
<path fill-rule="evenodd" clip-rule="evenodd" d="M17.7632 7.237C17.2328 7.237 16.724 7.02629 16.349 6.65121C15.9739 6.27614 15.7632 5.76743 15.7632 5.237V0L23.0002 7.237H17.7632Z" fill="white" fill-opacity="0.401"/>
<path fill-rule="evenodd" clip-rule="evenodd" d="M16.6301 9.89299C16.63 9.78823 16.6068 9.68478 16.5622 9.58999C16.5176 9.49521 16.4526 9.41142 16.372 9.34459C16.2913 9.27776 16.1969 9.22953 16.0955 9.20333C15.994 9.17712 15.8881 9.17359 15.7851 9.19299L9.07711 10.45C8.91372 10.4805 8.76613 10.5672 8.65986 10.695C8.55359 10.8228 8.49531 10.9838 8.49511 11.15L8.50011 17.565C8.16861 17.4428 7.80677 17.4296 7.46724 17.5273C7.1277 17.6249 6.82818 17.8284 6.61225 18.108C6.39632 18.3876 6.27523 18.7289 6.26661 19.0821C6.25798 19.4353 6.36227 19.782 6.5643 20.0718C6.76633 20.3617 7.05556 20.5795 7.38993 20.6936C7.72429 20.8077 8.08634 20.8122 8.42341 20.7064C8.76049 20.6005 9.055 20.3899 9.26411 20.1051C9.47323 19.8203 9.58603 19.4763 9.58611 19.123V13.073L15.5431 11.955V16.307C15.2116 16.1848 14.8498 16.1716 14.5102 16.2693C14.1707 16.3669 13.8712 16.5704 13.6553 16.85C13.4393 17.1296 13.3182 17.4709 13.3096 17.8241C13.301 18.1773 13.4053 18.524 13.6073 18.8138C13.8093 19.1037 14.0986 19.3215 14.4329 19.4356C14.7673 19.5497 15.1293 19.5542 15.4664 19.4483C15.8035 19.3425 16.098 19.1319 16.3071 18.8471C16.5162 18.5623 16.629 18.2183 16.6291 17.865V9.89399L16.6301 9.89299Z" fill="white"/>
</g>
<defs>
<clipPath id="clip0_93_31631">
<rect width="24" height="24" fill="white"/>
</clipPath>
</defs>
</svg>
