<svg width="24" height="24" viewBox="0 0 24 24" fill="none" xmlns="http://www.w3.org/2000/svg">
<g clip-path="url(#clip0_93_31632)">
<path fill-rule="evenodd" clip-rule="evenodd" d="M15.763 0L23 7.237V22C23 22.5304 22.7893 23.0391 22.4142 23.4142C22.0391 23.7893 21.5304 24 21 24H3C2.46957 24 1.96086 23.7893 1.58579 23.4142C1.21071 23.0391 1 22.5304 1 22V2C1 1.46957 1.21071 0.960859 1.58579 0.585786C1.96086 0.210714 2.46957 0 3 0L15.763 0Z" fill="#FFA200"/>
<path fill-rule="evenodd" clip-rule="evenodd" d="M17.7632 7.237C17.2328 7.237 16.724 7.02629 16.349 6.65121C15.9739 6.27614 15.7632 5.76743 15.7632 5.237V0L23.0002 7.237H17.7632Z" fill="white" fill-opacity="0.401"/>
<path d="M10.0668 7.55505H8.54883C8.27269 7.55505 8.04883 7.77891 8.04883 8.05505V9.57305C8.04883 9.8492 8.27269 10.0731 8.54883 10.0731H10.0668C10.343 10.0731 10.5668 9.8492 10.5668 9.57305V8.05505C10.5668 7.77891 10.343 7.55505 10.0668 7.55505Z" fill="white"/>
<path fill-rule="evenodd" clip-rule="evenodd" d="M10.0668 10.829C10.1994 10.829 10.3266 10.8817 10.4203 10.9754C10.5141 11.0692 10.5668 11.1964 10.5668 11.329V15.221C10.5668 15.3536 10.5141 15.4808 10.4203 15.5746C10.3266 15.6683 10.1994 15.721 10.0668 15.721H6.02979C5.89718 15.721 5.77 15.6683 5.67623 15.5746C5.58246 15.4808 5.52979 15.3536 5.52979 15.221V11.329C5.52979 11.1964 5.58246 11.0692 5.67623 10.9754C5.77 10.8817 5.89718 10.829 6.02979 10.829H10.0668ZM9.61379 13.275H6.48278C6.35018 13.275 6.223 13.3277 6.12923 13.4214C6.03546 13.5152 5.98278 13.6424 5.98278 13.775V14.625C5.98278 14.7576 6.03546 14.8848 6.12923 14.9786C6.223 15.0723 6.35018 15.125 6.48278 15.125H9.61379C9.74639 15.125 9.87357 15.0723 9.96734 14.9786C10.0611 14.8848 10.1138 14.7576 10.1138 14.625V13.775C10.1138 13.6424 10.0611 13.5152 9.96734 13.4214C9.87357 13.3277 9.74639 13.275 9.61379 13.275ZM5.52979 0H8.04979V2.018C8.04979 2.15061 7.99711 2.27779 7.90334 2.37155C7.80957 2.46532 7.68239 2.518 7.54979 2.518H6.02979C5.89718 2.518 5.77 2.46532 5.67623 2.37155C5.58246 2.27779 5.52979 2.15061 5.52979 2.018V0Z" fill="white"/>
<path d="M10.0668 2.51794H8.54883C8.27269 2.51794 8.04883 2.7418 8.04883 3.01794V4.53594C8.04883 4.81209 8.27269 5.03594 8.54883 5.03594H10.0668C10.343 5.03594 10.5668 4.81209 10.5668 4.53594V3.01794C10.5668 2.7418 10.343 2.51794 10.0668 2.51794Z" fill="white"/>
<path d="M7.54778 5.03699H6.02979C5.75364 5.03699 5.52979 5.26084 5.52979 5.53699V7.05499C5.52979 7.33113 5.75364 7.55499 6.02979 7.55499H7.54778C7.82393 7.55499 8.04779 7.33113 8.04779 7.05499V5.53699C8.04779 5.26084 7.82393 5.03699 7.54778 5.03699Z" fill="white"/>
</g>
<defs>
<clipPath id="clip0_93_31632">
<rect width="24" height="24" fill="white"/>
</clipPath>
</defs>
</svg>
