<svg width="24" height="24" viewBox="0 0 24 24" fill="none" xmlns="http://www.w3.org/2000/svg">
<g clip-path="url(#clip0_93_31618)">
<path fill-rule="evenodd" clip-rule="evenodd" d="M15.763 0L23 7.237V22C23 22.5304 22.7893 23.0391 22.4142 23.4142C22.0391 23.7893 21.5304 24 21 24H3C2.46957 24 1.96086 23.7893 1.58579 23.4142C1.21071 23.0391 1 22.5304 1 22V2C1 1.46957 1.21071 0.960859 1.58579 0.585786C1.96086 0.210714 2.46957 0 3 0L15.763 0Z" fill="#FF7800"/>
<path fill-rule="evenodd" clip-rule="evenodd" d="M17.7632 7.237C17.2328 7.237 16.724 7.02629 16.349 6.65121C15.9739 6.27614 15.7632 5.76743 15.7632 5.237V0L23.0002 7.237H17.7632Z" fill="white" fill-opacity="0.401"/>
<path d="M12.4562 11.9492C12.6001 11.5609 13.0318 11.3631 13.4201 11.5068C13.8085 11.6508 14.0074 12.0823 13.8635 12.4707L11.5431 18.7304C11.3992 19.1188 10.9677 19.3168 10.5793 19.1728C10.191 19.0288 9.99297 18.5973 10.1369 18.209L12.4562 11.9492ZM7.55779 12.0195C7.84675 11.723 8.32163 11.717 8.61834 12.0058C8.91487 12.2948 8.92086 12.7697 8.63201 13.0664L6.68084 15.0693L8.63201 17.0722C8.92091 17.3689 8.91479 17.8438 8.61834 18.1328C8.32161 18.4218 7.84679 18.4158 7.55779 18.1191L5.09783 15.5928C4.81441 15.3016 4.81438 14.838 5.09783 14.5469L7.55779 12.0195ZM15.382 12.0058C15.6788 11.7169 16.1536 11.7227 16.4426 12.0195L18.9025 14.5469C19.1858 14.838 19.1857 15.3016 18.9025 15.5928L16.4426 18.1191C16.1536 18.4159 15.6788 18.4218 15.382 18.1328C15.0853 17.8438 15.0784 17.369 15.3674 17.0722L17.3176 15.0693L15.3674 13.0664C15.0784 12.7696 15.0852 12.2948 15.382 12.0058Z" fill="white"/>
</g>
<defs>
<clipPath id="clip0_93_31618">
<rect width="24" height="24" fill="white"/>
</clipPath>
</defs>
</svg>
