<svg width="24" height="24" viewBox="0 0 24 24" fill="none" xmlns="http://www.w3.org/2000/svg">
<g clip-path="url(#clip0_93_31648)">
<path fill-rule="evenodd" clip-rule="evenodd" d="M15.763 0L23 7.237V22C23 22.5304 22.7893 23.0391 22.4142 23.4142C22.0391 23.7893 21.5304 24 21 24H3C2.46957 24 1.96086 23.7893 1.58579 23.4142C1.21071 23.0391 1 22.5304 1 22V2C1 1.46957 1.21071 0.960859 1.58579 0.585786C1.96086 0.210714 2.46957 0 3 0L15.763 0Z" fill="#2CC7EA"/>
<path fill-rule="evenodd" clip-rule="evenodd" d="M17.7632 7.237C17.2328 7.237 16.724 7.02629 16.349 6.65121C15.9739 6.27614 15.7632 5.76743 15.7632 5.237V0L23.0002 7.237H17.7632Z" fill="white" fill-opacity="0.401"/>
<path d="M16.0871 17.7301C16.5671 17.7301 16.9904 17.6235 17.3571 17.4101C17.7304 17.1968 18.0204 16.9001 18.2271 16.5201C18.4338 16.1335 18.5371 15.6935 18.5371 15.2001C18.5371 14.7068 18.4338 14.2668 18.2271 13.8801C18.0204 13.4935 17.7304 13.1901 17.3571 12.9701C16.9838 12.7501 16.5604 12.6401 16.0871 12.6401C15.6138 12.6401 15.1904 12.7501 14.8171 12.9701C14.4438 13.1901 14.1538 13.4935 13.9471 13.8801C13.7404 14.2668 13.6371 14.7068 13.6371 15.2001C13.6371 15.6935 13.7404 16.1335 13.9471 16.5201C14.1538 16.9001 14.4404 17.1968 14.8071 17.4101C15.1804 17.6235 15.6071 17.7301 16.0871 17.7301ZM16.0871 19.0001C15.3938 19.0001 14.7538 18.8301 14.1671 18.4901C13.5871 18.1501 13.1238 17.6901 12.7771 17.1101C12.4371 16.5301 12.2671 15.8935 12.2671 15.2001C12.2671 14.5068 12.4371 13.8668 12.7771 13.2801C13.1238 12.6935 13.5904 12.2301 14.1771 11.8901C14.7638 11.5435 15.4004 11.3701 16.0871 11.3701C16.7738 11.3701 17.4104 11.5435 17.9971 11.8901C18.5838 12.2301 19.0471 12.6935 19.3871 13.2801C19.7338 13.8668 19.9071 14.5068 19.9071 15.2001C19.9071 15.8935 19.7338 16.5301 19.3871 17.1101C19.0471 17.6901 18.5838 18.1501 17.9971 18.4901C17.4171 18.8301 16.7804 19.0001 16.0871 19.0001Z" fill="white"/>
<path d="M10.3333 14.8001C10.6999 14.8001 10.9766 14.9001 11.1633 15.1001C11.3566 15.2935 11.4233 15.5635 11.3633 15.9101C11.2566 16.5635 11.0399 17.1235 10.7133 17.5901C10.3933 18.0501 9.98326 18.4001 9.48326 18.6401C8.98993 18.8801 8.43993 19.0001 7.83326 19.0001C7.1466 19.0001 6.5166 18.8301 5.94326 18.4901C5.36993 18.1435 4.9166 17.6768 4.58326 17.0901C4.2566 16.5035 4.09326 15.8668 4.09326 15.1801C4.09326 14.5001 4.2566 13.8668 4.58326 13.2801C4.9166 12.6935 5.3666 12.2301 5.93326 11.8901C6.5066 11.5435 7.13993 11.3701 7.83326 11.3701C8.31993 11.3701 8.7766 11.4568 9.20326 11.6301C9.62993 11.8035 10.0099 12.0501 10.3433 12.3701C10.5033 12.5235 10.5733 12.6835 10.5533 12.8501C10.5333 13.0101 10.4366 13.1501 10.2633 13.2701L10.2333 13.2901C10.0733 13.4035 9.91659 13.4501 9.76326 13.4301C9.6166 13.4101 9.4666 13.3301 9.31326 13.1901C9.1066 13.0035 8.88326 12.8668 8.64326 12.7801C8.40326 12.6868 8.13326 12.6401 7.83326 12.6401C7.3666 12.6401 6.95326 12.7501 6.59326 12.9701C6.23326 13.1835 5.95326 13.4835 5.75326 13.8701C5.55993 14.2501 5.46326 14.6868 5.46326 15.1801C5.46326 15.6801 5.55993 16.1235 5.75326 16.5101C5.95326 16.8901 6.22993 17.1901 6.58326 17.4101C6.94326 17.6235 7.35993 17.7301 7.83326 17.7301C8.3066 17.7301 8.71326 17.6335 9.05326 17.4401C9.39326 17.2468 9.65326 16.9701 9.83326 16.6101C10.0133 16.2435 10.1033 15.8101 10.1033 15.3101V14.8001H10.3333ZM10.2533 16.1001H8.55326C8.3466 16.1001 8.18659 16.0468 8.07326 15.9401C7.9666 15.8268 7.91326 15.6668 7.91326 15.4601V15.4401C7.91326 15.2335 7.9666 15.0768 8.07326 14.9701C8.18659 14.8568 8.3466 14.8001 8.55326 14.8001H10.2533V16.1001Z" fill="white"/>
</g>
<defs>
<clipPath id="clip0_93_31648">
<rect width="24" height="24" fill="white"/>
</clipPath>
</defs>
</svg>
