<svg width="24" height="25" viewBox="0 0 24 25" fill="none" xmlns="http://www.w3.org/2000/svg">
<g clip-path="url(#clip0_15207_78397)">
<mask id="mask0_15207_78397" style="mask-type:alpha" maskUnits="userSpaceOnUse" x="-1" y="0" width="25" height="24">
<path d="M23.9995 12C23.9995 21.3752 21.3747 24 11.9995 24C2.62433 24 -0.000488281 21.3752 -0.000488281 12C-0.000488281 2.62482 2.62433 0 11.9995 0C21.3747 0 23.9995 2.62482 23.9995 12Z" fill="#DDEBFF"/>
</mask>
<g mask="url(#mask0_15207_78397)">
<path d="M24 12C24 21.3752 21.3752 24 12 24C2.62482 24 0 21.3752 0 12C0 2.62482 2.62482 0 12 0C21.3752 0 24 2.62482 24 12Z" fill="#525252"/>
<path d="M13.3213 6.13695C14.395 5.09464 15.9567 4.89954 17.2256 5.55102L15.1104 7.635L16.5098 9.03637L18.625 6.91918C19.2754 8.18941 19.0799 9.78511 18.0391 10.8274C17.1607 11.7068 15.9567 12.0006 14.8506 11.675L13.9883 12.5373L14.5576 13.1077L15.2734 12.3918L18.4941 15.6164C19.1123 16.2354 19.1123 17.2778 18.4941 17.8967L17.6807 18.7112C17.0625 19.3298 16.0214 19.3299 15.4033 18.7112L12.1826 15.4856L12.8984 14.7698L12.3281 14.1995L7.69238 18.8411C7.26941 19.2645 6.58606 19.2645 6.16309 18.8411L5.31738 18.0598C5.21684 17.9593 5.13646 17.8396 5.08203 17.7082C5.02769 17.577 5.00004 17.4362 5 17.2942C5 17.152 5.02761 17.0105 5.08203 16.8791C5.13645 16.7478 5.21688 16.629 5.31738 16.5286L9.98535 11.8537L8.14746 10.0129L8.11523 10.0461L6.52051 9.19945L5.08984 7.34203L7.13867 5.29027L8.99414 6.72289L9.83984 8.31957L9.80762 8.3518L11.6455 10.1916L12.4756 9.36156C12.1829 8.25407 12.4429 7.01642 13.3213 6.13695Z" fill="white"/>
</g>
</g>
<defs>
<clipPath id="clip0_15207_78397">
<rect width="24" height="24" fill="white"/>
</clipPath>
</defs>
</svg>
