<svg width="24" height="24" viewBox="0 0 24 24" fill="none" xmlns="http://www.w3.org/2000/svg">
<g clip-path="url(#clip0_93_31641)">
<path fill-rule="evenodd" clip-rule="evenodd" d="M15.763 0L23 7.237V22C23 22.5304 22.7893 23.0391 22.4142 23.4142C22.0391 23.7893 21.5304 24 21 24H3C2.46957 24 1.96086 23.7893 1.58579 23.4142C1.21071 23.0391 1 22.5304 1 22V2C1 1.46957 1.21071 0.960859 1.58579 0.585786C1.96086 0.210714 2.46957 0 3 0L15.763 0Z" fill="#2685FA"/>
<path fill-rule="evenodd" clip-rule="evenodd" d="M17.7632 7.237C17.2328 7.237 16.724 7.02629 16.349 6.65121C15.9739 6.27614 15.7632 5.76743 15.7632 5.237V0L23.0002 7.237H17.7632Z" fill="white" fill-opacity="0.401"/>
<path d="M17.9652 9.75178H15.8164V9.22407C15.8164 9.10841 15.9141 9.0072 16.0257 9.0072H17.7559C17.8676 9.0072 17.9652 9.10841 17.9652 9.22407V9.75178ZM15.8164 10.0771H17.9652V18.8747H15.8164V10.0771ZM17.9652 19.1783L17.0234 20.8699C17.0164 20.8771 17.0164 20.8843 17.0094 20.8988C16.9815 20.9349 16.9397 20.9638 16.8908 20.9638C16.842 20.9638 16.8001 20.9349 16.7722 20.8988C16.7722 20.8915 16.7652 20.8915 16.7652 20.8843L15.8164 19.1855H17.9652V19.1783Z" fill="white"/>
<path d="M17.03 20.812C17.03 20.8337 17.023 20.8554 17.0161 20.8699C17.0091 20.8771 17.0091 20.8843 17.0021 20.8988C16.9742 20.9349 16.9323 20.9638 16.8835 20.9638C16.8347 20.9638 16.7928 20.9349 16.7649 20.8988C16.7649 20.8915 16.7579 20.8915 16.7579 20.8843C16.744 20.8626 16.737 20.8409 16.737 20.812C16.737 20.7325 16.7998 20.6602 16.8835 20.6602C16.9672 20.6602 17.03 20.7325 17.03 20.812ZM14.1626 9.0072H6.91374C6.43234 9.0072 6.03467 9.41925 6.03467 9.91805V20.0747C6.03467 20.5735 6.43234 20.9855 6.91374 20.9855H14.1626C14.644 20.9855 15.0416 20.5735 15.0416 20.0747V9.91805C15.0416 9.41925 14.644 9.0072 14.1626 9.0072ZM11.8323 16.2723C11.8323 16.5253 11.6649 16.7277 11.4556 16.7277H7.69513C7.48583 16.7277 7.31839 16.5253 7.31839 16.2723C7.31839 16.0193 7.48583 15.8168 7.69513 15.8168H11.4486C11.6579 15.8168 11.8323 16.0193 11.8323 16.2723ZM13.3812 14.1253H7.69513C7.48583 14.1253 7.31839 13.9229 7.31839 13.6699C7.31839 13.4168 7.48583 13.2144 7.69513 13.2144H13.3742C13.5835 13.2144 13.7509 13.4168 13.7509 13.6699C13.7579 13.9156 13.5835 14.1253 13.3812 14.1253ZM13.3812 11.5229H7.69513C7.48583 11.5229 7.31839 11.3205 7.31839 11.0674C7.31839 10.8144 7.48583 10.612 7.69513 10.612H13.3742C13.5835 10.612 13.7509 10.8144 13.7509 11.0674C13.7509 11.3205 13.5835 11.5229 13.3812 11.5229Z" fill="white"/>
</g>
<defs>
<clipPath id="clip0_93_31641">
<rect width="24" height="24" fill="white"/>
</clipPath>
</defs>
</svg>
