<svg width="24" height="25" viewBox="0 0 24 25" fill="none" xmlns="http://www.w3.org/2000/svg">
<g clip-path="url(#clip0_15207_78474)">
<mask id="mask0_15207_78474" style="mask-type:alpha" maskUnits="userSpaceOnUse" x="-1" y="0" width="25" height="24">
<path d="M23.9995 12C23.9995 21.3752 21.3747 24 11.9995 24C2.62433 24 -0.000488281 21.3752 -0.000488281 12C-0.000488281 2.62482 2.62433 0 11.9995 0C21.3747 0 23.9995 2.62482 23.9995 12Z" fill="#DDEBFF"/>
</mask>
<g mask="url(#mask0_15207_78474)">
<path d="M24 12C24 21.3752 21.3752 24 12 24C2.62482 24 0 21.3752 0 12C0 2.62482 2.62482 0 12 0C21.3752 0 24 2.62482 24 12Z" fill="#739BFF"/>
<path d="M11.8538 12.1746C13.7933 12.1746 15.3657 10.6074 15.3657 8.6747C15.3657 6.74164 13.7933 5.17505 11.8538 5.17505C9.91431 5.17505 8.34174 6.74164 8.3419 8.6747C8.34188 10.6074 9.91431 12.1746 11.8538 12.1746H11.8538ZM13.4637 13.3415H10.5367C8.03127 13.3415 6 15.3654 6 17.862V18.1536C6 19.1741 8.03127 19.175 10.5367 19.175H13.4637C15.9688 19.175 18 19.1374 18 18.1536V17.862C18 15.3654 15.969 13.3415 13.4637 13.3415L13.4637 13.3415Z" fill="white"/>
</g>
</g>
<defs>
<clipPath id="clip0_15207_78474">
<rect width="24" height="24" fill="white"/>
</clipPath>
</defs>
</svg>
