<svg width="24" height="24" viewBox="0 0 24 24" fill="none" xmlns="http://www.w3.org/2000/svg">
<path d="M0 4C0 1.79086 1.79086 0 4 0H20C22.2091 0 24 1.79086 24 4V20C24 22.2091 22.2091 24 20 24H4C1.79086 24 0 22.2091 0 20V4Z" fill="url(#paint0_linear_20160_57448)"/>
<path d="M16.5778 11.9406H11.4716C11.2674 11.9406 11.1415 11.7205 11.2465 11.5473L13.8735 7.21673C14.0002 7.0079 13.9196 6.73756 13.6993 6.62826C12.8858 6.22437 11.9668 5.99794 10.9939 6.00001C7.67327 6.00741 5 8.65706 5 11.9406C5 14.6668 6.85736 16.9641 9.38928 17.6627L11.0079 20L12.6266 17.6627C15.0179 17.0027 16.8075 14.9168 16.9988 12.39C17.0171 12.1475 16.8237 11.9406 16.5778 11.9406Z" fill="white"/>
<path d="M15.8946 6.36158C15.5925 6.29079 15.2903 6.47843 15.2195 6.78051C15.1487 7.08258 15.3364 7.38482 15.6385 7.45561C16.1702 7.58016 16.6216 7.90423 16.9095 8.36826C17.1975 8.83229 17.2875 9.38075 17.163 9.91236C17.0922 10.2144 17.2798 10.5167 17.5819 10.5875C17.6249 10.5976 17.6681 10.6024 17.7105 10.6024C17.9655 10.6024 18.1963 10.4276 18.257 10.1685C18.4499 9.34464 18.3104 8.4949 17.8642 7.77582C17.418 7.05674 16.7185 6.55451 15.8946 6.36158ZM20.9237 8.29122C20.8073 7.61403 20.564 6.97344 20.2001 6.3871C19.8362 5.80076 19.3705 5.29837 18.8152 4.8934C18.2401 4.47399 17.5946 4.17849 16.8964 4.01493C16.5943 3.94415 16.292 4.13179 16.2213 4.43386C16.1505 4.73594 16.3381 5.03818 16.6402 5.10896C17.73 5.36417 18.6552 6.02852 19.2454 6.97954C19.8356 7.93055 20.02 9.0546 19.7648 10.1445C19.694 10.4465 19.8817 10.7488 20.1838 10.8196C20.2268 10.8297 20.2699 10.8345 20.3123 10.8345C20.5674 10.8345 20.7982 10.6597 20.8589 10.4006C21.0224 9.70241 21.0441 8.99264 20.9237 8.29122Z" fill="white"/>
<defs>
<linearGradient id="paint0_linear_20160_57448" x1="27.25" y1="25.75" x2="2" y2="1.60716e-06" gradientUnits="userSpaceOnUse">
<stop stop-color="#FFB300"/>
<stop offset="1" stop-color="#FF4D00"/>
</linearGradient>
</defs>
</svg>
