<svg width="24" height="25" viewBox="0 0 24 25" fill="none" xmlns="http://www.w3.org/2000/svg">
<g clip-path="url(#clip0_15207_78292)">
<mask id="mask0_15207_78292" style="mask-type:alpha" maskUnits="userSpaceOnUse" x="-1" y="0" width="25" height="24">
<path d="M23.9995 12C23.9995 21.3752 21.3747 24 11.9995 24C2.62433 24 -0.000488281 21.3752 -0.000488281 12C-0.000488281 2.62482 2.62433 0 11.9995 0C21.3747 0 23.9995 2.62482 23.9995 12Z" fill="#DDEBFF"/>
</mask>
<g mask="url(#mask0_15207_78292)">
<path d="M24 12C24 21.3752 21.3752 24 12 24C2.62482 24 0 21.3752 0 12C0 2.62482 2.62482 0 12 0C21.3752 0 24 2.62482 24 12Z" fill="#FF7777"/>
<path d="M15.15 6.17505C17.2766 6.17505 19 7.93181 19 10.3913C19 15.3102 13.75 18.121 12 19.175C10.6154 18.3416 7.0412 16.4085 5.6083 13.2021H8.8962L9.55 12.1087L11.65 15.6222L13.0962 13.2021H15.5V11.7967H12.3038L11.65 12.8901L9.55 9.37656L8.1038 11.7967H5.147C5.04888 11.3347 4.99961 10.8636 5 10.3913C5 7.93181 6.75 6.17505 8.85 6.17505C10.152 6.17505 11.3 6.87775 12 7.58045C12.7 6.87775 13.848 6.17505 15.15 6.17505Z" fill="white"/>
</g>
</g>
<defs>
<clipPath id="clip0_15207_78292">
<rect width="24" height="24" fill="white"/>
</clipPath>
</defs>
</svg>
