<svg width="24" height="24" viewBox="0 0 24 24" fill="none" xmlns="http://www.w3.org/2000/svg">
<g clip-path="url(#clip0_93_31642)">
<path fill-rule="evenodd" clip-rule="evenodd" d="M15.763 0L23 7.237V22C23 22.5304 22.7893 23.0391 22.4142 23.4142C22.0391 23.7893 21.5304 24 21 24H3C2.46957 24 1.96086 23.7893 1.58579 23.4142C1.21071 23.0391 1 22.5304 1 22V2C1 1.46957 1.21071 0.960859 1.58579 0.585786C1.96086 0.210714 2.46957 0 3 0L15.763 0Z" fill="#3D2FFF"/>
<path fill-rule="evenodd" clip-rule="evenodd" d="M17.7632 7.237C17.2328 7.237 16.724 7.02629 16.349 6.65121C15.9739 6.27614 15.7632 5.76743 15.7632 5.237V0L23.0002 7.237H17.7632Z" fill="white" fill-opacity="0.401"/>
<path d="M17.1328 12.8984C17.4176 12.8984 17.6484 13.1293 17.6484 13.4141V19.3438C17.6484 19.6285 17.4176 19.8594 17.1328 19.8594H15.4102C15.1254 19.8594 14.8945 19.6285 14.8945 19.3438V13.4141C14.8945 13.1293 15.1254 12.8984 15.4102 12.8984H17.1328ZM8.58984 11.4219C8.87461 11.4219 9.10547 11.6527 9.10547 11.9375V19.3438C9.10547 19.6285 8.87461 19.8594 8.58984 19.8594H6.86719C6.58242 19.8594 6.35156 19.6285 6.35156 19.3438V11.9375C6.35156 11.6527 6.58242 11.4219 6.86719 11.4219H8.58984ZM12.8672 8.14062C13.152 8.14062 13.3828 8.37148 13.3828 8.65625V19.3438C13.3828 19.6285 13.152 19.8594 12.8672 19.8594H11.1445C10.8598 19.8594 10.6289 19.6285 10.6289 19.3438V8.65625C10.6289 8.37148 10.8598 8.14062 11.1445 8.14062H12.8672Z" fill="white"/>
</g>
<defs>
<clipPath id="clip0_93_31642">
<rect width="24" height="24" fill="white"/>
</clipPath>
</defs>
</svg>
