<svg width="24" height="24" viewBox="0 0 24 24" fill="none" xmlns="http://www.w3.org/2000/svg">
<g clip-path="url(#clip0_93_31627)">
<path fill-rule="evenodd" clip-rule="evenodd" d="M15.763 0L23 7.237V22C23 22.5304 22.7893 23.0391 22.4142 23.4142C22.0391 23.7893 21.5304 24 21 24H3C2.46957 24 1.96086 23.7893 1.58579 23.4142C1.21071 23.0391 1 22.5304 1 22V2C1 1.46957 1.21071 0.960859 1.58579 0.585786C1.96086 0.210714 2.46957 0 3 0L15.763 0Z" fill="#333333"/>
<path fill-rule="evenodd" clip-rule="evenodd" d="M17.7632 7.237C17.2328 7.237 16.724 7.02629 16.349 6.65121C15.9739 6.27614 15.7632 5.76743 15.7632 5.237V0L23.0002 7.237H17.7632Z" fill="white" fill-opacity="0.401"/>
<path d="M10.6865 17.4042V14.2646L8.87402 16.0771C8.58116 16.3699 8.10638 16.3699 7.81348 16.0771L6 14.2636V17.4042C5.99989 17.8184 5.66415 18.1542 5.25 18.1542C4.83585 18.1542 4.50011 17.8184 4.5 17.4042V12.454C4.5 12.1507 4.68266 11.8768 4.96289 11.7607C5.24309 11.6446 5.56579 11.7093 5.78027 11.9238L8.34277 14.4863L10.9062 11.9238C11.1206 11.7094 11.4435 11.6449 11.7236 11.7607C12.0039 11.8768 12.1865 12.1507 12.1865 12.454V17.4042C12.1864 17.8184 11.8507 18.1542 11.4365 18.1542C11.0226 18.154 10.6866 17.8182 10.6865 17.4042ZM15.8232 12.454C15.8232 12.0398 16.159 11.704 16.5732 11.704C16.9873 11.7042 17.3232 12.0399 17.3232 12.454V15.6054L18.2227 14.7158C18.5171 14.4246 18.9919 14.4273 19.2832 14.7216C19.5744 15.016 19.5717 15.4908 19.2773 15.7822L17.1006 17.9374C16.8085 18.2264 16.3381 18.2262 16.0459 17.9374L13.8672 15.7831C13.573 15.4919 13.5703 15.017 13.8613 14.7226C14.1526 14.4281 14.6283 14.4255 14.9229 14.7167L15.8232 15.6074V12.454Z" fill="white"/>
</g>
<defs>
<clipPath id="clip0_93_31627">
<rect width="24" height="24" fill="white"/>
</clipPath>
</defs>
</svg>
