<svg width="24" height="24" viewBox="0 0 24 24" fill="none" xmlns="http://www.w3.org/2000/svg">
<g clip-path="url(#clip0_93_31637)">
<path fill-rule="evenodd" clip-rule="evenodd" d="M15.763 0L23 7.237V22C23 22.5304 22.7893 23.0391 22.4142 23.4142C22.0391 23.7893 21.5304 24 21 24H3C2.46957 24 1.96086 23.7893 1.58579 23.4142C1.21071 23.0391 1 22.5304 1 22V2C1 1.46957 1.21071 0.960859 1.58579 0.585786C1.96086 0.210714 2.46957 0 3 0L15.763 0Z" fill="#1D59D8"/>
<path fill-rule="evenodd" clip-rule="evenodd" d="M17.7632 7.237C17.2328 7.237 16.724 7.02629 16.349 6.65121C15.9739 6.27614 15.7632 5.76743 15.7632 5.237V0L23.0002 7.237H17.7632Z" fill="white" fill-opacity="0.401"/>
<path d="M6 10.75C6 10.3358 6.33579 10 6.75 10C7.16421 10 7.5 10.3358 7.5 10.75V16.6504L11.04 13.1123L11.0967 13.0615C11.3912 12.8212 11.8259 12.8378 12.1006 13.1123L15.6396 16.6504V10.751C15.6397 10.3369 15.9756 10.0012 16.3896 10.001C16.8039 10.001 17.1396 10.3368 17.1396 10.751V18.4609C17.1396 18.7643 16.957 19.0382 16.6768 19.1543C16.3966 19.2702 16.0738 19.2055 15.8594 18.9912L11.5693 14.7031L7.28027 18.9912C7.06578 19.2056 6.74308 19.2703 6.46289 19.1543C6.18267 19.0382 6 18.7643 6 18.4609V10.75Z" fill="white"/>
</g>
<defs>
<clipPath id="clip0_93_31637">
<rect width="24" height="24" fill="white"/>
</clipPath>
</defs>
</svg>
