<svg width="24" height="24" viewBox="0 0 24 24" fill="none" xmlns="http://www.w3.org/2000/svg">
<g clip-path="url(#clip0_93_31619)">
<path fill-rule="evenodd" clip-rule="evenodd" d="M15.763 0L23 7.237V22C23 22.5304 22.7893 23.0391 22.4142 23.4142C22.0391 23.7893 21.5304 24 21 24H3C2.46957 24 1.96086 23.7893 1.58579 23.4142C1.21071 23.0391 1 22.5304 1 22V2C1 1.46957 1.21071 0.960859 1.58579 0.585786C1.96086 0.210714 2.46957 0 3 0L15.763 0Z" fill="#9267E7"/>
<path fill-rule="evenodd" clip-rule="evenodd" d="M17.7632 7.237C17.2328 7.237 16.724 7.02629 16.349 6.65121C15.9739 6.27614 15.7632 5.76743 15.7632 5.237V0L23.0002 7.237H17.7632Z" fill="white" fill-opacity="0.401"/>
<path d="M12 10.338V20.012M9.84301 13.503L7.70801 20.012M14.157 13.503L16.292 20.012" stroke="white" stroke-width="1.5" stroke-linecap="round" stroke-linejoin="round"/>
<path d="M17.3571 10.583H6.64307C6.09078 10.583 5.64307 11.0307 5.64307 11.583V17.447C5.64307 17.9993 6.09078 18.447 6.64307 18.447H17.3571C17.9094 18.447 18.3571 17.9993 18.3571 17.447V11.583C18.3571 11.0307 17.9094 10.583 17.3571 10.583Z" fill="white"/>
</g>
<defs>
<clipPath id="clip0_93_31619">
<rect width="24" height="24" fill="white"/>
</clipPath>
</defs>
</svg>
