<svg width="24" height="24" viewBox="0 0 24 24" fill="none" xmlns="http://www.w3.org/2000/svg">
<g clip-path="url(#clip0_93_31634)">
<path d="M15.763 0L23 7.237V22C23 22.5304 22.7893 23.0391 22.4142 23.4142C22.0391 23.7893 21.5304 24 21 24H3C2.46957 24 1.96086 23.7893 1.58579 23.4142C1.21071 23.0391 1 22.5304 1 22V2C1 1.46957 1.21071 0.960859 1.58579 0.585786C1.96086 0.210714 2.46957 0 3 0L15.763 0Z" fill="#4B4B4B"/>
<path d="M17.7632 7.237C17.2328 7.237 16.724 7.02629 16.349 6.65121C15.9739 6.27614 15.7632 5.76743 15.7632 5.237V0L23.0002 7.237H17.7632Z" fill="white" fill-opacity="0.401"/>
<path d="M18.394 18.54H5.60596C5.19174 18.54 4.85596 18.8758 4.85596 19.29C4.85596 19.7043 5.19174 20.04 5.60596 20.04H18.394C18.8082 20.04 19.144 19.7043 19.144 19.29C19.144 18.8758 18.8082 18.54 18.394 18.54Z" fill="white"/>
<path d="M11.25 13.499H5.60596C5.19174 13.499 4.85596 13.8348 4.85596 14.249C4.85596 14.6632 5.19174 14.999 5.60596 14.999H11.25C11.6642 14.999 12 14.6632 12 14.249C12 13.8348 11.6642 13.499 11.25 13.499Z" fill="white"/>
</g>
<defs>
<clipPath id="clip0_93_31634">
<rect width="24" height="24" fill="white"/>
</clipPath>
</defs>
</svg>
