<svg width="24" height="25" viewBox="0 0 24 25" fill="none" xmlns="http://www.w3.org/2000/svg">
<g clip-path="url(#clip0_15207_78382)">
<mask id="mask0_15207_78382" style="mask-type:alpha" maskUnits="userSpaceOnUse" x="-1" y="0" width="25" height="24">
<path d="M23.9995 12C23.9995 21.3752 21.3747 24 11.9995 24C2.62433 24 -0.000488281 21.3752 -0.000488281 12C-0.000488281 2.62482 2.62433 0 11.9995 0C21.3747 0 23.9995 2.62482 23.9995 12Z" fill="#DDEBFF"/>
</mask>
<g mask="url(#mask0_15207_78382)">
<path d="M24 12C24 21.3752 21.3752 24 12 24C2.62482 24 0 21.3752 0 12C0 2.62482 2.62482 0 12 0C21.3752 0 24 2.62482 24 12Z" fill="#9F69FB"/>
</g>
</g>
<path d="M17.833 13.9711C17.9455 13.8481 18 13.7137 18 13.569C18 13.119 17.5701 12.6769 16.7067 12.248C16.7774 11.8649 16.8193 11.4543 16.8289 11.0128C16.8863 9.19254 16.4241 7.76687 15.4422 6.74323C14.547 5.81452 13.3501 5.29641 11.8449 5.19233C10.33 5.07624 9.00502 5.54517 7.87219 6.59912C6.65913 7.72112 6.052 9.18625 6.052 10.9979C6.052 11.341 6.07834 11.6967 6.12984 12.0616C5.37541 12.4813 5 12.8948 5 13.2968C5 13.4312 5.0479 13.5633 5.15088 13.6977C5.31135 13.879 5.50714 13.9711 5.73766 13.9711C5.96877 13.9711 6.22264 13.8818 6.50166 13.6983C6.51244 13.7223 6.52202 13.7469 6.5304 13.7715C6.92937 14.669 7.50685 15.4841 8.23084 16.1716C9.99655 17.83 12.4514 18.8291 15.5894 19.175C14.7686 18.5134 14.386 17.8386 14.4476 17.1495C14.5596 16.5948 14.8195 16.0183 15.2302 15.4236C15.7727 14.6481 16.1127 14.1054 16.2541 13.7995C16.6265 14.1054 16.9606 14.2587 17.2617 14.2587C17.4929 14.2587 17.6821 14.1638 17.833 13.9711ZM7.93566 8.43767C7.93566 8.25696 8.00332 8.10027 8.13803 7.97217C8.20096 7.90929 8.27675 7.85943 8.36069 7.82568C8.44464 7.79194 8.53494 7.77504 8.62601 7.77602C8.71958 7.77437 8.81252 7.79091 8.89918 7.82463C8.98585 7.85835 9.06443 7.90855 9.13016 7.97217C9.26488 8.10084 9.33194 8.25696 9.33194 8.43767C9.33194 8.61838 9.26488 8.77507 9.13016 8.90374C8.99544 9.03241 8.8248 9.09703 8.62601 9.09703C8.43681 9.09703 8.27275 9.03241 8.13803 8.90374C8.07293 8.84329 8.02145 8.77076 7.98675 8.69061C7.95205 8.61046 7.93487 8.52439 7.93626 8.43767H7.93566ZM12.7789 9.34179C12.7789 9.16108 12.846 9.00439 12.9807 8.87629C13.1154 8.74762 13.2795 8.683 13.4687 8.683C13.6579 8.683 13.8219 8.74762 13.9567 8.87629C14.0914 9.00496 14.1584 9.16108 14.1584 9.34179C14.1584 9.53223 14.0914 9.69464 13.9567 9.82331C13.8934 9.88549 13.8174 9.93466 13.7335 9.9678C13.6496 10.0009 13.5595 10.0174 13.4687 10.016C13.2795 10.016 13.1154 9.95198 12.9807 9.82331C12.9144 9.7605 12.8622 9.68536 12.8275 9.60254C12.7928 9.51972 12.7763 9.43097 12.7789 9.34179ZM8.75115 10.9499C9.09723 11.7276 10.4372 13.0504 13.0268 12.1165C11.7443 13.5364 9.09304 15.2904 8.75175 10.9499H8.75115Z" fill="white"/>
<defs>
<clipPath id="clip0_15207_78382">
<rect width="24" height="24" fill="white"/>
</clipPath>
</defs>
</svg>
