<svg width="24" height="24" viewBox="0 0 24 24" fill="none" xmlns="http://www.w3.org/2000/svg">
<g clip-path="url(#clip0_93_31622)">
<path fill-rule="evenodd" clip-rule="evenodd" d="M15.763 0L23 7.237V22C23 22.5304 22.7893 23.0391 22.4142 23.4142C22.0391 23.7893 21.5304 24 21 24H3C2.46957 24 1.96086 23.7893 1.58579 23.4142C1.21071 23.0391 1 22.5304 1 22V2C1 1.46957 1.21071 0.960859 1.58579 0.585786C1.96086 0.210714 2.46957 0 3 0L15.763 0Z" fill="#FFA200"/>
<path fill-rule="evenodd" clip-rule="evenodd" d="M17.7632 7.237C17.2328 7.237 16.724 7.02629 16.349 6.65121C15.9739 6.27614 15.7632 5.76743 15.7632 5.237V0L23.0002 7.237H17.7632Z" fill="white" fill-opacity="0.401"/>
<path fill-rule="evenodd" clip-rule="evenodd" d="M6.51714 18.554H17.4831C17.6291 18.554 17.7726 18.5172 17.9005 18.4469C18.0284 18.3767 18.1365 18.2753 18.2148 18.1521C18.2931 18.029 18.339 17.8881 18.3483 17.7424C18.3577 17.5968 18.3301 17.4512 18.2681 17.319L18.2131 17.204L18.1051 16.978L17.9971 16.758L17.8901 16.545L17.7831 16.338L17.6771 16.137C17.6596 16.104 17.6419 16.071 17.6241 16.038L17.5191 15.846C17.5016 15.8147 17.4839 15.7833 17.4661 15.752L17.3621 15.569L17.2581 15.392C16.2731 13.741 15.3631 12.915 14.5281 12.915C13.2691 12.915 12.0891 14.039 10.9881 16.287C10.3921 15.48 9.52714 15.077 8.39014 15.077C7.49214 15.077 6.61914 15.801 5.77014 17.249C5.69308 17.3807 5.65212 17.5303 5.65138 17.6828C5.65064 17.8354 5.69015 17.9854 5.76592 18.1178C5.84169 18.2501 5.95105 18.3602 6.08294 18.4368C6.21484 18.5134 6.36461 18.5538 6.51714 18.554Z" fill="white"/>
<path d="M7.53006 12.032C8.21545 12.032 8.77106 11.4764 8.77106 10.791C8.77106 10.1057 8.21545 9.55005 7.53006 9.55005C6.84468 9.55005 6.28906 10.1057 6.28906 10.791C6.28906 11.4764 6.84468 12.032 7.53006 12.032Z" fill="white"/>
</g>
<defs>
<clipPath id="clip0_93_31622">
<rect width="24" height="24" fill="white"/>
</clipPath>
</defs>
</svg>
