<svg width="24" height="24" viewBox="0 0 24 24" fill="none" xmlns="http://www.w3.org/2000/svg">
<path d="M0 2.83333C0 1.82081 0.976833 1 2.18182 1H21.8182C23.0232 1 24 1.82081 24 2.83333V21.1667C24 22.1792 23.0232 23 21.8182 23H2.18182C0.976833 23 0 22.1792 0 21.1667V2.83333Z" fill="#00BF9A"/>
<path d="M0 3C0 1.89543 0.976833 1 2.18182 1H21.8182C23.0232 1 24 1.89543 24 3C24 4.10457 23.0232 5 21.8182 5H2.18182C0.976833 5 0 4.10457 0 3Z" fill="#009F83"/>
<path d="M3 19C3 18.4477 3.50368 18 4.125 18H19.875C20.4963 18 21 18.4477 21 19C21 19.5523 20.4963 20 19.875 20H4.125C3.50368 20 3 19.5523 3 19Z" fill="#8AE5CF"/>
<path d="M3 15C3 14.4477 3.44772 14 4 14H10C10.5523 14 11 14.4477 11 15C11 15.5523 10.5523 16 10 16H4C3.44772 16 3 15.5523 3 15Z" fill="#8AE5CF"/>
<path d="M14 4C14 3.44772 14.4477 3 15 3H19C19.5523 3 20 3.44772 20 4V10.2967C20 11.2251 18.8449 11.6524 18.2407 10.9475L17 9.5L15.7593 10.9475C15.1551 11.6524 14 11.2251 14 10.2967V4Z" fill="white"/>
</svg>
