<svg width="24" height="24" viewBox="0 0 24 24" fill="none" xmlns="http://www.w3.org/2000/svg">
<g clip-path="url(#clip0_93_31629)">
<path fill-rule="evenodd" clip-rule="evenodd" d="M15.763 0L23 7.237V22C23 22.5304 22.7893 23.0391 22.4142 23.4142C22.0391 23.7893 21.5304 24 21 24H3C2.46957 24 1.96086 23.7893 1.58579 23.4142C1.21071 23.0391 1 22.5304 1 22V2C1 1.46957 1.21071 0.960859 1.58579 0.585786C1.96086 0.210714 2.46957 0 3 0L15.763 0Z" fill="#FA5C26"/>
<path fill-rule="evenodd" clip-rule="evenodd" d="M17.7632 7.237C17.2328 7.237 16.724 7.02629 16.349 6.65121C15.9739 6.27614 15.7632 5.76743 15.7632 5.237V0L23.0002 7.237H17.7632Z" fill="white" fill-opacity="0.401"/>
<path d="M7.15479 18.8579V15.3784C7.15479 14.9642 7.49058 14.6284 7.90479 14.6284H15.0747C15.741 14.6284 16.3422 14.0511 16.3423 13.2622C16.3423 12.4745 15.7413 11.897 15.0747 11.897H7.90381C7.4896 11.897 7.15381 11.5612 7.15381 11.147C7.15381 10.7328 7.4896 10.397 7.90381 10.397H15.0747C16.6361 10.397 17.8423 11.714 17.8423 13.2622C17.8422 14.8111 16.6362 16.1284 15.0747 16.1284H8.65479V18.8579C8.65479 19.2721 8.319 19.6079 7.90479 19.6079C7.49058 19.6079 7.15479 19.2721 7.15479 18.8579Z" fill="white"/>
</g>
<defs>
<clipPath id="clip0_93_31629">
<rect width="24" height="24" fill="white"/>
</clipPath>
</defs>
</svg>
