<svg width="24" height="24" viewBox="0 0 24 24" fill="none" xmlns="http://www.w3.org/2000/svg">
<g clip-path="url(#clip0_93_31626)">
<path fill-rule="evenodd" clip-rule="evenodd" d="M15.763 0L23 7.237V22C23 22.5304 22.7893 23.0391 22.4142 23.4142C22.0391 23.7893 21.5304 24 21 24H3C2.46957 24 1.96086 23.7893 1.58579 23.4142C1.21071 23.0391 1 22.5304 1 22V2C1 1.46957 1.21071 0.960859 1.58579 0.585786C1.96086 0.210714 2.46957 0 3 0L15.763 0Z" fill="#FF414C"/>
<path d="M11.4481 9.184C12.0211 9.207 12.4761 9.583 12.5911 10.225C12.6521 10.523 12.6711 10.845 12.6541 11.193C12.6301 11.654 12.5501 12.112 12.4011 12.739C12.3869 12.799 12.3725 12.859 12.3581 12.919L12.3211 13.069C12.7231 14.116 13.2891 14.829 14.1291 15.346C14.6982 15.2674 15.2726 15.2333 15.8471 15.244C16.5851 15.268 17.1301 15.407 17.4261 15.698C17.7121 15.983 17.8181 16.5 17.6841 16.946C17.5321 17.453 17.1121 17.776 16.491 17.776C15.7371 17.776 14.6191 17.436 13.6511 16.918C13.0941 17.012 12.4811 17.178 11.6721 17.442C11.4861 17.502 11.2971 17.566 11.0371 17.654L10.6251 17.793L10.4861 17.84L10.2441 17.92C9.11005 19.866 8.08405 20.727 7.24905 20.662C7.08972 20.6489 6.93556 20.5992 6.79855 20.5168C6.66154 20.4344 6.54536 20.3216 6.45905 20.187C6.29705 19.947 6.22605 19.653 6.27305 19.429C6.37005 18.944 6.72205 18.483 7.28605 18.035C7.71305 17.695 8.22205 17.389 8.87605 17.052C9.36505 16.192 10.0941 14.649 10.6461 13.332C10.2131 11.654 10.0931 10.67 10.2971 9.922C10.4231 9.46 10.9141 9.162 11.4481 9.184ZM9.21805 17.504L8.83205 17.864L8.51405 18.148C8.34905 18.298 8.20805 18.431 8.07205 18.568C7.84721 18.7876 7.64487 19.0292 7.46805 19.289C7.38305 19.419 7.31805 19.543 7.27405 19.661L7.27005 19.673V19.686C7.27005 19.714 7.28705 19.74 7.31405 19.752C7.32608 19.7569 7.33916 19.7586 7.35205 19.757C7.3658 19.7556 7.37927 19.7523 7.39205 19.747C7.4235 19.7331 7.45363 19.7164 7.48205 19.697C7.56805 19.642 7.67505 19.555 7.79605 19.437C8.12605 19.119 8.51205 18.63 8.93805 17.951L9.21805 17.504ZM11.4781 14.018L11.4241 14.158C10.9991 15.281 10.6041 16.174 10.1771 16.918L10.0811 17.086L10.2621 17.016C10.4701 16.936 11.2931 16.6 11.2181 16.63C11.9381 16.34 12.4641 16.164 13.0281 16.048L13.1801 16.016L13.0561 15.924C12.4791 15.497 11.9541 14.884 11.5501 14.15L11.4781 14.018ZM16.72 16.342C16.3881 16.22 15.8171 16.175 15.0101 16.235L14.7271 16.256L14.9891 16.368C16.0191 16.808 16.604 16.903 16.876 16.796C16.9036 16.7862 16.929 16.7713 16.9511 16.752C16.9857 16.7289 17.01 16.6932 17.0188 16.6525C17.0276 16.6118 17.0201 16.5693 16.998 16.534C16.956 16.459 16.8621 16.394 16.72 16.342ZM11.4741 9.968C11.3081 9.968 11.2661 10.284 11.2911 10.809C11.3131 11.271 11.3911 11.783 11.4991 12.123L11.5471 12.275L11.6251 12.136C11.7521 11.911 11.83 11.397 11.8221 10.904C11.8141 10.342 11.7071 9.968 11.4741 9.968Z" fill="white"/>
<path fill-rule="evenodd" clip-rule="evenodd" d="M17.7632 7.237C17.2328 7.237 16.724 7.02629 16.349 6.65121C15.9739 6.27614 15.7632 5.76743 15.7632 5.237V0L23.0002 7.237H17.7632Z" fill="white" fill-opacity="0.401"/>
</g>
<defs>
<clipPath id="clip0_93_31626">
<rect width="24" height="24" fill="white"/>
</clipPath>
</defs>
</svg>
