<svg width="24" height="24" viewBox="0 0 24 24" fill="none" xmlns="http://www.w3.org/2000/svg">
<path fill-rule="evenodd" clip-rule="evenodd" d="M15.763 0L23 7.237V22C23 22.5304 22.7893 23.0391 22.4142 23.4142C22.0391 23.7893 21.5304 24 21 24H3C2.46957 24 1.96086 23.7893 1.58579 23.4142C1.21071 23.0391 1 22.5304 1 22V2C1 1.46957 1.21071 0.960859 1.58579 0.585786C1.96086 0.210714 2.46957 0 3 0L15.763 0Z" fill="#2649FA"/>
<path fill-rule="evenodd" clip-rule="evenodd" d="M17.7632 7.237C17.2328 7.237 16.724 7.02629 16.349 6.65121C15.9739 6.27614 15.7632 5.76743 15.7632 5.237V0L23.0002 7.237H17.7632Z" fill="white" fill-opacity="0.401"/>
<path d="M17.5967 18.4648L17.6738 18.4688C18.0518 18.5074 18.3467 18.8267 18.3467 19.2148C18.3467 19.603 18.0518 19.9223 17.6738 19.9609L17.5967 19.9648L6.40332 19.9648C5.98911 19.9648 5.65332 19.6291 5.65332 19.2148C5.65332 18.8006 5.98911 18.4648 6.40332 18.4648L17.5967 18.4648Z" fill="white"/>
<path d="M16.9824 9.75656C17.2199 9.41729 17.687 9.33462 18.0263 9.57199C18.3656 9.80948 18.4483 10.2766 18.2109 10.6159L14.9463 15.28C14.829 15.4475 14.6483 15.5603 14.4463 15.5915C14.2443 15.6227 14.0382 15.5702 13.8759 15.446L9.64157 12.2048L7.03122 16.1941C6.80435 16.5406 6.3387 16.6377 5.99216 16.4109C5.64565 16.184 5.54853 15.7183 5.77536 15.3718L8.8281 10.7087L8.87399 10.6452C8.98807 10.5051 9.1502 10.4103 9.33005 10.3796C9.53551 10.3446 9.74656 10.3965 9.91208 10.5232L14.166 13.778L16.9824 9.75656Z" fill="white"/>
</svg>
