<svg width="24" height="25" viewBox="0 0 24 25" fill="none" xmlns="http://www.w3.org/2000/svg">
<g clip-path="url(#clip0_15207_78308)">
<mask id="mask0_15207_78308" style="mask-type:alpha" maskUnits="userSpaceOnUse" x="-1" y="0" width="25" height="24">
<path d="M23.9995 12C23.9995 21.3752 21.3747 24 11.9995 24C2.62433 24 -0.000488281 21.3752 -0.000488281 12C-0.000488281 2.62482 2.62433 0 11.9995 0C21.3747 0 23.9995 2.62482 23.9995 12Z" fill="#DDEBFF"/>
</mask>
<g mask="url(#mask0_15207_78308)">
<path d="M24 12C24 21.3752 21.3752 24 12 24C2.62482 24 0 21.3752 0 12C0 2.62482 2.62482 0 12 0C21.3752 0 24 2.62482 24 12Z" fill="#49DD70"/>
<path d="M17.5971 6.97621C17.3362 6.70788 16.997 6.55932 16.6515 6.56632L13.8707 6.55854C13.7391 6.16169 13.4903 5.81424 13.1573 5.56219C12.8235 5.31091 12.4173 5.17505 11.9998 5.17505C11.5822 5.17505 11.176 5.31091 10.8422 5.56219C10.5247 5.79553 10.2709 6.14165 10.1296 6.55232H7.34877C7.00253 6.54454 6.66405 6.6931 6.40243 6.96221C6.2728 7.08907 6.17029 7.24103 6.10116 7.40884C6.03202 7.57665 5.9977 7.75681 6.00029 7.93834V17.754C5.99253 18.1211 6.14158 18.475 6.40243 18.7294C6.64309 19.0055 6.98157 19.161 7.34877 19.175H16.6515C17.004 19.168 17.3424 19.0125 17.5971 18.7294C17.8509 18.489 18 18.1359 18 17.754V7.94534C17.9922 7.57044 17.8447 7.20955 17.5971 6.97621ZM11.3997 6.97621C11.4524 6.84996 11.5421 6.74262 11.6567 6.66824C11.7714 6.59385 11.9059 6.55589 12.0425 6.55932V6.56632C12.133 6.56246 12.2233 6.5781 12.3072 6.61218C12.3912 6.64626 12.4669 6.69799 12.5292 6.76388C12.5937 6.82457 12.6446 6.89819 12.6787 6.97995C12.7128 7.0617 12.7293 7.14974 12.7272 7.23833C12.7268 7.42253 12.656 7.59958 12.5292 7.733C12.4667 7.79961 12.3913 7.85278 12.3076 7.88928C12.2239 7.92579 12.1337 7.94486 12.0425 7.94534C11.9511 7.94496 11.8607 7.92594 11.7769 7.88944C11.6931 7.85293 11.6175 7.7997 11.5549 7.733C11.4547 7.63806 11.386 7.51451 11.3582 7.37913C11.3304 7.24375 11.3449 7.10308 11.3997 6.97621ZM10.4044 12.6478C10.2381 12.3663 10.1503 12.0452 10.1503 11.718C10.1503 11.3908 10.2381 11.0697 10.4044 10.7882C10.5674 10.505 10.8073 10.2647 11.0961 10.0951C11.3756 9.92723 11.6956 9.83902 12.0215 9.84003C12.346 9.84003 12.6705 9.92559 12.9531 10.0951C13.2357 10.2577 13.4756 10.498 13.6378 10.7874C13.8043 11.069 13.8921 11.3903 13.8921 11.7176C13.8921 12.0449 13.8043 12.3662 13.6378 12.6478C13.4716 12.9329 13.236 13.171 12.9531 13.3401C12.6708 13.5067 12.3491 13.5946 12.0215 13.5946C11.6939 13.5946 11.3722 13.5067 11.0899 13.3401C10.8085 13.1691 10.5733 12.9313 10.4052 12.6478H10.4044ZM8.33704 16.8417V15.9783C8.33704 15.6042 8.56217 15.2573 9.00701 14.9462C9.45912 14.6497 9.96171 14.4388 10.4898 14.324C10.9727 14.1877 11.471 14.114 11.9726 14.1046C12.4733 14.1124 12.974 14.1824 13.4546 14.317C13.9809 14.4368 14.4823 14.6473 14.9366 14.9392C15.3814 15.2503 15.6066 15.5964 15.6066 15.9713V16.8347H8.33626V16.8417H8.33704Z" fill="white"/>
</g>
</g>
<defs>
<clipPath id="clip0_15207_78308">
<rect width="24" height="24" fill="white"/>
</clipPath>
</defs>
</svg>
