<svg width="24" height="24" viewBox="0 0 24 24" fill="none" xmlns="http://www.w3.org/2000/svg">
<g clip-path="url(#clip0_93_31658)">
<path fill-rule="evenodd" clip-rule="evenodd" d="M15.763 0L23 7.237V22C23 22.5304 22.7893 23.0391 22.4142 23.4142C22.0391 23.7893 21.5304 24 21 24H3C2.46957 24 1.96086 23.7893 1.58579 23.4142C1.21071 23.0391 1 22.5304 1 22V2C1 1.46957 1.21071 0.960859 1.58579 0.585786C1.96086 0.210714 2.46957 0 3 0L15.763 0Z" fill="#777777"/>
<path fill-rule="evenodd" clip-rule="evenodd" d="M17.7632 7.237C17.2328 7.237 16.724 7.02629 16.349 6.65121C15.9739 6.27614 15.7632 5.76743 15.7632 5.237V0L23.0002 7.237H17.7632Z" fill="white" fill-opacity="0.401"/>
<path d="M11.6362 17.2438C11.6362 16.5772 11.7596 15.9538 12.0062 15.3738C12.2529 14.7938 12.5929 14.3338 13.0262 13.9938C13.4596 13.6472 13.9429 13.4738 14.4762 13.4738C14.8162 13.4738 15.1329 13.5705 15.4262 13.7638C15.7262 13.9572 15.9662 14.2405 16.1462 14.6138C16.3329 14.9805 16.4262 15.4105 16.4262 15.9038V18.2538C16.4262 18.4605 16.3729 18.6172 16.2662 18.7238C16.1596 18.8305 16.0029 18.8838 15.7962 18.8838H15.7762C15.5696 18.8838 15.4129 18.8305 15.3062 18.7238C15.1996 18.6172 15.1462 18.4605 15.1462 18.2538V15.9038C15.1462 15.6305 15.0962 15.4072 14.9962 15.2338C14.8962 15.0538 14.7696 14.9238 14.6162 14.8438C14.4629 14.7572 14.3029 14.7138 14.1362 14.7138C13.8962 14.7138 13.6862 14.7638 13.5062 14.8638C13.3262 14.9638 13.1829 15.1338 13.0762 15.3738C12.9696 15.6138 12.9162 15.9372 12.9162 16.3438L11.6362 17.2438ZM12.9162 18.2538C12.9162 18.4605 12.8629 18.6172 12.7562 18.7238C12.6496 18.8305 12.4929 18.8838 12.2862 18.8838H12.2662C12.0596 18.8838 11.9029 18.8305 11.7962 18.7238C11.6896 18.6172 11.6362 18.4605 11.6362 18.2538V11.9338C11.6362 11.7272 11.6896 11.5705 11.7962 11.4638C11.9029 11.3572 12.0596 11.3038 12.2662 11.3038H12.2862C12.4929 11.3038 12.6496 11.3572 12.7562 11.4638C12.8629 11.5705 12.9162 11.7272 12.9162 11.9338V18.2538Z" fill="white"/>
<path d="M6.68778 18.1538C6.55445 17.9871 6.51445 17.8271 6.56778 17.6738C6.62111 17.5204 6.74111 17.4138 6.92778 17.3538L6.98778 17.3338C7.14778 17.2804 7.28111 17.2771 7.38778 17.3238C7.50111 17.3704 7.64111 17.4671 7.80778 17.6138C7.94778 17.7338 8.11445 17.8138 8.30778 17.8538C8.50111 17.8938 8.69111 17.8871 8.87778 17.8338C9.06445 17.7738 9.22445 17.6704 9.35778 17.5238C9.45111 17.4238 9.50111 17.3171 9.50778 17.2038C9.51445 17.0838 9.46778 16.9804 9.36778 16.8938C9.26778 16.8071 9.11778 16.7504 8.91778 16.7238L8.08778 16.6138C7.64778 16.5538 7.30111 16.3804 7.04778 16.0938C6.80111 15.8071 6.67445 15.4771 6.66778 15.1038C6.66778 14.7304 6.78778 14.4071 7.02778 14.1338C7.28778 13.8271 7.59445 13.6304 7.94778 13.5438C8.30778 13.4504 8.66778 13.4538 9.02778 13.5538C9.38778 13.6471 9.70445 13.8038 9.97778 14.0238C10.1444 14.1638 10.2178 14.3104 10.1978 14.4638C10.1844 14.6171 10.0944 14.7438 9.92778 14.8438L9.88778 14.8638C9.74111 14.9504 9.60445 14.9838 9.47778 14.9638C9.35111 14.9438 9.19778 14.8771 9.01778 14.7638C8.90445 14.6904 8.78445 14.6438 8.65778 14.6238C8.53111 14.6038 8.40445 14.6171 8.27778 14.6638C8.15778 14.7038 8.04778 14.7804 7.94778 14.8938C7.87445 14.9804 7.83445 15.0771 7.82778 15.1838C7.82778 15.2838 7.86111 15.3738 7.92778 15.4538C8.00111 15.5338 8.10778 15.5838 8.24778 15.6038L9.07778 15.7138C9.59111 15.7804 9.98111 15.9671 10.2478 16.2738C10.5211 16.5804 10.6544 16.9271 10.6478 17.3138C10.6411 17.7004 10.5111 18.0371 10.2578 18.3238C9.97111 18.6438 9.60111 18.8505 9.14778 18.9438C8.69445 19.0371 8.24111 19.0138 7.78778 18.8738C7.33445 18.7271 6.96778 18.4871 6.68778 18.1538Z" fill="white"/>
</g>
<defs>
<clipPath id="clip0_93_31658">
<rect width="24" height="24" fill="white"/>
</clipPath>
</defs>
</svg>
