<svg width="24" height="24" viewBox="0 0 24 24" fill="none" xmlns="http://www.w3.org/2000/svg">
<g clip-path="url(#clip0_93_31652)">
<path fill-rule="evenodd" clip-rule="evenodd" d="M15.763 0L23 7.237V22C23 22.5304 22.7893 23.0391 22.4142 23.4142C22.0391 23.7893 21.5304 24 21 24H3C2.46957 24 1.96086 23.7893 1.58579 23.4142C1.21071 23.0391 1 22.5304 1 22V2C1 1.46957 1.21071 0.960859 1.58579 0.585786C1.96086 0.210714 2.46957 0 3 0L15.763 0Z" fill="#4F5B93"/>
<path fill-rule="evenodd" clip-rule="evenodd" d="M17.7632 7.237C17.2328 7.237 16.724 7.02629 16.349 6.65121C15.9739 6.27614 15.7632 5.76743 15.7632 5.237V0L23.0002 7.237H17.7632Z" fill="white" fill-opacity="0.401"/>
<path d="M16.53 18.472C16.53 18.6427 16.4847 18.7734 16.394 18.864C16.3033 18.9547 16.1727 19 16.002 19H15.986C15.8153 19 15.6847 18.9547 15.594 18.864C15.5033 18.7734 15.458 18.6427 15.458 18.472V13.928C15.458 13.6507 15.53 13.44 15.674 13.296C15.8233 13.1467 16.0367 13.072 16.314 13.072H16.53V18.472ZM16.37 15.648H17.442C17.6233 15.648 17.778 15.6134 17.906 15.544C18.034 15.4747 18.13 15.3814 18.194 15.264C18.258 15.1467 18.29 15.016 18.29 14.872C18.29 14.728 18.258 14.6 18.194 14.488C18.13 14.3707 18.034 14.28 17.906 14.216C17.778 14.1467 17.6233 14.112 17.442 14.112H16.37V13.072H17.442C17.8047 13.072 18.1327 13.16 18.426 13.336C18.7193 13.5067 18.9487 13.7307 19.114 14.008C19.2793 14.2854 19.362 14.5734 19.362 14.872C19.362 15.1654 19.2793 15.4534 19.114 15.736C18.9487 16.0134 18.7193 16.2427 18.426 16.424C18.1327 16.6 17.8047 16.688 17.442 16.688H16.37V15.648Z" fill="white"/>
<path d="M10.5456 18.472C10.5456 18.6427 10.5003 18.7734 10.4096 18.864C10.319 18.9547 10.1883 19 10.0176 19H10.0016C9.83097 19 9.7003 18.9547 9.60963 18.864C9.51897 18.7734 9.47363 18.6427 9.47363 18.472V13.6C9.47363 13.4294 9.51897 13.2987 9.60963 13.208C9.7003 13.1174 9.83097 13.072 10.0016 13.072H10.0176C10.1883 13.072 10.319 13.1174 10.4096 13.208C10.5003 13.2987 10.5456 13.4294 10.5456 13.6V18.472ZM14.2416 18.472C14.2416 18.6427 14.1963 18.7734 14.1056 18.864C14.015 18.9547 13.8843 19 13.7136 19H13.6976C13.527 19 13.3963 18.9547 13.3056 18.864C13.215 18.7734 13.1696 18.6427 13.1696 18.472V13.6C13.1696 13.4294 13.215 13.2987 13.3056 13.208C13.3963 13.1174 13.527 13.072 13.6976 13.072H13.7136C13.8843 13.072 14.015 13.1174 14.1056 13.208C14.1963 13.2987 14.2416 13.4294 14.2416 13.6V18.472ZM13.7136 16.464H10.0256V15.424H13.7136V16.464Z" fill="white"/>
<path d="M5.7097 18.472C5.7097 18.6427 5.66436 18.7734 5.5737 18.864C5.48303 18.9547 5.35236 19 5.1817 19H5.1657C4.99503 19 4.86436 18.9547 4.7737 18.864C4.68303 18.7734 4.6377 18.6427 4.6377 18.472V13.928C4.6377 13.6507 4.7097 13.44 4.8537 13.296C5.00303 13.1467 5.21636 13.072 5.4937 13.072H5.7097V18.472ZM5.5497 15.648H6.6217C6.80303 15.648 6.9577 15.6134 7.0857 15.544C7.2137 15.4747 7.3097 15.3814 7.3737 15.264C7.4377 15.1467 7.4697 15.016 7.4697 14.872C7.4697 14.728 7.4377 14.6 7.3737 14.488C7.3097 14.3707 7.2137 14.28 7.0857 14.216C6.9577 14.1467 6.80303 14.112 6.6217 14.112H5.5497V13.072H6.6217C6.98436 13.072 7.31236 13.16 7.6057 13.336C7.89903 13.5067 8.12836 13.7307 8.2937 14.008C8.45903 14.2854 8.5417 14.5734 8.5417 14.872C8.5417 15.1654 8.45903 15.4534 8.2937 15.736C8.12836 16.0134 7.89903 16.2427 7.6057 16.424C7.31236 16.6 6.98436 16.688 6.6217 16.688H5.5497V15.648Z" fill="white"/>
</g>
<defs>
<clipPath id="clip0_93_31652">
<rect width="24" height="24" fill="white"/>
</clipPath>
</defs>
</svg>
