<svg width="24" height="24" viewBox="0 0 24 24" fill="none" xmlns="http://www.w3.org/2000/svg">
<g clip-path="url(#clip0_93_31623)">
<path fill-rule="evenodd" clip-rule="evenodd" d="M15.763 0L23 7.237V22C23 22.5304 22.7893 23.0391 22.4142 23.4142C22.0391 23.7893 21.5304 24 21 24H3C2.46957 24 1.96086 23.7893 1.58579 23.4142C1.21071 23.0391 1 22.5304 1 22V2C1 1.46957 1.21071 0.960859 1.58579 0.585786C1.96086 0.210714 2.46957 0 3 0L15.763 0Z" fill="#6B7EEF"/>
<path fill-rule="evenodd" clip-rule="evenodd" d="M17.7632 7.237C17.2328 7.237 16.724 7.02629 16.349 6.65121C15.9739 6.27614 15.7632 5.76743 15.7632 5.237V0L23.0002 7.237H17.7632Z" fill="white" fill-opacity="0.401"/>
<path d="M14.119 10.8311H6.74805C6.19576 10.8311 5.74805 11.2788 5.74805 11.8311V18.1421C5.74805 18.6943 6.19576 19.1421 6.74805 19.1421H14.119C14.6713 19.1421 15.119 18.6943 15.119 18.1421V11.8311C15.119 11.2788 14.6713 10.8311 14.119 10.8311Z" fill="white"/>
<path opacity="0.702" fill-rule="evenodd" clip-rule="evenodd" d="M11.742 15.828L16.712 19.022C16.8631 19.119 17.0375 19.1735 17.2169 19.1798C17.3964 19.186 17.5742 19.1439 17.7317 19.0578C17.8892 18.9717 18.0207 18.8447 18.1122 18.6903C18.2038 18.5358 18.252 18.3596 18.252 18.18V11.793C18.2519 11.6136 18.2034 11.4375 18.1118 11.2832C18.0202 11.1289 17.8888 11.0021 17.7313 10.916C17.5738 10.83 17.396 10.788 17.2167 10.7943C17.0373 10.8007 16.863 10.8551 16.712 10.952L11.742 14.145C11.601 14.2356 11.485 14.3601 11.4047 14.5071C11.3243 14.6541 11.2822 14.819 11.2822 14.9865C11.2822 15.1541 11.3243 15.3189 11.4047 15.466C11.485 15.613 11.601 15.7375 11.742 15.828Z" fill="white"/>
</g>
<defs>
<clipPath id="clip0_93_31623">
<rect width="24" height="24" fill="white"/>
</clipPath>
</defs>
</svg>
