<svg width="24" height="24" viewBox="0 0 24 24" fill="none" xmlns="http://www.w3.org/2000/svg">
<g clip-path="url(#clip0_93_31646)">
<path fill-rule="evenodd" clip-rule="evenodd" d="M15.763 0L23 7.237V22C23 22.5304 22.7893 23.0391 22.4142 23.4142C22.0391 23.7893 21.5304 24 21 24H3C2.46957 24 1.96086 23.7893 1.58579 23.4142C1.21071 23.0391 1 22.5304 1 22V2C1 1.46957 1.21071 0.960859 1.58579 0.585786C1.96086 0.210714 2.46957 0 3 0L15.763 0Z" fill="#FFA703"/>
<path fill-rule="evenodd" clip-rule="evenodd" d="M17.7632 7.237C17.2328 7.237 16.724 7.02629 16.349 6.65121C15.9739 6.27614 15.7632 5.76743 15.7632 5.237V0L23.0002 7.237H17.7632Z" fill="white" fill-opacity="0.401"/>
<path d="M12.0654 17.4799C11.9654 17.2799 11.962 17.1099 12.0554 16.9699C12.1487 16.8233 12.3054 16.7333 12.5254 16.6999L12.5954 16.6899C12.7754 16.6633 12.922 16.6899 13.0354 16.7699C13.1487 16.8433 13.2687 16.9733 13.3954 17.1599C13.5687 17.4133 13.8154 17.5966 14.1354 17.7099C14.462 17.8166 14.7887 17.8266 15.1154 17.7399C15.4487 17.6533 15.7087 17.4699 15.8954 17.1899C16.0154 17.0099 16.0787 16.8299 16.0854 16.6499C16.092 16.4633 16.0387 16.2966 15.9254 16.1499C15.8187 16.0033 15.6654 15.8933 15.4654 15.8199C15.312 15.7666 15.0187 15.7099 14.5854 15.6499C14.4987 15.6433 14.2654 15.6099 13.8854 15.5499C13.3987 15.4633 13.002 15.2233 12.6954 14.8299C12.3887 14.4299 12.2354 13.9766 12.2354 13.4699C12.2354 12.9633 12.4087 12.5199 12.7554 12.1399C13.0887 11.7666 13.512 11.5266 14.0254 11.4199C14.5454 11.3066 15.0587 11.3399 15.5654 11.5199C16.0787 11.6999 16.4987 12.0133 16.8254 12.4599C16.9587 12.6466 16.9954 12.8199 16.9354 12.9799C16.8754 13.1333 16.7454 13.2499 16.5454 13.3299L16.4954 13.3499C16.3154 13.4233 16.1587 13.4333 16.0254 13.3799C15.892 13.3199 15.752 13.2033 15.6054 13.0299C15.432 12.8299 15.232 12.6966 15.0054 12.6299C14.7787 12.5633 14.552 12.5633 14.3254 12.6299C14.1054 12.6966 13.9154 12.8199 13.7554 12.9999C13.6087 13.1599 13.5354 13.3399 13.5354 13.5399C13.5354 13.7333 13.5987 13.9099 13.7254 14.0699C13.852 14.2233 14.0187 14.3266 14.2254 14.3799C14.2987 14.3999 14.3954 14.4199 14.5154 14.4399C14.6354 14.4533 14.7554 14.4666 14.8754 14.4799C15.342 14.5199 15.6954 14.5833 15.9354 14.6699C16.442 14.8566 16.822 15.1299 17.0754 15.4899C17.3354 15.8499 17.4587 16.2499 17.4454 16.6899C17.4387 17.1233 17.2987 17.5366 17.0254 17.9299C16.6654 18.4633 16.142 18.7966 15.4554 18.9299C14.7754 19.0633 14.1087 18.9966 13.4554 18.7299C12.8087 18.4633 12.3454 18.0466 12.0654 17.4799Z" fill="white"/>
<path d="M10.7769 16.5399C10.7769 17.0132 10.6803 17.4365 10.4869 17.8099C10.3003 18.1832 10.0369 18.4765 9.69693 18.6899C9.35693 18.8965 8.96693 18.9999 8.52693 18.9999C8.14026 18.9999 7.78359 18.8932 7.45693 18.6799C7.13026 18.4665 6.86359 18.1799 6.65693 17.8199C6.54359 17.6265 6.52359 17.4532 6.59693 17.2999C6.67026 17.1465 6.81026 17.0399 7.01693 16.9799L7.06693 16.9699C7.25359 16.9165 7.40693 16.9232 7.52693 16.9899C7.65359 17.0565 7.78026 17.1832 7.90693 17.3699C7.98693 17.4832 8.07693 17.5665 8.17693 17.6199C8.28359 17.6732 8.40026 17.6999 8.52693 17.6999C8.85359 17.6999 9.08693 17.6132 9.22693 17.4399C9.36693 17.2599 9.43693 16.9599 9.43693 16.5399V12.1399C9.43693 11.9265 9.49359 11.7632 9.60693 11.6499C9.72026 11.5365 9.88359 11.4799 10.0969 11.4799H10.1169C10.3303 11.4799 10.4936 11.5365 10.6069 11.6499C10.7203 11.7632 10.7769 11.9265 10.7769 12.1399V16.5399Z" fill="white"/>
</g>
<defs>
<clipPath id="clip0_93_31646">
<rect width="24" height="24" fill="white"/>
</clipPath>
</defs>
</svg>
