<svg width="24" height="24" viewBox="0 0 24 24" fill="none" xmlns="http://www.w3.org/2000/svg">
<g clip-path="url(#clip0_93_31647)">
<path fill-rule="evenodd" clip-rule="evenodd" d="M15.763 0L23 7.237V22C23 22.5304 22.7893 23.0391 22.4142 23.4142C22.0391 23.7893 21.5304 24 21 24H3C2.46957 24 1.96086 23.7893 1.58579 23.4142C1.21071 23.0391 1 22.5304 1 22V2C1 1.46957 1.21071 0.960859 1.58579 0.585786C1.96086 0.210714 2.46957 0 3 0L15.763 0Z" fill="#3388FF"/>
<path fill-rule="evenodd" clip-rule="evenodd" d="M17.7632 7.237C17.2328 7.237 16.724 7.02629 16.349 6.65121C15.9739 6.27614 15.7632 5.76743 15.7632 5.237V0L23.0002 7.237H17.7632Z" fill="white" fill-opacity="0.401"/>
<path d="M20.8507 18.496C20.8507 18.6614 20.808 18.7867 20.7227 18.872C20.6373 18.9574 20.512 19 20.3467 19H20.3307C20.1653 19 20.04 18.9574 19.9547 18.872C19.8693 18.7867 19.8267 18.6614 19.8267 18.496V13.44C19.8267 13.2747 19.8693 13.1494 19.9547 13.064C20.04 12.9787 20.1653 12.936 20.3307 12.936H20.3467C20.512 12.936 20.6373 12.9787 20.7227 13.064C20.808 13.1494 20.8507 13.2747 20.8507 13.44V18.496Z" fill="white"/>
<path d="M13.4674 18.496C13.4674 18.6613 13.4247 18.7867 13.3394 18.872C13.254 18.9573 13.1287 19 12.9634 19H12.9474C12.782 19 12.6567 18.9573 12.5714 18.872C12.486 18.7867 12.4434 18.6613 12.4434 18.496V15.264C12.4434 15.0987 12.486 14.9733 12.5714 14.888C12.6567 14.8027 12.782 14.76 12.9474 14.76H12.9634C13.1287 14.76 13.254 14.8027 13.3394 14.888C13.4247 14.9733 13.4674 15.0987 13.4674 15.264V18.496ZM12.4434 17.688C12.4434 17.1547 12.542 16.656 12.7394 16.192C12.9367 15.728 13.2087 15.36 13.5554 15.088C13.902 14.8107 14.2887 14.672 14.7154 14.672C14.982 14.672 15.2247 14.7493 15.4434 14.904C15.662 15.0587 15.8354 15.2827 15.9634 15.576C16.0914 15.8693 16.1554 16.216 16.1554 16.616V18.496C16.1554 18.6613 16.1127 18.7867 16.0274 18.872C15.942 18.9573 15.8167 19 15.6514 19H15.6354C15.47 19 15.3447 18.9573 15.2594 18.872C15.174 18.7867 15.1314 18.6613 15.1314 18.496V16.616C15.1314 16.392 15.0994 16.2107 15.0354 16.072C14.9767 15.928 14.894 15.824 14.7874 15.76C14.686 15.696 14.5714 15.664 14.4434 15.664C14.2514 15.664 14.0834 15.704 13.9394 15.784C13.7954 15.864 13.6807 16 13.5954 16.192C13.51 16.384 13.4674 16.6427 13.4674 16.968L12.4434 17.688ZM15.1314 17.688C15.1314 17.1547 15.23 16.656 15.4274 16.192C15.6247 15.728 15.8967 15.36 16.2434 15.088C16.59 14.8107 16.9767 14.672 17.4034 14.672C17.67 14.672 17.9127 14.7493 18.1314 14.904C18.35 15.0587 18.5234 15.2827 18.6514 15.576C18.7794 15.8693 18.8434 16.216 18.8434 16.616V18.496C18.8434 18.6613 18.8007 18.7867 18.7154 18.872C18.63 18.9573 18.5047 19 18.3394 19H18.3234C18.158 19 18.0327 18.9573 17.9474 18.872C17.862 18.7867 17.8194 18.6613 17.8194 18.496V16.616C17.8194 16.392 17.7874 16.2107 17.7234 16.072C17.6647 15.928 17.582 15.824 17.4754 15.76C17.374 15.696 17.2594 15.664 17.1314 15.664C16.9394 15.664 16.7714 15.704 16.6274 15.784C16.4834 15.864 16.3687 16 16.2834 16.192C16.198 16.384 16.1554 16.6427 16.1554 16.968L15.1314 17.688Z" fill="white"/>
<path d="M11.1976 17.976C11.363 18.0026 11.4856 18.056 11.5656 18.136C11.6456 18.216 11.6856 18.3306 11.6856 18.48V18.496C11.6856 18.656 11.6403 18.7813 11.5496 18.872C11.459 18.9573 11.3336 18.992 11.1736 18.976C10.619 18.912 10.211 18.7386 9.94963 18.456C9.68829 18.168 9.55763 17.7813 9.55763 17.296V13.912C9.55763 13.7466 9.60029 13.6213 9.68563 13.536C9.77096 13.4506 9.89629 13.408 10.0616 13.408H10.0776C10.243 13.408 10.3683 13.4506 10.4536 13.536C10.539 13.6213 10.5816 13.7466 10.5816 13.912V17.136C10.5816 17.3173 10.5976 17.464 10.6296 17.576C10.667 17.688 10.7283 17.776 10.8136 17.84C10.9043 17.904 11.0323 17.9493 11.1976 17.976ZM11.2136 14.76C11.3683 14.76 11.4856 14.8 11.5656 14.88C11.6456 14.96 11.6856 15.0773 11.6856 15.232V15.24C11.6856 15.3893 11.6456 15.5066 11.5656 15.592C11.4856 15.672 11.3683 15.712 11.2136 15.712H9.23763C9.08829 15.712 8.97096 15.672 8.88563 15.592C8.80563 15.5066 8.76562 15.3893 8.76562 15.24V15.232C8.76562 15.0773 8.80563 14.96 8.88563 14.88C8.97096 14.8 9.08829 14.76 9.23763 14.76H11.2136Z" fill="white"/>
<path d="M4.22141 18.472C4.22141 18.6427 4.17608 18.7734 4.08541 18.864C3.99475 18.9547 3.86408 19 3.69341 19H3.67741C3.50675 19 3.37608 18.9547 3.28541 18.864C3.19475 18.7734 3.14941 18.6427 3.14941 18.472V13.6C3.14941 13.4294 3.19475 13.2987 3.28541 13.208C3.37608 13.1174 3.50675 13.072 3.67741 13.072H3.69341C3.86408 13.072 3.99475 13.1174 4.08541 13.208C4.17608 13.2987 4.22141 13.4294 4.22141 13.6V18.472ZM7.91741 18.472C7.91741 18.6427 7.87208 18.7734 7.78141 18.864C7.69075 18.9547 7.56008 19 7.38941 19H7.37341C7.20275 19 7.07208 18.9547 6.98141 18.864C6.89075 18.7734 6.84541 18.6427 6.84541 18.472V13.6C6.84541 13.4294 6.89075 13.2987 6.98141 13.208C7.07208 13.1174 7.20275 13.072 7.37341 13.072H7.38941C7.56008 13.072 7.69075 13.1174 7.78141 13.208C7.87208 13.2987 7.91741 13.4294 7.91741 13.6V18.472ZM7.38941 16.464H3.70141V15.424H7.38941V16.464Z" fill="white"/>
</g>
<defs>
<clipPath id="clip0_93_31647">
<rect width="24" height="24" fill="white"/>
</clipPath>
</defs>
</svg>
