<svg width="24" height="24" viewBox="0 0 24 24" fill="none" xmlns="http://www.w3.org/2000/svg">
<g clip-path="url(#clip0_93_31644)">
<path fill-rule="evenodd" clip-rule="evenodd" d="M15.763 0L23 7.237V22C23 22.5304 22.7893 23.0391 22.4142 23.4142C22.0391 23.7893 21.5304 24 21 24H3C2.46957 24 1.96086 23.7893 1.58579 23.4142C1.21071 23.0391 1 22.5304 1 22V2C1 1.46957 1.21071 0.960859 1.58579 0.585786C1.96086 0.210714 2.46957 0 3 0L15.763 0Z" fill="#FF1164"/>
<path fill-rule="evenodd" clip-rule="evenodd" d="M17.7632 7.237C17.2328 7.237 16.724 7.02629 16.349 6.65121C15.9739 6.27614 15.7632 5.76743 15.7632 5.237V0L23.0002 7.237H17.7632Z" fill="white" fill-opacity="0.401"/>
<path d="M19.0552 14.884C19.0552 14.756 19.0892 14.658 19.1572 14.59C19.2252 14.522 19.3232 14.488 19.4512 14.488H19.4632C19.5912 14.488 19.6892 14.522 19.7572 14.59C19.8252 14.658 19.8592 14.756 19.8592 14.884V18.514C19.8592 18.65 19.8272 18.754 19.7632 18.826C19.7032 18.898 19.6172 18.934 19.5052 18.934H19.4752C19.3592 18.934 19.2612 18.912 19.1812 18.868C19.1012 18.824 19.0312 18.754 18.9712 18.658L17.2552 15.952V18.538C17.2552 18.666 17.2212 18.764 17.1532 18.832C17.0852 18.9 16.9872 18.934 16.8592 18.934H16.8472C16.7192 18.934 16.6212 18.9 16.5532 18.832C16.4852 18.764 16.4512 18.666 16.4512 18.538V14.908C16.4512 14.772 16.4812 14.668 16.5412 14.596C16.6052 14.524 16.6952 14.488 16.8112 14.488H16.8352C16.9512 14.488 17.0492 14.51 17.1292 14.554C17.2092 14.598 17.2792 14.668 17.3392 14.764L19.0552 17.47V14.884Z" fill="white"/>
<path d="M13.4414 18.2381C13.7294 18.2381 13.9834 18.1741 14.2034 18.0461C14.4274 17.9181 14.6014 17.7401 14.7254 17.5121C14.8494 17.2801 14.9114 17.0161 14.9114 16.7201C14.9114 16.4241 14.8494 16.1601 14.7254 15.9281C14.6014 15.6961 14.4274 15.5141 14.2034 15.3821C13.9794 15.2501 13.7254 15.1841 13.4414 15.1841C13.1574 15.1841 12.9034 15.2501 12.6794 15.3821C12.4554 15.5141 12.2814 15.6961 12.1574 15.9281C12.0334 16.1601 11.9714 16.4241 11.9714 16.7201C11.9714 17.0161 12.0334 17.2801 12.1574 17.5121C12.2814 17.7401 12.4534 17.9181 12.6734 18.0461C12.8974 18.1741 13.1534 18.2381 13.4414 18.2381ZM13.4414 19.0001C13.0254 19.0001 12.6414 18.8981 12.2894 18.6941C11.9414 18.4901 11.6634 18.2141 11.4554 17.8661C11.2514 17.5181 11.1494 17.1361 11.1494 16.7201C11.1494 16.3041 11.2514 15.9201 11.4554 15.5681C11.6634 15.2161 11.9434 14.9381 12.2954 14.7341C12.6474 14.5261 13.0294 14.4221 13.4414 14.4221C13.8534 14.4221 14.2354 14.5261 14.5874 14.7341C14.9394 14.9381 15.2174 15.2161 15.4214 15.5681C15.6294 15.9201 15.7334 16.3041 15.7334 16.7201C15.7334 17.1361 15.6294 17.5181 15.4214 17.8661C15.2174 18.2141 14.9394 18.4901 14.5874 18.6941C14.2394 18.8981 13.8574 19.0001 13.4414 19.0001Z" fill="white"/>
<path d="M7.44792 18.0881C7.38792 17.9681 7.38592 17.8661 7.44192 17.7821C7.49792 17.6941 7.59192 17.6401 7.72392 17.6201L7.76592 17.6141C7.87392 17.5981 7.96192 17.6141 8.02992 17.6621C8.09792 17.7061 8.16992 17.7841 8.24592 17.8961C8.34992 18.0481 8.49792 18.1581 8.68992 18.2261C8.88592 18.2901 9.08192 18.2961 9.27792 18.2441C9.47792 18.1921 9.63392 18.0821 9.74592 17.9141C9.81792 17.8061 9.85592 17.6981 9.85992 17.5901C9.86392 17.4781 9.83192 17.3781 9.76392 17.2901C9.69992 17.2021 9.60792 17.1361 9.48792 17.0921C9.39592 17.0601 9.21992 17.0261 8.95992 16.9901C8.90792 16.9861 8.76792 16.9661 8.53992 16.9301C8.24792 16.8781 8.00992 16.7341 7.82592 16.4981C7.64192 16.2581 7.54992 15.9861 7.54992 15.6821C7.54992 15.3781 7.65392 15.1121 7.86192 14.8841C8.06192 14.6601 8.31592 14.5161 8.62392 14.4521C8.93592 14.3841 9.24392 14.4041 9.54792 14.5121C9.85592 14.6201 10.1079 14.8081 10.3039 15.0761C10.3839 15.1881 10.4059 15.2921 10.3699 15.3881C10.3339 15.4801 10.2559 15.5501 10.1359 15.5981L10.1059 15.6101C9.99792 15.6541 9.90392 15.6601 9.82392 15.6281C9.74392 15.5921 9.65992 15.5221 9.57192 15.4181C9.46792 15.2981 9.34792 15.2181 9.21192 15.1781C9.07592 15.1381 8.93992 15.1381 8.80392 15.1781C8.67192 15.2181 8.55792 15.2921 8.46192 15.4001C8.37392 15.4961 8.32992 15.6041 8.32992 15.7241C8.32992 15.8401 8.36792 15.9461 8.44392 16.0421C8.51992 16.1341 8.61992 16.1961 8.74392 16.2281C8.78792 16.2401 8.84592 16.2521 8.91792 16.2641C8.98992 16.2721 9.06192 16.2801 9.13392 16.2881C9.41392 16.3121 9.62592 16.3501 9.76992 16.4021C10.0739 16.5141 10.3019 16.6781 10.4539 16.8941C10.6099 17.1101 10.6839 17.3501 10.6759 17.6141C10.6719 17.8741 10.5879 18.1221 10.4239 18.3581C10.2079 18.6781 9.89392 18.8781 9.48192 18.9581C9.07392 19.0381 8.67392 18.9981 8.28192 18.8381C7.89392 18.6781 7.61592 18.4281 7.44792 18.0881Z" fill="white"/>
<path d="M6.67455 17.524C6.67455 17.808 6.61655 18.062 6.50055 18.286C6.38855 18.51 6.23055 18.686 6.02655 18.814C5.82255 18.938 5.58855 19 5.32455 19C5.09255 19 4.87855 18.936 4.68255 18.808C4.48655 18.68 4.32655 18.508 4.20255 18.292C4.13455 18.176 4.12255 18.072 4.16655 17.98C4.21055 17.888 4.29455 17.824 4.41855 17.788L4.44855 17.782C4.56055 17.75 4.65255 17.754 4.72455 17.794C4.80055 17.834 4.87655 17.91 4.95255 18.022C5.00055 18.09 5.05455 18.14 5.11455 18.172C5.17855 18.204 5.24855 18.22 5.32455 18.22C5.52055 18.22 5.66055 18.168 5.74455 18.064C5.82855 17.956 5.87055 17.776 5.87055 17.524V14.884C5.87055 14.756 5.90455 14.658 5.97255 14.59C6.04055 14.522 6.13855 14.488 6.26655 14.488H6.27855C6.40655 14.488 6.50455 14.522 6.57255 14.59C6.64055 14.658 6.67455 14.756 6.67455 14.884V17.524Z" fill="white"/>
</g>
<defs>
<clipPath id="clip0_93_31644">
<rect width="24" height="24" fill="white"/>
</clipPath>
</defs>
</svg>
