<svg width="24" height="24" viewBox="0 0 24 24" fill="none" xmlns="http://www.w3.org/2000/svg">
<g clip-path="url(#clip0_93_31651)">
<path fill-rule="evenodd" clip-rule="evenodd" d="M15.763 0L23 7.237V22C23 22.5304 22.7893 23.0391 22.4142 23.4142C22.0391 23.7893 21.5304 24 21 24H3C2.46957 24 1.96086 23.7893 1.58579 23.4142C1.21071 23.0391 1 22.5304 1 22V2C1 1.46957 1.21071 0.960859 1.58579 0.585786C1.96086 0.210714 2.46957 0 3 0L15.763 0Z" fill="#097AAD"/>
<path fill-rule="evenodd" clip-rule="evenodd" d="M17.7632 7.237C17.2328 7.237 16.724 7.02629 16.349 6.65121C15.9739 6.27614 15.7632 5.76743 15.7632 5.237V0L23.0002 7.237H17.7632Z" fill="white" fill-opacity="0.401"/>
<path d="M19.1947 17.3996C19.1947 17.5133 19.1654 17.5995 19.1067 17.6581C19.0481 17.7168 18.9619 17.7461 18.8482 17.7461H18.8372C18.7236 17.7461 18.6374 17.7168 18.5787 17.6581C18.5201 17.5995 18.4907 17.5133 18.4907 17.3996V15.1776C18.4907 15.064 18.5201 14.9778 18.5787 14.9191C18.6374 14.8605 18.7236 14.8311 18.8372 14.8311H18.8482C18.9619 14.8311 19.0481 14.8605 19.1067 14.9191C19.1654 14.9778 19.1947 15.064 19.1947 15.1776V17.3996ZM18.4907 16.8441C18.4907 16.4775 18.5586 16.1346 18.6942 15.8156C18.8299 15.4966 19.0169 15.2436 19.2552 15.0566C19.4936 14.866 19.7594 14.7706 20.0527 14.7706C20.2397 14.7706 20.4139 14.8238 20.5752 14.9301C20.7402 15.0365 20.8722 15.1923 20.9712 15.3976C21.0739 15.5993 21.1252 15.8358 21.1252 16.1071V17.3996C21.1252 17.5133 21.0959 17.5995 21.0372 17.6581C20.9786 17.7168 20.8924 17.7461 20.7787 17.7461H20.7677C20.6541 17.7461 20.5679 17.7168 20.5092 17.6581C20.4506 17.5995 20.4212 17.5133 20.4212 17.3996V16.1071C20.4212 15.9568 20.3937 15.834 20.3387 15.7386C20.2837 15.6396 20.2141 15.5681 20.1297 15.5241C20.0454 15.4765 19.9574 15.4526 19.8657 15.4526C19.7337 15.4526 19.6182 15.4801 19.5192 15.5351C19.4202 15.5901 19.3414 15.6836 19.2827 15.8156C19.2241 15.9476 19.1947 16.1255 19.1947 16.3491L18.4907 16.8441Z" fill="white"/>
<path d="M16.4028 17.1576C16.5641 17.1576 16.7053 17.121 16.8263 17.0476C16.9473 16.9743 17.0389 16.8716 17.1013 16.7396C17.1673 16.6076 17.2003 16.4573 17.2003 16.2886C17.2003 16.1163 17.1673 15.966 17.1013 15.8376C17.0389 15.7056 16.9473 15.603 16.8263 15.5296C16.7053 15.4563 16.5641 15.4196 16.4028 15.4196C16.2414 15.4196 16.1003 15.4563 15.9793 15.5296C15.8583 15.603 15.7648 15.7056 15.6988 15.8376C15.6364 15.966 15.6053 16.1163 15.6053 16.2886C15.6053 16.4573 15.6383 16.6076 15.7043 16.7396C15.7703 16.8716 15.8619 16.9743 15.9793 17.0476C16.1003 17.121 16.2414 17.1576 16.4028 17.1576ZM16.4028 17.8066C16.1278 17.8066 15.8729 17.7388 15.6383 17.6031C15.4073 17.4638 15.2239 17.2786 15.0883 17.0476C14.9526 16.813 14.8848 16.56 14.8848 16.2886C14.8848 16.0136 14.9526 15.7606 15.0883 15.5296C15.2276 15.295 15.4128 15.1098 15.6438 14.9741C15.8784 14.8385 16.1314 14.7706 16.4028 14.7706C16.6778 14.7706 16.9308 14.8385 17.1618 14.9741C17.3964 15.1098 17.5816 15.295 17.7173 15.5296C17.8529 15.7606 17.9208 16.0136 17.9208 16.2886C17.9208 16.56 17.8529 16.813 17.7173 17.0476C17.5816 17.2786 17.3964 17.4638 17.1618 17.6031C16.9308 17.7388 16.6778 17.8066 16.4028 17.8066Z" fill="white"/>
<path d="M11.6802 16.8441C11.6802 16.4775 11.748 16.1346 11.8837 15.8156C12.0193 15.4966 12.2063 15.2436 12.4447 15.0566C12.683 14.866 12.9488 14.7706 13.2422 14.7706C13.4292 14.7706 13.6033 14.8238 13.7647 14.9301C13.9297 15.0365 14.0617 15.1923 14.1607 15.3976C14.2633 15.5993 14.3147 15.8358 14.3147 16.1071V17.3996C14.3147 17.5133 14.2853 17.5995 14.2267 17.6581C14.168 17.7168 14.0818 17.7461 13.9682 17.7461H13.9572C13.8435 17.7461 13.7573 17.7168 13.6987 17.6581C13.64 17.5995 13.6107 17.5133 13.6107 17.3996V16.1071C13.6107 15.9568 13.5832 15.834 13.5282 15.7386C13.4732 15.6396 13.4035 15.5681 13.3192 15.5241C13.2348 15.4765 13.1468 15.4526 13.0552 15.4526C12.9232 15.4526 12.8077 15.4801 12.7087 15.5351C12.6097 15.5901 12.5308 15.6836 12.4722 15.8156C12.4135 15.9476 12.3842 16.1255 12.3842 16.3491L11.6802 16.8441ZM12.3842 17.3996C12.3842 17.5133 12.3548 17.5995 12.2962 17.6581C12.2375 17.7168 12.1513 17.7461 12.0377 17.7461H12.0267C11.913 17.7461 11.8268 17.7168 11.7682 17.6581C11.7095 17.5995 11.6802 17.5133 11.6802 17.3996V13.9236C11.6802 13.81 11.7095 13.7238 11.7682 13.6651C11.8268 13.6065 11.913 13.5771 12.0267 13.5771H12.0377C12.1513 13.5771 12.2375 13.6065 12.2962 13.6651C12.3548 13.7238 12.3842 13.81 12.3842 13.9236V17.3996Z" fill="white"/>
<path d="M10.8239 17.0421C10.9375 17.0604 11.0219 17.0971 11.0769 17.1521C11.1319 17.2071 11.1594 17.2859 11.1594 17.3886V17.3996C11.1594 17.5096 11.1282 17.5958 11.0659 17.6581C11.0035 17.7168 10.9174 17.7406 10.8074 17.7296C10.426 17.6856 10.1455 17.5664 9.96586 17.3721C9.78619 17.1741 9.69636 16.9083 9.69636 16.5746V14.2481C9.69636 14.1344 9.72569 14.0483 9.78436 13.9896C9.84302 13.9309 9.92919 13.9016 10.0429 13.9016H10.0539C10.1675 13.9016 10.2537 13.9309 10.3124 13.9896C10.371 14.0483 10.4004 14.1344 10.4004 14.2481V16.4646C10.4004 16.5893 10.4114 16.6901 10.4334 16.7671C10.459 16.8441 10.5012 16.9046 10.5599 16.9486C10.6222 16.9926 10.7102 17.0238 10.8239 17.0421ZM10.8349 14.8311C10.9412 14.8311 11.0219 14.8586 11.0769 14.9136C11.1319 14.9686 11.1594 15.0493 11.1594 15.1556V15.1611C11.1594 15.2638 11.1319 15.3444 11.0769 15.4031C11.0219 15.4581 10.9412 15.4856 10.8349 15.4856H9.47636C9.37369 15.4856 9.29302 15.4581 9.23436 15.4031C9.17936 15.3444 9.15186 15.2638 9.15186 15.1611V15.1556C9.15186 15.0493 9.17936 14.9686 9.23436 14.9136C9.29302 14.8586 9.37369 14.8311 9.47636 14.8311H10.8349Z" fill="white"/>
<path d="M7.10889 17.6911L6.05839 15.2381C6.00706 15.1207 6.01073 15.0236 6.06939 14.9466C6.12806 14.8696 6.21973 14.8311 6.34439 14.8311H6.35539C6.55339 14.8311 6.68723 14.9209 6.75689 15.1006L7.75789 17.5921L7.10889 17.6911ZM7.30689 18.7361C7.27023 18.8277 7.21889 18.8937 7.15289 18.9341C7.08689 18.9781 7.00439 19.0001 6.90539 19.0001H6.86689C6.73489 19.0001 6.64323 18.9634 6.59189 18.8901C6.54423 18.8167 6.54606 18.7196 6.59739 18.5986L8.09339 15.0951C8.16673 14.9191 8.30239 14.8311 8.50039 14.8311H8.51139C8.63606 14.8311 8.72773 14.8696 8.78639 14.9466C8.84873 15.0199 8.85423 15.1152 8.80289 15.2326L7.30689 18.7361Z" fill="white"/>
<path d="M3.70184 17.3832C3.70184 17.5005 3.67068 17.5903 3.60834 17.6527C3.54601 17.715 3.45618 17.7462 3.33884 17.7462H3.32784C3.21051 17.7462 3.12068 17.715 3.05834 17.6527C2.99601 17.5903 2.96484 17.5005 2.96484 17.3832V14.2592C2.96484 14.0685 3.01434 13.9237 3.11334 13.8247C3.21601 13.722 3.36268 13.6707 3.55334 13.6707H3.70184V17.3832ZM3.59184 15.4417H4.32884C4.45351 15.4417 4.55984 15.4178 4.64784 15.3702C4.73584 15.3225 4.80184 15.2583 4.84584 15.1777C4.88984 15.097 4.91184 15.0072 4.91184 14.9082C4.91184 14.8092 4.88984 14.7212 4.84584 14.6442C4.80184 14.5635 4.73584 14.5012 4.64784 14.4572C4.55984 14.4095 4.45351 14.3857 4.32884 14.3857H3.59184V13.6707H4.32884C4.57818 13.6707 4.80368 13.7312 5.00534 13.8522C5.20701 13.9695 5.36468 14.1235 5.47834 14.3142C5.59201 14.5048 5.64884 14.7028 5.64884 14.9082C5.64884 15.1098 5.59201 15.3078 5.47834 15.5022C5.36468 15.6928 5.20701 15.8505 5.00534 15.9752C4.80368 16.0962 4.57818 16.1567 4.32884 16.1567H3.59184V15.4417Z" fill="white"/>
</g>
<defs>
<clipPath id="clip0_93_31651">
<rect width="24" height="24" fill="white"/>
</clipPath>
</defs>
</svg>
