<svg width="24" height="24" viewBox="0 0 24 24" fill="none" xmlns="http://www.w3.org/2000/svg">
<g clip-path="url(#clip0_93_31635)">
<path fill-rule="evenodd" clip-rule="evenodd" d="M15.763 0L23 7.237V22C23 22.5304 22.7893 23.0391 22.4142 23.4142C22.0391 23.7893 21.5304 24 21 24H3C2.46957 24 1.96086 23.7893 1.58579 23.4142C1.21071 23.0391 1 22.5304 1 22V2C1 1.46957 1.21071 0.960859 1.58579 0.585786C1.96086 0.210714 2.46957 0 3 0L15.763 0Z" fill="#FFC154"/>
<path fill-rule="evenodd" clip-rule="evenodd" d="M17.7632 7.237C17.2328 7.237 16.724 7.02629 16.349 6.65121C15.9739 6.27614 15.7632 5.76743 15.7632 5.237V0L23.0002 7.237H17.7632Z" fill="white" fill-opacity="0.401"/>
<path d="M17.5437 18.472C17.5437 18.6427 17.4984 18.7734 17.4077 18.864C17.317 18.9547 17.1864 19 17.0157 19H16.9997C16.829 19 16.6984 18.9547 16.6077 18.864C16.517 18.7734 16.4717 18.6427 16.4717 18.472V13.552H17.5437V18.472ZM18.6077 13.072C18.773 13.072 18.8984 13.1174 18.9837 13.208C19.0744 13.2934 19.1197 13.4187 19.1197 13.584V13.6C19.1197 13.7654 19.0744 13.8934 18.9837 13.984C18.8984 14.0694 18.773 14.112 18.6077 14.112H15.3997C15.2344 14.112 15.1064 14.0694 15.0157 13.984C14.9304 13.8934 14.8877 13.7654 14.8877 13.6V13.584C14.8877 13.4187 14.9304 13.2934 15.0157 13.208C15.1064 13.1174 15.2344 13.072 15.3997 13.072H18.6077Z" fill="white"/>
<path d="M14.3166 18.296C14.402 18.4187 14.4393 18.536 14.4286 18.648C14.4233 18.7547 14.3806 18.84 14.3006 18.904C14.2206 18.968 14.1193 19 13.9966 19H13.9646C13.81 19 13.674 18.9734 13.5566 18.92C13.4446 18.8614 13.346 18.768 13.2606 18.64L9.81262 13.776C9.72729 13.6534 9.68196 13.5387 9.67662 13.432C9.67129 13.32 9.70329 13.232 9.77262 13.168C9.84196 13.104 9.93529 13.072 10.0526 13.072H10.0846C10.2446 13.072 10.394 13.1014 10.5326 13.16C10.6713 13.2187 10.7833 13.3094 10.8686 13.432L14.3166 18.296ZM10.7326 18.64C10.6473 18.768 10.546 18.8614 10.4286 18.92C10.3166 18.9734 10.1833 19 10.0286 19H9.99662C9.87396 19 9.77262 18.968 9.69262 18.904C9.61262 18.84 9.56729 18.7547 9.55662 18.648C9.55129 18.536 9.59129 18.4187 9.67662 18.296L13.1246 13.432C13.21 13.3094 13.322 13.2187 13.4606 13.16C13.5993 13.1014 13.7486 13.072 13.9086 13.072H13.9406C14.058 13.072 14.1513 13.104 14.2206 13.168C14.29 13.232 14.322 13.32 14.3166 13.432C14.3113 13.5387 14.266 13.6534 14.1806 13.776L10.7326 18.64Z" fill="white"/>
<path d="M7.53588 18.472C7.53588 18.6427 7.49055 18.7734 7.39988 18.864C7.30922 18.9547 7.17855 19 7.00788 19H6.99188C6.82122 19 6.69055 18.9547 6.59988 18.864C6.50922 18.7734 6.46388 18.6427 6.46388 18.472V13.552H7.53588V18.472ZM8.59988 13.072C8.76522 13.072 8.89055 13.1174 8.97588 13.208C9.06655 13.2934 9.11188 13.4187 9.11188 13.584V13.6C9.11188 13.7654 9.06655 13.8934 8.97588 13.984C8.89055 14.0694 8.76522 14.112 8.59988 14.112H5.39188C5.22655 14.112 5.09855 14.0694 5.00788 13.984C4.92255 13.8934 4.87988 13.7654 4.87988 13.6V13.584C4.87988 13.4187 4.92255 13.2934 5.00788 13.208C5.09855 13.1174 5.22655 13.072 5.39188 13.072H8.59988Z" fill="white"/>
</g>
<defs>
<clipPath id="clip0_93_31635">
<rect width="24" height="24" fill="white"/>
</clipPath>
</defs>
</svg>
