<svg width="24" height="24" viewBox="0 0 24 24" fill="none" xmlns="http://www.w3.org/2000/svg">
<g clip-path="url(#clip0_93_31645)">
<path fill-rule="evenodd" clip-rule="evenodd" d="M15.763 0L23 7.237V22C23 22.5304 22.7893 23.0391 22.4142 23.4142C22.0391 23.7893 21.5304 24 21 24H3C2.46957 24 1.96086 23.7893 1.58579 23.4142C1.21071 23.0391 1 22.5304 1 22V2C1 1.46957 1.21071 0.960859 1.58579 0.585786C1.96086 0.210714 2.46957 0 3 0L15.763 0Z" fill="#0AAD2D"/>
<path fill-rule="evenodd" clip-rule="evenodd" d="M17.7632 7.237C17.2328 7.237 16.724 7.02629 16.349 6.65121C15.9739 6.27614 15.7632 5.76743 15.7632 5.237V0L23.0002 7.237H17.7632Z" fill="white" fill-opacity="0.401"/>
<path d="M17.8018 19C17.5245 19 17.3111 18.928 17.1618 18.784C17.0178 18.6347 16.9458 18.4214 16.9458 18.144V13.6C16.9458 13.4294 16.9911 13.2987 17.0818 13.208C17.1725 13.1174 17.3031 13.072 17.4738 13.072H17.4898C17.6605 13.072 17.7911 13.1174 17.8818 13.208C17.9725 13.2987 18.0178 13.4294 18.0178 13.6V19H17.8018ZM20.0098 17.96C20.1751 17.96 20.3005 18.0054 20.3858 18.096C20.4765 18.1814 20.5218 18.3067 20.5218 18.472V18.488C20.5218 18.6534 20.4765 18.7814 20.3858 18.872C20.3005 18.9574 20.1751 19 20.0098 19H17.8738V17.96H20.0098Z" fill="white"/>
<path d="M15.7294 18.472C15.7294 18.6427 15.684 18.7734 15.5934 18.864C15.5027 18.9547 15.372 19 15.2014 19H15.1854C15.0147 19 14.884 18.9547 14.7934 18.864C14.7027 18.7734 14.6574 18.6427 14.6574 18.472V15.416L13.0574 18.672C13.004 18.784 12.9347 18.8667 12.8494 18.92C12.764 18.9734 12.6574 19 12.5294 19H12.4974C12.3694 19 12.2627 18.9734 12.1774 18.92C12.092 18.8667 12.0227 18.784 11.9694 18.672L10.3694 15.416V18.472C10.3694 18.6427 10.324 18.7734 10.2334 18.864C10.1427 18.9547 10.012 19 9.84136 19H9.82536C9.6547 19 9.52403 18.9547 9.43336 18.864C9.3427 18.7734 9.29736 18.6427 9.29736 18.472V13.6C9.29736 13.4294 9.34003 13.2987 9.42536 13.208C9.5107 13.1174 9.63336 13.072 9.79336 13.072H9.85736C10.1507 13.072 10.3587 13.2 10.4814 13.456L12.5134 17.592L14.5454 13.456C14.668 13.2 14.876 13.072 15.1694 13.072H15.2014C15.372 13.072 15.5027 13.1174 15.5934 13.208C15.684 13.2987 15.7294 13.4294 15.7294 13.6V18.472Z" fill="white"/>
<path d="M8.2385 18.296C8.32383 18.4187 8.36116 18.536 8.3505 18.648C8.34516 18.7547 8.3025 18.84 8.2225 18.904C8.1425 18.968 8.04116 19 7.9185 19H7.8865C7.73183 19 7.59583 18.9734 7.4785 18.92C7.3665 18.8614 7.26783 18.768 7.1825 18.64L3.7345 13.776C3.64916 13.6534 3.60383 13.5387 3.5985 13.432C3.59316 13.32 3.62516 13.232 3.6945 13.168C3.76383 13.104 3.85716 13.072 3.9745 13.072H4.0065C4.1665 13.072 4.31583 13.1014 4.4545 13.16C4.59316 13.2187 4.70516 13.3094 4.7905 13.432L8.2385 18.296ZM4.6545 18.64C4.56916 18.768 4.46783 18.8614 4.3505 18.92C4.2385 18.9734 4.10516 19 3.9505 19H3.9185C3.79583 19 3.6945 18.968 3.6145 18.904C3.5345 18.84 3.48916 18.7547 3.4785 18.648C3.47316 18.536 3.51316 18.4187 3.5985 18.296L7.0465 13.432C7.13183 13.3094 7.24383 13.2187 7.3825 13.16C7.52116 13.1014 7.6705 13.072 7.8305 13.072H7.8625C7.97983 13.072 8.07316 13.104 8.1425 13.168C8.21183 13.232 8.24383 13.32 8.2385 13.432C8.23316 13.5387 8.18783 13.6534 8.1025 13.776L4.6545 18.64Z" fill="white"/>
</g>
<defs>
<clipPath id="clip0_93_31645">
<rect width="24" height="24" fill="white"/>
</clipPath>
</defs>
</svg>
