<svg width="24" height="24" viewBox="0 0 24 24" fill="none" xmlns="http://www.w3.org/2000/svg">
<g clip-path="url(#clip0_93_31620)">
<path fill-rule="evenodd" clip-rule="evenodd" d="M15.763 0L23 7.237V22C23 22.5304 22.7893 23.0391 22.4142 23.4142C22.0391 23.7893 21.5304 24 21 24H3C2.46957 24 1.96086 23.7893 1.58579 23.4142C1.21071 23.0391 1 22.5304 1 22V2C1 1.46957 1.21071 0.960859 1.58579 0.585786C1.96086 0.210714 2.46957 0 3 0L15.763 0Z" fill="#2996F7"/>
<path fill-rule="evenodd" clip-rule="evenodd" d="M17.7632 7.237C17.2328 7.237 16.724 7.02629 16.349 6.65121C15.9739 6.27614 15.7632 5.76743 15.7632 5.237V0L23.0002 7.237H17.7632Z" fill="white" fill-opacity="0.401"/>
<path d="M13.353 13.4271C13.907 13.9809 14.2284 14.7255 14.2514 15.5084C14.2745 16.2914 13.9974 17.0536 13.477 17.6391L13.353 17.7701L11.695 19.4301C11.1325 20.006 10.3662 20.3379 9.5613 20.3544C8.75639 20.371 7.97717 20.0708 7.39142 19.5184C6.80567 18.9661 6.46023 18.2059 6.42949 17.4014C6.39874 16.5969 6.68515 15.8125 7.22703 15.2171L7.35103 15.0861L8.03903 14.3981C8.17329 14.2628 8.35397 14.1838 8.54439 14.177C8.7348 14.1702 8.92068 14.2361 9.06426 14.3613C9.20784 14.4866 9.29837 14.6618 9.31746 14.8514C9.33655 15.041 9.28277 15.2307 9.16703 15.3821L9.10003 15.4591L8.41203 16.1461C8.12415 16.4315 7.95775 16.8171 7.94761 17.2224C7.93747 17.6276 8.08437 18.0211 8.35762 18.3206C8.63086 18.62 9.00929 18.8023 9.41378 18.8292C9.81827 18.8561 10.2175 18.7257 10.528 18.4651L10.634 18.3681L12.293 16.7101C12.439 16.5642 12.5547 16.391 12.6337 16.2003C12.7127 16.0097 12.7533 15.8054 12.7533 15.5991C12.7533 15.3927 12.7127 15.1884 12.6337 14.9978C12.5547 14.8071 12.439 14.6339 12.293 14.4881C12.1606 14.3459 12.0884 14.1578 12.0919 13.9635C12.0953 13.7692 12.174 13.5838 12.3114 13.4464C12.4488 13.309 12.6342 13.2303 12.8285 13.2269C13.0228 13.2235 13.2109 13.2956 13.353 13.4281V13.4271ZM16.649 10.1321C17.203 10.6859 17.5243 11.4305 17.5474 12.2134C17.5704 12.9964 17.2934 13.7586 16.773 14.3441L16.649 14.4741L15.961 15.1631C15.8268 15.2983 15.6461 15.3773 15.4557 15.3841C15.2653 15.3909 15.0794 15.325 14.9358 15.1998C14.7922 15.0745 14.7017 14.8993 14.6826 14.7097C14.6635 14.5202 14.7173 14.3304 14.833 14.1791L14.9 14.1021L15.588 13.4141C15.8733 13.1281 16.0375 12.7432 16.0464 12.3394C16.0553 11.9355 15.9084 11.5438 15.636 11.2454C15.3637 10.9471 14.9869 10.7651 14.584 10.7373C14.181 10.7095 13.7828 10.838 13.472 11.0961L13.366 11.1921L11.707 12.8511C11.4298 13.1281 11.2662 13.4989 11.2484 13.8904C11.2307 14.282 11.36 14.666 11.611 14.9671L11.707 15.0731C11.7807 15.1417 11.8398 15.2245 11.8808 15.3165C11.9218 15.4085 11.9438 15.5078 11.9456 15.6085C11.9474 15.7092 11.9289 15.8093 11.8912 15.9027C11.8534 15.996 11.7973 16.0809 11.7261 16.1521C11.6549 16.2233 11.57 16.2795 11.4766 16.3172C11.3832 16.3549 11.2832 16.3734 11.1825 16.3716C11.0818 16.3699 10.9825 16.3478 10.8905 16.3068C10.7985 16.2658 10.7157 16.2067 10.647 16.1331C10.0931 15.5792 9.77172 14.8347 9.74867 14.0517C9.72561 13.2687 10.0026 12.5065 10.523 11.9211L10.647 11.7911L12.305 10.1311C12.8813 9.55533 13.6625 9.23193 14.477 9.23193C15.2916 9.23193 16.0728 9.55533 16.649 10.1311V10.1321Z" fill="white"/>
</g>
<defs>
<clipPath id="clip0_93_31620">
<rect width="24" height="24" fill="white"/>
</clipPath>
</defs>
</svg>
