<svg width="24" height="24" viewBox="0 0 24 24" fill="none" xmlns="http://www.w3.org/2000/svg">
<g clip-path="url(#clip0_93_31643)">
<path fill-rule="evenodd" clip-rule="evenodd" d="M15.763 0L23 7.237V22C23 22.5304 22.7893 23.0391 22.4142 23.4142C22.0391 23.7893 21.5304 24 21 24H3C2.46957 24 1.96086 23.7893 1.58579 23.4142C1.21071 23.0391 1 22.5304 1 22V2C1 1.46957 1.21071 0.960859 1.58579 0.585786C1.96086 0.210714 2.46957 0 3 0L15.763 0Z" fill="#7711D0"/>
<path fill-rule="evenodd" clip-rule="evenodd" d="M17.7632 7.237C17.2328 7.237 16.724 7.02629 16.349 6.65121C15.9739 6.27614 15.7632 5.76743 15.7632 5.237V0L23.0002 7.237H17.7632Z" fill="white" fill-opacity="0.401"/>
<path d="M15.3365 17.7841C15.2565 17.6241 15.2538 17.4881 15.3285 17.3761C15.4031 17.2588 15.5285 17.1868 15.7045 17.1601L15.7605 17.1521C15.9045 17.1308 16.0218 17.1521 16.1125 17.2161C16.2031 17.2748 16.2991 17.3788 16.4005 17.5281C16.5391 17.7308 16.7365 17.8774 16.9925 17.9681C17.2538 18.0534 17.5152 18.0614 17.7765 17.9921C18.0431 17.9228 18.2511 17.7761 18.4005 17.5521C18.4965 17.4081 18.5472 17.2641 18.5525 17.1201C18.5578 16.9708 18.5151 16.8374 18.4245 16.7201C18.3391 16.6028 18.2165 16.5148 18.0565 16.4561C17.9338 16.4134 17.6992 16.3681 17.3525 16.3201C17.2832 16.3148 17.0965 16.2881 16.7925 16.2401C16.4031 16.1708 16.0858 15.9788 15.8405 15.6641C15.5951 15.3441 15.4725 14.9814 15.4725 14.5761C15.4725 14.1708 15.6111 13.8161 15.8885 13.5121C16.1551 13.2134 16.4938 13.0214 16.9045 12.9361C17.3205 12.8454 17.7311 12.8721 18.1365 13.0161C18.5471 13.1601 18.8831 13.4108 19.1445 13.7681C19.2511 13.9174 19.2805 14.0561 19.2325 14.1841C19.1845 14.3068 19.0805 14.4001 18.9205 14.4641L18.8805 14.4801C18.7365 14.5388 18.6111 14.5468 18.5045 14.5041C18.3978 14.4561 18.2858 14.3628 18.1685 14.2241C18.0298 14.0641 17.8698 13.9574 17.6885 13.9041C17.5071 13.8508 17.3258 13.8508 17.1445 13.9041C16.9685 13.9574 16.8165 14.0561 16.6885 14.2001C16.5711 14.3281 16.5125 14.4721 16.5125 14.6321C16.5125 14.7868 16.5631 14.9281 16.6645 15.0561C16.7658 15.1788 16.8992 15.2614 17.0645 15.3041C17.1231 15.3201 17.2005 15.3361 17.2965 15.3521C17.3925 15.3628 17.4885 15.3734 17.5845 15.3841C17.9578 15.4161 18.2405 15.4668 18.4325 15.5361C18.8378 15.6854 19.1418 15.9041 19.3445 16.1921C19.5525 16.4801 19.6512 16.8001 19.6405 17.1521C19.6351 17.4988 19.5231 17.8294 19.3045 18.1441C19.0165 18.5708 18.5978 18.8374 18.0485 18.9441C17.5045 19.0508 16.9711 18.9974 16.4485 18.7841C15.9311 18.5708 15.5605 18.2374 15.3365 17.7841Z" fill="white"/>
<path d="M10.3287 17.7841C10.2487 17.6241 10.246 17.4881 10.3207 17.3761C10.3953 17.2588 10.5207 17.1868 10.6967 17.1601L10.7527 17.1521C10.8967 17.1308 11.014 17.1521 11.1047 17.2161C11.1953 17.2748 11.2913 17.3788 11.3927 17.5281C11.5313 17.7308 11.7287 17.8774 11.9847 17.9681C12.246 18.0534 12.5073 18.0614 12.7687 17.9921C13.0353 17.9228 13.2433 17.7761 13.3927 17.5521C13.4887 17.4081 13.5393 17.2641 13.5447 17.1201C13.55 16.9708 13.5073 16.8374 13.4167 16.7201C13.3313 16.6028 13.2087 16.5148 13.0487 16.4561C12.926 16.4134 12.6913 16.3681 12.3447 16.3201C12.2753 16.3148 12.0887 16.2881 11.7847 16.2401C11.3953 16.1708 11.078 15.9788 10.8327 15.6641C10.5873 15.3441 10.4647 14.9814 10.4647 14.5761C10.4647 14.1708 10.6033 13.8161 10.8807 13.5121C11.1473 13.2134 11.486 13.0214 11.8967 12.9361C12.3127 12.8454 12.7233 12.8721 13.1287 13.0161C13.5393 13.1601 13.8753 13.4108 14.1367 13.7681C14.2433 13.9174 14.2727 14.0561 14.2247 14.1841C14.1767 14.3068 14.0727 14.4001 13.9127 14.4641L13.8727 14.4801C13.7287 14.5388 13.6033 14.5468 13.4967 14.5041C13.39 14.4561 13.278 14.3628 13.1607 14.2241C13.022 14.0641 12.862 13.9574 12.6807 13.9041C12.4993 13.8508 12.318 13.8508 12.1367 13.9041C11.9607 13.9574 11.8087 14.0561 11.6807 14.2001C11.5633 14.3281 11.5047 14.4721 11.5047 14.6321C11.5047 14.7868 11.5553 14.9281 11.6567 15.0561C11.758 15.1788 11.8913 15.2614 12.0567 15.3041C12.1153 15.3201 12.1927 15.3361 12.2887 15.3521C12.3847 15.3628 12.4807 15.3734 12.5767 15.3841C12.95 15.4161 13.2327 15.4668 13.4247 15.5361C13.83 15.6854 14.134 15.9041 14.3367 16.1921C14.5447 16.4801 14.6433 16.8001 14.6327 17.1521C14.6273 17.4988 14.5153 17.8294 14.2967 18.1441C14.0087 18.5708 13.59 18.8374 13.0407 18.9441C12.4967 19.0508 11.9633 18.9974 11.4407 18.7841C10.9233 18.5708 10.5527 18.2374 10.3287 17.7841Z" fill="white"/>
<path d="M7.3344 19.0001C6.77973 19.0001 6.27307 18.8641 5.8144 18.5921C5.36107 18.3148 5.00373 17.9441 4.7424 17.4801C4.4864 17.0108 4.3584 16.4988 4.3584 15.9441C4.3584 15.3948 4.4864 14.8881 4.7424 14.4241C5.00373 13.9548 5.36107 13.5841 5.8144 13.3121C6.27307 13.0348 6.77973 12.8961 7.3344 12.8961C7.72373 12.8961 8.08373 12.9655 8.4144 13.1041C8.74507 13.2428 9.0464 13.4401 9.3184 13.6961C9.4464 13.8188 9.50506 13.9441 9.4944 14.0721C9.48373 14.1948 9.40907 14.3121 9.2704 14.4241L9.2464 14.4401C9.1184 14.5415 8.99573 14.5868 8.8784 14.5761C8.76107 14.5655 8.6384 14.5015 8.5104 14.3841C8.33973 14.2241 8.16107 14.1068 7.9744 14.0321C7.78773 13.9521 7.5744 13.9121 7.3344 13.9121C6.95573 13.9121 6.61973 14.0001 6.3264 14.1761C6.0384 14.3468 5.81173 14.5868 5.6464 14.8961C5.4864 15.2055 5.4064 15.5548 5.4064 15.9441C5.4064 16.3388 5.4864 16.6908 5.6464 17.0001C5.8064 17.3095 6.03307 17.5521 6.3264 17.7281C6.61973 17.8988 6.95573 17.9841 7.3344 17.9841V19.0001ZM8.5184 17.5361C8.6464 17.4241 8.7664 17.3628 8.8784 17.3521C8.99573 17.3361 9.1184 17.3761 9.2464 17.4721L9.2704 17.4881C9.4144 17.5948 9.49173 17.7148 9.5024 17.8481C9.5184 17.9761 9.4624 18.0988 9.3344 18.2161C9.06773 18.4561 8.76373 18.6481 8.4224 18.7921C8.08107 18.9308 7.7184 19.0001 7.3344 19.0001C6.77973 19.0001 6.27307 18.8641 5.8144 18.5921C5.36107 18.3148 5.00373 17.9441 4.7424 17.4801C4.4864 17.0108 4.3584 16.4988 4.3584 15.9441C4.3584 15.3948 4.4864 14.8881 4.7424 14.4241C5.00373 13.9548 5.36107 13.5841 5.8144 13.3121C6.27307 13.0348 6.77973 12.8961 7.3344 12.8961V13.9121C6.95573 13.9121 6.61973 14.0001 6.3264 14.1761C6.0384 14.3468 5.81173 14.5868 5.6464 14.8961C5.4864 15.2055 5.4064 15.5548 5.4064 15.9441C5.4064 16.3388 5.4864 16.6908 5.6464 17.0001C5.8064 17.3095 6.03307 17.5521 6.3264 17.7281C6.61973 17.8988 6.95573 17.9841 7.3344 17.9841C7.56907 17.9841 7.7824 17.9468 7.9744 17.8721C8.17173 17.7921 8.35307 17.6801 8.5184 17.5361Z" fill="white"/>
</g>
<defs>
<clipPath id="clip0_93_31643">
<rect width="24" height="24" fill="white"/>
</clipPath>
</defs>
</svg>
