<svg width="24" height="25" viewBox="0 0 24 25" fill="none" xmlns="http://www.w3.org/2000/svg">
<g clip-path="url(#clip0_15207_78553)">
<mask id="mask0_15207_78553" style="mask-type:alpha" maskUnits="userSpaceOnUse" x="-1" y="0" width="25" height="24">
<path d="M23.9995 12C23.9995 21.3752 21.3747 24 11.9995 24C2.62433 24 -0.000488281 21.3752 -0.000488281 12C-0.000488281 2.62482 2.62433 0 11.9995 0C21.3747 0 23.9995 2.62482 23.9995 12Z" fill="#DDEBFF"/>
</mask>
<g mask="url(#mask0_15207_78553)">
<path d="M24 12C24 21.3752 21.3752 24 12 24C2.62482 24 0 21.3752 0 12C0 2.62482 2.62482 0 12 0C21.3752 0 24 2.62482 24 12Z" fill="#26DAA7"/>
<path d="M13.5038 19.6808L17.9549 7.25603C18.0563 6.9527 17.9836 6.62721 17.7673 6.40908C17.551 6.19095 17.23 6.11768 16.9224 6.22163L4.50015 10.7324C4.25681 10.8159 4.076 11.017 4.01854 11.2692C3.95939 11.5368 4.04389 11.8248 4.2416 12.0242C4.29737 12.0804 4.35989 12.1281 4.42918 12.1656L10.4232 13.972L12.0573 19.6723L12.0877 19.7455C12.2634 20.0625 12.6386 20.2346 12.9782 20.1562C13.225 20.1 13.4244 19.9194 13.5038 19.6808Z" fill="white"/>
</g>
</g>
<defs>
<clipPath id="clip0_15207_78553">
<rect width="24" height="24" fill="white"/>
</clipPath>
</defs>
</svg>
