<svg width="24" height="25" viewBox="0 0 24 25" fill="none" xmlns="http://www.w3.org/2000/svg">
<g clip-path="url(#clip0_15207_78216)">
<mask id="mask0_15207_78216" style="mask-type:alpha" maskUnits="userSpaceOnUse" x="-1" y="0" width="25" height="24">
<path d="M23.9995 12C23.9995 21.3752 21.3747 24 11.9995 24C2.62433 24 -0.000488281 21.3752 -0.000488281 12C-0.000488281 2.62482 2.62433 0 11.9995 0C21.3747 0 23.9995 2.62482 23.9995 12Z" fill="#DDEBFF"/>
</mask>
<g mask="url(#mask0_15207_78216)">
<path d="M24 12C24 21.3752 21.3752 24 12 24C2.62482 24 0 21.3752 0 12C0 2.62482 2.62482 0 12 0C21.3752 0 24 2.62482 24 12Z" fill="#6366F1"/>
<path d="M9.28378 18.5H7.39189C6.89028 18.4995 6.40937 18.3 6.05468 17.9453C5.69999 17.5906 5.5005 17.1097 5.5 16.6081V14.7162H6.82432C7.37626 14.7162 7.90559 14.497 8.29587 14.1067C8.68615 13.7164 8.90541 13.1871 8.90541 12.6351C8.90541 12.0832 8.68615 11.5539 8.29587 11.1636C7.90559 10.7733 7.37626 10.5541 6.82432 10.5541H5.5V9.04054C5.5005 8.53893 5.69999 8.05801 6.05468 7.70332C6.40937 7.34863 6.89028 7.14915 7.39189 7.14865H9.28378V6.58108C9.28378 6.02914 9.50304 5.49981 9.89332 5.10953C10.2836 4.71926 10.8129 4.5 11.3649 4.5C11.9168 4.5 12.4461 4.71926 12.8364 5.10953C13.2267 5.49981 13.4459 6.02914 13.4459 6.58108V7.14865H14.9595C15.4611 7.14915 15.942 7.34863 16.2967 7.70332C16.6514 8.05801 16.8509 8.53893 16.8514 9.04054V10.5541H17.4189C17.6922 10.5541 17.9628 10.6079 18.2153 10.7125C18.4678 10.8171 18.6972 10.9703 18.8905 11.1636C19.0837 11.3568 19.237 11.5863 19.3416 11.8387C19.4462 12.0912 19.5 12.3618 19.5 12.6351C19.5 12.9084 19.4462 13.179 19.3416 13.4315C19.237 13.684 19.0837 13.9134 18.8905 14.1067C18.6972 14.2999 18.4678 14.4532 18.2153 14.5578C17.9628 14.6624 17.6922 14.7162 17.4189 14.7162H16.8514V16.6081C16.8509 17.1097 16.6514 17.5906 16.2967 17.9453C15.942 18.3 15.4611 18.4995 14.9595 18.5H13.4459V17.1757C13.4459 16.9024 13.3921 16.6318 13.2875 16.3793C13.1829 16.1268 13.0297 15.8974 12.8364 15.7041C12.6432 15.5109 12.4137 15.3576 12.1613 15.253C11.9088 15.1484 11.6382 15.0946 11.3649 15.0946C11.0916 15.0946 10.821 15.1484 10.5685 15.253C10.316 15.3576 10.0866 15.5109 9.89332 15.7041C9.70007 15.8974 9.54678 16.1268 9.4422 16.3793C9.33761 16.6318 9.28378 16.9024 9.28378 17.1757V18.5Z" fill="white"/>
</g>
</g>
<defs>
<clipPath id="clip0_15207_78216">
<rect width="24" height="24" fill="white"/>
</clipPath>
</defs>
</svg>
