<svg width="24" height="24" viewBox="0 0 24 24" fill="none" xmlns="http://www.w3.org/2000/svg">
<g clip-path="url(#clip0_93_31625)">
<path fill-rule="evenodd" clip-rule="evenodd" d="M15.763 0L23 7.237V22C23 22.5304 22.7893 23.0391 22.4142 23.4142C22.0391 23.7893 21.5304 24 21 24H3C2.46957 24 1.96086 23.7893 1.58579 23.4142C1.21071 23.0391 1 22.5304 1 22V2C1 1.46957 1.21071 0.960859 1.58579 0.585786C1.96086 0.210714 2.46957 0 3 0L15.763 0Z" fill="#79878F"/>
<path fill-rule="evenodd" clip-rule="evenodd" d="M17.7632 7.237C17.2328 7.237 16.724 7.02629 16.349 6.65121C15.9739 6.27614 15.7632 5.76743 15.7632 5.237V0L23.0002 7.237H17.7632Z" fill="white" fill-opacity="0.401"/>
<path d="M12.62 8.60303C14.157 8.60303 15.388 9.89403 15.388 11.469C15.388 12.986 14.247 14.239 12.79 14.329L12.62 14.335H11.875C11.5655 14.3349 11.267 14.4495 11.0372 14.6568C10.8074 14.8641 10.6627 15.1492 10.631 15.457L10.625 15.585V17.065C10.6247 17.255 10.5523 17.4377 10.4225 17.5764C10.2927 17.715 10.1151 17.7993 9.92562 17.8121C9.73612 17.8249 9.54881 17.7654 9.40151 17.6454C9.25421 17.5255 9.15789 17.3542 9.132 17.166L9.125 17.064V15.585C9.12497 14.8847 9.39209 14.2108 9.87189 13.7007C10.3517 13.1906 11.008 12.8828 11.707 12.84L11.875 12.835H12.621C13.312 12.835 13.888 12.231 13.888 11.469C13.888 10.755 13.382 10.179 12.749 10.11L12.621 10.103H9.875C9.68498 10.103 9.50206 10.0308 9.36321 9.90106C9.22436 9.77133 9.13993 9.59373 9.12697 9.40415C9.11402 9.21457 9.17352 9.02714 9.29343 8.87973C9.41335 8.73232 9.58475 8.63593 9.773 8.61003L9.875 8.60303H12.621H12.62ZM9.876 18.65C10.0572 18.65 10.2323 18.7157 10.3689 18.8348C10.5055 18.9539 10.5944 19.1185 10.619 19.298L10.626 19.4V19.441C10.6259 19.6311 10.5538 19.814 10.424 19.9528C10.2943 20.0917 10.1167 20.1761 9.92712 20.1891C9.73754 20.202 9.55011 20.1425 9.4027 20.0226C9.25529 19.9027 9.1589 19.7313 9.133 19.543L9.126 19.441V19.401C9.126 19.2021 9.20502 19.0114 9.34567 18.8707C9.48632 18.73 9.67709 18.65 9.876 18.65Z" fill="white"/>
</g>
<defs>
<clipPath id="clip0_93_31625">
<rect width="24" height="24" fill="white"/>
</clipPath>
</defs>
</svg>
