<svg width="24" height="25" viewBox="0 0 24 25" fill="none" xmlns="http://www.w3.org/2000/svg">
<g clip-path="url(#clip0_20711_83051)">
<mask id="mask0_20711_83051" style="mask-type:alpha" maskUnits="userSpaceOnUse" x="-1" y="0" width="25" height="24">
<path d="M23.9995 12C23.9995 21.3752 21.3747 24 11.9995 24C2.62433 24 -0.000488281 21.3752 -0.000488281 12C-0.000488281 2.62482 2.62433 0 11.9995 0C21.3747 0 23.9995 2.62482 23.9995 12Z" fill="#DDEBFF"/>
</mask>
<g mask="url(#mask0_20711_83051)">
<path d="M24 12C24 21.3752 21.3752 24 12 24C2.62482 24 0 21.3752 0 12C0 2.62482 2.62482 0 12 0C21.3752 0 24 2.62482 24 12Z" fill="#494949"/>
<path d="M11.9999 14.7139C10.4718 14.7139 9.23285 13.4994 9.23285 12C9.23285 10.5021 10.4718 9.28622 11.9999 9.28622C13.5279 9.28622 14.7676 10.5021 14.7676 12C14.7676 13.4994 13.5286 14.7139 11.9999 14.7139ZM18.6378 10.6743L16.4896 7.02598C16.2481 6.62045 15.9051 6.28489 15.4944 6.0524C15.0836 5.81991 14.6194 5.69852 14.1474 5.70021H9.85233C9.38028 5.69854 8.91594 5.81992 8.5051 6.05241C8.09427 6.28489 7.75112 6.62045 7.5095 7.02598L5.36266 10.6743C5.12525 11.0758 5 11.5336 5 12C5 12.4665 5.12525 12.9243 5.36266 13.3258L7.5095 16.9741C7.75117 17.3796 8.09433 17.7151 8.50516 17.9476C8.91598 18.1801 9.38029 18.3015 9.85233 18.2999H14.1474C14.6194 18.3014 15.0835 18.18 15.4943 17.9475C15.905 17.715 16.248 17.3795 16.4896 16.9741L18.6378 13.3258C18.8749 12.9242 19 12.4664 19 12C19 11.5337 18.8749 11.0759 18.6378 10.6743Z" fill="white"/>
</g>
</g>
<defs>
<clipPath id="clip0_20711_83051">
<rect width="24" height="24" fill="white"/>
</clipPath>
</defs>
</svg>
