<svg width="24" height="24" viewBox="0 0 24 24" fill="none" xmlns="http://www.w3.org/2000/svg">
<g clip-path="url(#clip0_93_31663)">
<path fill-rule="evenodd" clip-rule="evenodd" d="M2 1H6.687C7.12225 0.999851 7.54567 1.14169 7.893 1.404L9.65 2.732C9.99693 2.99446 10.42 3.13664 10.855 3.137H22C22.5304 3.137 23.0391 3.34771 23.4142 3.72279C23.7893 4.09786 24 4.60657 24 5.137V21C24 21.5304 23.7893 22.0391 23.4142 22.4142C23.0391 22.7893 22.5304 23 22 23H2C1.46957 23 0.960859 22.7893 0.585786 22.4142C0.210714 22.0391 0 21.5304 0 21V3C0 2.46957 0.210714 1.96086 0.585786 1.58579C0.960859 1.21071 1.46957 1 2 1Z" fill="#FFA200"/>
<path fill-rule="evenodd" clip-rule="evenodd" d="M0 7.09998H24V21C24 21.5304 23.7893 22.0391 23.4142 22.4142C23.0391 22.7893 22.5304 23 22 23H2C1.46957 23 0.960859 22.7893 0.585786 22.4142C0.210714 22.0391 0 21.5304 0 21V7.09998Z" fill="#FFC154"/>
</g>
<defs>
<clipPath id="clip0_93_31663">
<rect width="24" height="24" fill="white"/>
</clipPath>
</defs>
</svg>
