<svg width="24" height="24" viewBox="0 0 24 24" fill="none" xmlns="http://www.w3.org/2000/svg">
<g clip-path="url(#clip0_17101_340720)">
<path fill-rule="evenodd" clip-rule="evenodd" d="M2 1H6.687C7.12225 0.999851 7.54567 1.14169 7.893 1.404L9.65 2.732C9.99693 2.99446 10.42 3.13664 10.855 3.137H20.5C21.0304 3.137 21.5391 3.34771 21.9142 3.72279C22.2893 4.09786 22.5 4.60657 22.5 5.137V21C22.5 21.5304 22.2893 22.0391 21.9142 22.4142C21.5391 22.7893 21.0304 23 20.5 23H2C1.46957 23 0.960859 22.7893 0.585786 22.4142C0.210714 22.0391 0 21.5304 0 21V3C0 2.46957 0.210714 1.96086 0.585786 1.58579C0.960859 1.21071 1.46957 1 2 1Z" fill="#3134C9"/>
<path d="M7.09918 8.38141C9.36314 5.96157 13.1599 5.83521 15.5798 8.09917C17.2999 9.70848 17.8613 12.0925 17.2282 14.2062L18.8198 15.6952L15.1761 19.5898L13.5848 18.101C11.5179 18.8726 9.10152 18.4713 7.38141 16.862C4.96157 14.598 4.83522 10.8012 7.09918 8.38141ZM10.8892 8.29867L11.0515 9.44319C11.4708 9.38397 11.8979 9.41221 12.3057 9.52613C12.7136 9.64005 13.0934 9.83717 13.4213 10.1051C13.7493 10.373 14.0182 10.7059 14.2111 11.0829C14.4041 11.4598 14.5169 11.8727 14.5424 12.2954L15.696 12.2255C15.5775 10.2334 14.0539 8.54615 12.0021 8.29056C11.6325 8.24434 11.2584 8.24717 10.8896 8.29897L10.8892 8.29867ZM16.2911 20.0244L19.3275 16.7789L19.9766 17.3862C20.0627 17.4667 20.1132 17.5781 20.1172 17.6959C20.1211 17.8137 20.078 17.9283 19.9975 18.0143L17.5684 20.6107C17.4878 20.6968 17.3764 20.7474 17.2586 20.7513C17.1408 20.7552 17.0263 20.7122 16.9402 20.6316L16.2911 20.0244Z" fill="white"/>
<path fill-rule="evenodd" clip-rule="evenodd" d="M1.5 11.5999H22.2417C23.1644 11.5999 23.8683 12.425 23.7229 13.3362L22.5 20.9999C22.5 21.5304 22.2893 22.0391 21.9142 22.4142C21.5391 22.7892 21.0304 22.9999 20.5 22.9999H2C1.46957 22.9999 0.960859 22.7892 0.585786 22.4142C0.210714 22.0391 0 21.5304 0 20.9999L1.5 11.5999Z" fill="#6366F1"/>
</g>
<defs>
<clipPath id="clip0_17101_340720">
<rect width="24" height="24" fill="white"/>
</clipPath>
</defs>
</svg>
