<svg width="24" height="24" viewBox="0 0 24 24" fill="none" xmlns="http://www.w3.org/2000/svg">
<g clip-path="url(#clip0_15207_78187)">
<path fill-rule="evenodd" clip-rule="evenodd" d="M2 1H6.687C7.12225 0.999851 7.54567 1.14169 7.893 1.404L9.65 2.732C9.99693 2.99446 10.42 3.13664 10.855 3.137H20.5C21.0304 3.137 21.5391 3.34771 21.9142 3.72279C22.2893 4.09786 22.5 4.60657 22.5 5.137V21C22.5 21.5304 22.2893 22.0391 21.9142 22.4142C21.5391 22.7893 21.0304 23 20.5 23H2C1.46957 23 0.960859 22.7893 0.585786 22.4142C0.210714 22.0391 0 21.5304 0 21V3C0 2.46957 0.210714 1.96086 0.585786 1.58579C0.960859 1.21071 1.46957 1 2 1Z" fill="#0078D4"/>
<path d="M12.2199 20.5974C11.31 20.7473 10.3795 20.7169 9.48154 20.5078C8.58358 20.2987 7.73575 19.915 6.98644 19.3786C6.23714 18.8422 5.60104 18.1636 5.11447 17.3817C4.6279 16.5997 4.30038 15.7295 4.15061 14.821C4.00084 13.9124 4.03176 12.9832 4.2416 12.0864C4.45144 11.1897 4.83609 10.3428 5.37358 9.59432C5.91108 8.84582 6.59091 8.21029 7.37424 7.72403C8.15757 7.23777 9.02906 6.91029 9.93897 6.7603C11.7766 6.45738 13.6591 6.89578 15.1724 7.97906C16.6857 9.06234 17.7058 10.7018 18.0083 12.5367C18.3107 14.3716 17.8708 16.2517 16.7853 17.7633C15.6998 19.275 14.0575 20.2944 12.2199 20.5974ZM11.8493 13.5519L11.2157 9.7083L9.67597 9.96211L10.563 15.3432L14.4124 14.7087L14.1589 13.1712L11.8493 13.5519ZM2.33467 9.81571L4.60821 6.64965L5.87663 7.55629L3.6018 10.7241L2.33467 9.81571ZM14.9514 4.94466L18.1216 7.21336L17.2123 8.48055L14.042 6.21108L14.9514 4.94466Z" fill="white"/>
<path fill-rule="evenodd" clip-rule="evenodd" d="M1.5 11.5999H22.2417C23.1644 11.5999 23.8683 12.425 23.7229 13.3362L22.5 20.9999C22.5 21.5304 22.2893 22.0391 21.9142 22.4142C21.5391 22.7892 21.0304 22.9999 20.5 22.9999H2C1.46957 22.9999 0.960859 22.7892 0.585786 22.4142C0.210714 22.0391 0 21.5304 0 20.9999L1.5 11.5999Z" fill="#53B4FF"/>
</g>
<defs>
<clipPath id="clip0_15207_78187">
<rect width="24" height="24" fill="white"/>
</clipPath>
</defs>
</svg>
